<?xml version="1.0" encoding="utf-8" standalone="no"?>
<!DOCTYPE svg PUBLIC "-//W3C//DTD SVG 1.1//EN"
  "http://www.w3.org/Graphics/SVG/1.1/DTD/svg11.dtd">
<svg xmlns:xlink="http://www.w3.org/1999/xlink" width="1000.340625pt" height="330.541644pt" viewBox="0 0 1000.340625 330.541644" xmlns="http://www.w3.org/2000/svg" version="1.1">
 <metadata>
  <rdf:RDF xmlns:dc="http://purl.org/dc/elements/1.1/" xmlns:cc="http://creativecommons.org/ns#" xmlns:rdf="http://www.w3.org/1999/02/22-rdf-syntax-ns#">
   <cc:Work>
    <dc:type rdf:resource="http://purl.org/dc/dcmitype/StillImage"/>
    <dc:date>2024-06-12T15:57:54.302380</dc:date>
    <dc:format>image/svg+xml</dc:format>
    <dc:creator>
     <cc:Agent>
      <dc:title>Matplotlib v3.8.2, https://matplotlib.org/</dc:title>
     </cc:Agent>
    </dc:creator>
   </cc:Work>
  </rdf:RDF>
 </metadata>
 <defs>
  <style type="text/css">*{stroke-linejoin: round; stroke-linecap: butt}</style>
 </defs>
 <g id="figure_1">
  <g id="axes_1">
   <g id="patch_1">
    <path d="M 40.600625 273.99006 
L 993.140625 273.99006 
L 993.140625 31.48286 
L 40.600625 31.48286 
z
" style="fill: #ffffff"/>
   </g>
   <g id="matplotlib.axis_1">
    <g id="xtick_1">
     <g id="text_1">
      <!-- −200 -->
      <g transform="translate(156.006799 287.06881) scale(0.08 -0.08)">
       <defs>
        <path id="DejaVuSans-2212" d="M 678 2272 
L 4684 2272 
L 4684 1741 
L 678 1741 
L 678 2272 
z
" transform="scale(0.015625)"/>
        <path id="DejaVuSans-32" d="M 1228 531 
L 3431 531 
L 3431 0 
L 469 0 
L 469 531 
Q 828 903 1448 1529 
Q 2069 2156 2228 2338 
Q 2531 2678 2651 2914 
Q 2772 3150 2772 3378 
Q 2772 3750 2511 3984 
Q 2250 4219 1831 4219 
Q 1534 4219 1204 4116 
Q 875 4013 500 3803 
L 500 4441 
Q 881 4594 1212 4672 
Q 1544 4750 1819 4750 
Q 2544 4750 2975 4387 
Q 3406 4025 3406 3419 
Q 3406 3131 3298 2873 
Q 3191 2616 2906 2266 
Q 2828 2175 2409 1742 
Q 1991 1309 1228 531 
z
" transform="scale(0.015625)"/>
        <path id="DejaVuSans-30" d="M 2034 4250 
Q 1547 4250 1301 3770 
Q 1056 3291 1056 2328 
Q 1056 1369 1301 889 
Q 1547 409 2034 409 
Q 2525 409 2770 889 
Q 3016 1369 3016 2328 
Q 3016 3291 2770 3770 
Q 2525 4250 2034 4250 
z
M 2034 4750 
Q 2819 4750 3233 4129 
Q 3647 3509 3647 2328 
Q 3647 1150 3233 529 
Q 2819 -91 2034 -91 
Q 1250 -91 836 529 
Q 422 1150 422 2328 
Q 422 3509 836 4129 
Q 1250 4750 2034 4750 
z
" transform="scale(0.015625)"/>
       </defs>
       <use xlink:href="#DejaVuSans-2212"/>
       <use xlink:href="#DejaVuSans-32" x="83.789062"/>
       <use xlink:href="#DejaVuSans-30" x="147.412109"/>
       <use xlink:href="#DejaVuSans-30" x="211.035156"/>
      </g>
     </g>
    </g>
    <g id="xtick_2">
     <g id="text_2">
      <!-- −100 -->
      <g transform="translate(330.945274 287.06881) scale(0.08 -0.08)">
       <defs>
        <path id="DejaVuSans-31" d="M 794 531 
L 1825 531 
L 1825 4091 
L 703 3866 
L 703 4441 
L 1819 4666 
L 2450 4666 
L 2450 531 
L 3481 531 
L 3481 0 
L 794 0 
L 794 531 
z
" transform="scale(0.015625)"/>
       </defs>
       <use xlink:href="#DejaVuSans-2212"/>
       <use xlink:href="#DejaVuSans-31" x="83.789062"/>
       <use xlink:href="#DejaVuSans-30" x="147.412109"/>
       <use xlink:href="#DejaVuSans-30" x="211.035156"/>
      </g>
     </g>
    </g>
    <g id="xtick_3">
     <g id="text_3">
      <!-- 0 -->
      <g transform="translate(514.325625 287.06881) scale(0.08 -0.08)">
       <use xlink:href="#DejaVuSans-30"/>
      </g>
     </g>
    </g>
    <g id="xtick_4">
     <g id="text_4">
      <!-- 100 -->
      <g transform="translate(684.174101 287.06881) scale(0.08 -0.08)">
       <use xlink:href="#DejaVuSans-31"/>
       <use xlink:href="#DejaVuSans-30" x="63.623047"/>
       <use xlink:href="#DejaVuSans-30" x="127.246094"/>
      </g>
     </g>
    </g>
    <g id="xtick_5">
     <g id="text_5">
      <!-- 200 -->
      <g transform="translate(859.112576 287.06881) scale(0.08 -0.08)">
       <use xlink:href="#DejaVuSans-32"/>
       <use xlink:href="#DejaVuSans-30" x="63.623047"/>
       <use xlink:href="#DejaVuSans-30" x="127.246094"/>
      </g>
     </g>
    </g>
    <g id="text_6">
     <!-- Inner Distance (bp) -->
     <g transform="translate(468.635469 300.330997) scale(0.1 -0.1)">
      <defs>
       <path id="DejaVuSans-49" d="M 628 4666 
L 1259 4666 
L 1259 0 
L 628 0 
L 628 4666 
z
" transform="scale(0.015625)"/>
       <path id="DejaVuSans-6e" d="M 3513 2113 
L 3513 0 
L 2938 0 
L 2938 2094 
Q 2938 2591 2744 2837 
Q 2550 3084 2163 3084 
Q 1697 3084 1428 2787 
Q 1159 2491 1159 1978 
L 1159 0 
L 581 0 
L 581 3500 
L 1159 3500 
L 1159 2956 
Q 1366 3272 1645 3428 
Q 1925 3584 2291 3584 
Q 2894 3584 3203 3211 
Q 3513 2838 3513 2113 
z
" transform="scale(0.015625)"/>
       <path id="DejaVuSans-65" d="M 3597 1894 
L 3597 1613 
L 953 1613 
Q 991 1019 1311 708 
Q 1631 397 2203 397 
Q 2534 397 2845 478 
Q 3156 559 3463 722 
L 3463 178 
Q 3153 47 2828 -22 
Q 2503 -91 2169 -91 
Q 1331 -91 842 396 
Q 353 884 353 1716 
Q 353 2575 817 3079 
Q 1281 3584 2069 3584 
Q 2775 3584 3186 3129 
Q 3597 2675 3597 1894 
z
M 3022 2063 
Q 3016 2534 2758 2815 
Q 2500 3097 2075 3097 
Q 1594 3097 1305 2825 
Q 1016 2553 972 2059 
L 3022 2063 
z
" transform="scale(0.015625)"/>
       <path id="DejaVuSans-72" d="M 2631 2963 
Q 2534 3019 2420 3045 
Q 2306 3072 2169 3072 
Q 1681 3072 1420 2755 
Q 1159 2438 1159 1844 
L 1159 0 
L 581 0 
L 581 3500 
L 1159 3500 
L 1159 2956 
Q 1341 3275 1631 3429 
Q 1922 3584 2338 3584 
Q 2397 3584 2469 3576 
Q 2541 3569 2628 3553 
L 2631 2963 
z
" transform="scale(0.015625)"/>
       <path id="DejaVuSans-20" transform="scale(0.015625)"/>
       <path id="DejaVuSans-44" d="M 1259 4147 
L 1259 519 
L 2022 519 
Q 2988 519 3436 956 
Q 3884 1394 3884 2338 
Q 3884 3275 3436 3711 
Q 2988 4147 2022 4147 
L 1259 4147 
z
M 628 4666 
L 1925 4666 
Q 3281 4666 3915 4102 
Q 4550 3538 4550 2338 
Q 4550 1131 3912 565 
Q 3275 0 1925 0 
L 628 0 
L 628 4666 
z
" transform="scale(0.015625)"/>
       <path id="DejaVuSans-69" d="M 603 3500 
L 1178 3500 
L 1178 0 
L 603 0 
L 603 3500 
z
M 603 4863 
L 1178 4863 
L 1178 4134 
L 603 4134 
L 603 4863 
z
" transform="scale(0.015625)"/>
       <path id="DejaVuSans-73" d="M 2834 3397 
L 2834 2853 
Q 2591 2978 2328 3040 
Q 2066 3103 1784 3103 
Q 1356 3103 1142 2972 
Q 928 2841 928 2578 
Q 928 2378 1081 2264 
Q 1234 2150 1697 2047 
L 1894 2003 
Q 2506 1872 2764 1633 
Q 3022 1394 3022 966 
Q 3022 478 2636 193 
Q 2250 -91 1575 -91 
Q 1294 -91 989 -36 
Q 684 19 347 128 
L 347 722 
Q 666 556 975 473 
Q 1284 391 1588 391 
Q 1994 391 2212 530 
Q 2431 669 2431 922 
Q 2431 1156 2273 1281 
Q 2116 1406 1581 1522 
L 1381 1569 
Q 847 1681 609 1914 
Q 372 2147 372 2553 
Q 372 3047 722 3315 
Q 1072 3584 1716 3584 
Q 2034 3584 2315 3537 
Q 2597 3491 2834 3397 
z
" transform="scale(0.015625)"/>
       <path id="DejaVuSans-74" d="M 1172 4494 
L 1172 3500 
L 2356 3500 
L 2356 3053 
L 1172 3053 
L 1172 1153 
Q 1172 725 1289 603 
Q 1406 481 1766 481 
L 2356 481 
L 2356 0 
L 1766 0 
Q 1100 0 847 248 
Q 594 497 594 1153 
L 594 3053 
L 172 3053 
L 172 3500 
L 594 3500 
L 594 4494 
L 1172 4494 
z
" transform="scale(0.015625)"/>
       <path id="DejaVuSans-61" d="M 2194 1759 
Q 1497 1759 1228 1600 
Q 959 1441 959 1056 
Q 959 750 1161 570 
Q 1363 391 1709 391 
Q 2188 391 2477 730 
Q 2766 1069 2766 1631 
L 2766 1759 
L 2194 1759 
z
M 3341 1997 
L 3341 0 
L 2766 0 
L 2766 531 
Q 2569 213 2275 61 
Q 1981 -91 1556 -91 
Q 1019 -91 701 211 
Q 384 513 384 1019 
Q 384 1609 779 1909 
Q 1175 2209 1959 2209 
L 2766 2209 
L 2766 2266 
Q 2766 2663 2505 2880 
Q 2244 3097 1772 3097 
Q 1472 3097 1187 3025 
Q 903 2953 641 2809 
L 641 3341 
Q 956 3463 1253 3523 
Q 1550 3584 1831 3584 
Q 2591 3584 2966 3190 
Q 3341 2797 3341 1997 
z
" transform="scale(0.015625)"/>
       <path id="DejaVuSans-63" d="M 3122 3366 
L 3122 2828 
Q 2878 2963 2633 3030 
Q 2388 3097 2138 3097 
Q 1578 3097 1268 2742 
Q 959 2388 959 1747 
Q 959 1106 1268 751 
Q 1578 397 2138 397 
Q 2388 397 2633 464 
Q 2878 531 3122 666 
L 3122 134 
Q 2881 22 2623 -34 
Q 2366 -91 2075 -91 
Q 1284 -91 818 406 
Q 353 903 353 1747 
Q 353 2603 823 3093 
Q 1294 3584 2113 3584 
Q 2378 3584 2631 3529 
Q 2884 3475 3122 3366 
z
" transform="scale(0.015625)"/>
       <path id="DejaVuSans-28" d="M 1984 4856 
Q 1566 4138 1362 3434 
Q 1159 2731 1159 2009 
Q 1159 1288 1364 580 
Q 1569 -128 1984 -844 
L 1484 -844 
Q 1016 -109 783 600 
Q 550 1309 550 2009 
Q 550 2706 781 3412 
Q 1013 4119 1484 4856 
L 1984 4856 
z
" transform="scale(0.015625)"/>
       <path id="DejaVuSans-62" d="M 3116 1747 
Q 3116 2381 2855 2742 
Q 2594 3103 2138 3103 
Q 1681 3103 1420 2742 
Q 1159 2381 1159 1747 
Q 1159 1113 1420 752 
Q 1681 391 2138 391 
Q 2594 391 2855 752 
Q 3116 1113 3116 1747 
z
M 1159 2969 
Q 1341 3281 1617 3432 
Q 1894 3584 2278 3584 
Q 2916 3584 3314 3078 
Q 3713 2572 3713 1747 
Q 3713 922 3314 415 
Q 2916 -91 2278 -91 
Q 1894 -91 1617 61 
Q 1341 213 1159 525 
L 1159 0 
L 581 0 
L 581 4863 
L 1159 4863 
L 1159 2969 
z
" transform="scale(0.015625)"/>
       <path id="DejaVuSans-70" d="M 1159 525 
L 1159 -1331 
L 581 -1331 
L 581 3500 
L 1159 3500 
L 1159 2969 
Q 1341 3281 1617 3432 
Q 1894 3584 2278 3584 
Q 2916 3584 3314 3078 
Q 3713 2572 3713 1747 
Q 3713 922 3314 415 
Q 2916 -91 2278 -91 
Q 1894 -91 1617 61 
Q 1341 213 1159 525 
z
M 3116 1747 
Q 3116 2381 2855 2742 
Q 2594 3103 2138 3103 
Q 1681 3103 1420 2742 
Q 1159 2381 1159 1747 
Q 1159 1113 1420 752 
Q 1681 391 2138 391 
Q 2594 391 2855 752 
Q 3116 1113 3116 1747 
z
" transform="scale(0.015625)"/>
       <path id="DejaVuSans-29" d="M 513 4856 
L 1013 4856 
Q 1481 4119 1714 3412 
Q 1947 2706 1947 2009 
Q 1947 1309 1714 600 
Q 1481 -109 1013 -844 
L 513 -844 
Q 928 -128 1133 580 
Q 1338 1288 1338 2009 
Q 1338 2731 1133 3434 
Q 928 4138 513 4856 
z
" transform="scale(0.015625)"/>
      </defs>
      <use xlink:href="#DejaVuSans-49"/>
      <use xlink:href="#DejaVuSans-6e" x="29.492188"/>
      <use xlink:href="#DejaVuSans-6e" x="92.871094"/>
      <use xlink:href="#DejaVuSans-65" x="156.25"/>
      <use xlink:href="#DejaVuSans-72" x="217.773438"/>
      <use xlink:href="#DejaVuSans-20" x="258.886719"/>
      <use xlink:href="#DejaVuSans-44" x="290.673828"/>
      <use xlink:href="#DejaVuSans-69" x="367.675781"/>
      <use xlink:href="#DejaVuSans-73" x="395.458984"/>
      <use xlink:href="#DejaVuSans-74" x="447.558594"/>
      <use xlink:href="#DejaVuSans-61" x="486.767578"/>
      <use xlink:href="#DejaVuSans-6e" x="548.046875"/>
      <use xlink:href="#DejaVuSans-63" x="611.425781"/>
      <use xlink:href="#DejaVuSans-65" x="666.40625"/>
      <use xlink:href="#DejaVuSans-20" x="727.929688"/>
      <use xlink:href="#DejaVuSans-28" x="759.716797"/>
      <use xlink:href="#DejaVuSans-62" x="798.730469"/>
      <use xlink:href="#DejaVuSans-70" x="862.207031"/>
      <use xlink:href="#DejaVuSans-29" x="925.683594"/>
     </g>
    </g>
   </g>
   <g id="matplotlib.axis_2">
    <g id="ytick_1">
     <g id="line2d_1">
      <path d="M 40.600625 262.967005 
L 993.140625 262.967005 
" clip-path="url(#pbcb10c2a92)" style="fill: none; stroke: #dedede; stroke-linecap: square"/>
     </g>
     <g id="text_7">
      <!-- 0.0 -->
      <g transform="translate(20.878125 266.00638) scale(0.08 -0.08)">
       <defs>
        <path id="DejaVuSans-2e" d="M 684 794 
L 1344 794 
L 1344 0 
L 684 0 
L 684 794 
z
" transform="scale(0.015625)"/>
       </defs>
       <use xlink:href="#DejaVuSans-30"/>
       <use xlink:href="#DejaVuSans-2e" x="63.623047"/>
       <use xlink:href="#DejaVuSans-30" x="95.410156"/>
      </g>
     </g>
    </g>
    <g id="ytick_2">
     <g id="line2d_2">
      <path d="M 40.600625 224.790171 
L 993.140625 224.790171 
" clip-path="url(#pbcb10c2a92)" style="fill: none; stroke: #dedede; stroke-linecap: square"/>
     </g>
     <g id="text_8">
      <!-- 0.5 -->
      <g transform="translate(20.878125 227.829546) scale(0.08 -0.08)">
       <defs>
        <path id="DejaVuSans-35" d="M 691 4666 
L 3169 4666 
L 3169 4134 
L 1269 4134 
L 1269 2991 
Q 1406 3038 1543 3061 
Q 1681 3084 1819 3084 
Q 2600 3084 3056 2656 
Q 3513 2228 3513 1497 
Q 3513 744 3044 326 
Q 2575 -91 1722 -91 
Q 1428 -91 1123 -41 
Q 819 9 494 109 
L 494 744 
Q 775 591 1075 516 
Q 1375 441 1709 441 
Q 2250 441 2565 725 
Q 2881 1009 2881 1497 
Q 2881 1984 2565 2268 
Q 2250 2553 1709 2553 
Q 1456 2553 1204 2497 
Q 953 2441 691 2322 
L 691 4666 
z
" transform="scale(0.015625)"/>
       </defs>
       <use xlink:href="#DejaVuSans-30"/>
       <use xlink:href="#DejaVuSans-2e" x="63.623047"/>
       <use xlink:href="#DejaVuSans-35" x="95.410156"/>
      </g>
     </g>
    </g>
    <g id="ytick_3">
     <g id="line2d_3">
      <path d="M 40.600625 186.613337 
L 993.140625 186.613337 
" clip-path="url(#pbcb10c2a92)" style="fill: none; stroke: #dedede; stroke-linecap: square"/>
     </g>
     <g id="text_9">
      <!-- 1.0 -->
      <g transform="translate(20.878125 189.652712) scale(0.08 -0.08)">
       <use xlink:href="#DejaVuSans-31"/>
       <use xlink:href="#DejaVuSans-2e" x="63.623047"/>
       <use xlink:href="#DejaVuSans-30" x="95.410156"/>
      </g>
     </g>
    </g>
    <g id="ytick_4">
     <g id="line2d_4">
      <path d="M 40.600625 148.436503 
L 993.140625 148.436503 
" clip-path="url(#pbcb10c2a92)" style="fill: none; stroke: #dedede; stroke-linecap: square"/>
     </g>
     <g id="text_10">
      <!-- 1.5 -->
      <g transform="translate(20.878125 151.475878) scale(0.08 -0.08)">
       <use xlink:href="#DejaVuSans-31"/>
       <use xlink:href="#DejaVuSans-2e" x="63.623047"/>
       <use xlink:href="#DejaVuSans-35" x="95.410156"/>
      </g>
     </g>
    </g>
    <g id="ytick_5">
     <g id="line2d_5">
      <path d="M 40.600625 110.259669 
L 993.140625 110.259669 
" clip-path="url(#pbcb10c2a92)" style="fill: none; stroke: #dedede; stroke-linecap: square"/>
     </g>
     <g id="text_11">
      <!-- 2.0 -->
      <g transform="translate(20.878125 113.299044) scale(0.08 -0.08)">
       <use xlink:href="#DejaVuSans-32"/>
       <use xlink:href="#DejaVuSans-2e" x="63.623047"/>
       <use xlink:href="#DejaVuSans-30" x="95.410156"/>
      </g>
     </g>
    </g>
    <g id="ytick_6">
     <g id="line2d_6">
      <path d="M 40.600625 72.082834 
L 993.140625 72.082834 
" clip-path="url(#pbcb10c2a92)" style="fill: none; stroke: #dedede; stroke-linecap: square"/>
     </g>
     <g id="text_12">
      <!-- 2.5 -->
      <g transform="translate(20.878125 75.122209) scale(0.08 -0.08)">
       <use xlink:href="#DejaVuSans-32"/>
       <use xlink:href="#DejaVuSans-2e" x="63.623047"/>
       <use xlink:href="#DejaVuSans-35" x="95.410156"/>
      </g>
     </g>
    </g>
    <g id="ytick_7">
     <g id="line2d_7">
      <path d="M 40.600625 33.906 
L 993.140625 33.906 
" clip-path="url(#pbcb10c2a92)" style="fill: none; stroke: #dedede; stroke-linecap: square"/>
     </g>
     <g id="text_13">
      <!-- 3.0 -->
      <g transform="translate(20.878125 36.945375) scale(0.08 -0.08)">
       <defs>
        <path id="DejaVuSans-33" d="M 2597 2516 
Q 3050 2419 3304 2112 
Q 3559 1806 3559 1356 
Q 3559 666 3084 287 
Q 2609 -91 1734 -91 
Q 1441 -91 1130 -33 
Q 819 25 488 141 
L 488 750 
Q 750 597 1062 519 
Q 1375 441 1716 441 
Q 2309 441 2620 675 
Q 2931 909 2931 1356 
Q 2931 1769 2642 2001 
Q 2353 2234 1838 2234 
L 1294 2234 
L 1294 2753 
L 1863 2753 
Q 2328 2753 2575 2939 
Q 2822 3125 2822 3475 
Q 2822 3834 2567 4026 
Q 2313 4219 1838 4219 
Q 1578 4219 1281 4162 
Q 984 4106 628 3988 
L 628 4550 
Q 988 4650 1302 4700 
Q 1616 4750 1894 4750 
Q 2613 4750 3031 4423 
Q 3450 4097 3450 3541 
Q 3450 3153 3228 2886 
Q 3006 2619 2597 2516 
z
" transform="scale(0.015625)"/>
       </defs>
       <use xlink:href="#DejaVuSans-33"/>
       <use xlink:href="#DejaVuSans-2e" x="63.623047"/>
       <use xlink:href="#DejaVuSans-30" x="95.410156"/>
      </g>
     </g>
    </g>
    <g id="text_14">
     <!-- Percentage -->
     <g transform="translate(14.798438 180.859116) rotate(-90) scale(0.1 -0.1)">
      <defs>
       <path id="DejaVuSans-50" d="M 1259 4147 
L 1259 2394 
L 2053 2394 
Q 2494 2394 2734 2622 
Q 2975 2850 2975 3272 
Q 2975 3691 2734 3919 
Q 2494 4147 2053 4147 
L 1259 4147 
z
M 628 4666 
L 2053 4666 
Q 2838 4666 3239 4311 
Q 3641 3956 3641 3272 
Q 3641 2581 3239 2228 
Q 2838 1875 2053 1875 
L 1259 1875 
L 1259 0 
L 628 0 
L 628 4666 
z
" transform="scale(0.015625)"/>
       <path id="DejaVuSans-67" d="M 2906 1791 
Q 2906 2416 2648 2759 
Q 2391 3103 1925 3103 
Q 1463 3103 1205 2759 
Q 947 2416 947 1791 
Q 947 1169 1205 825 
Q 1463 481 1925 481 
Q 2391 481 2648 825 
Q 2906 1169 2906 1791 
z
M 3481 434 
Q 3481 -459 3084 -895 
Q 2688 -1331 1869 -1331 
Q 1566 -1331 1297 -1286 
Q 1028 -1241 775 -1147 
L 775 -588 
Q 1028 -725 1275 -790 
Q 1522 -856 1778 -856 
Q 2344 -856 2625 -561 
Q 2906 -266 2906 331 
L 2906 616 
Q 2728 306 2450 153 
Q 2172 0 1784 0 
Q 1141 0 747 490 
Q 353 981 353 1791 
Q 353 2603 747 3093 
Q 1141 3584 1784 3584 
Q 2172 3584 2450 3431 
Q 2728 3278 2906 2969 
L 2906 3500 
L 3481 3500 
L 3481 434 
z
" transform="scale(0.015625)"/>
      </defs>
      <use xlink:href="#DejaVuSans-50"/>
      <use xlink:href="#DejaVuSans-65" x="56.677734"/>
      <use xlink:href="#DejaVuSans-72" x="118.201172"/>
      <use xlink:href="#DejaVuSans-63" x="157.064453"/>
      <use xlink:href="#DejaVuSans-65" x="212.044922"/>
      <use xlink:href="#DejaVuSans-6e" x="273.568359"/>
      <use xlink:href="#DejaVuSans-74" x="336.947266"/>
      <use xlink:href="#DejaVuSans-61" x="376.15625"/>
      <use xlink:href="#DejaVuSans-67" x="437.435547"/>
      <use xlink:href="#DejaVuSans-65" x="500.912109"/>
     </g>
    </g>
   </g>
   <g id="line2d_8">
    <path d="M 83.897898 262.967005 
L 92.644822 262.967005 
L 101.391745 262.967005 
L 110.138669 262.967005 
L 118.885593 262.967005 
L 127.632517 262.967005 
L 136.37944 262.967005 
L 145.126364 262.967005 
L 153.873288 262.967005 
L 162.620212 262.967005 
L 171.367136 262.967005 
L 180.114059 262.967005 
L 188.860983 262.967005 
L 197.607907 262.967005 
L 206.354831 262.967005 
L 215.101754 262.967005 
L 223.848678 262.967005 
L 232.595602 262.967005 
L 241.342526 262.967005 
L 250.08945 262.967005 
L 258.836373 262.967005 
L 267.583297 262.967005 
L 276.330221 262.967005 
L 285.077145 262.967005 
L 293.824069 262.967005 
L 302.570992 262.967005 
L 311.317916 262.967005 
L 320.06484 262.967005 
L 328.811764 262.967005 
L 337.558687 262.967005 
L 346.305611 248.52678 
L 355.052535 237.520986 
L 363.799459 228.076298 
L 372.546383 212.543299 
L 381.293306 204.347495 
L 390.04023 192.717259 
L 398.787154 181.4773 
L 407.534078 174.998712 
L 416.281001 171.330115 
L 425.027925 164.383195 
L 433.774849 162.82209 
L 442.521773 152.752959 
L 451.268697 150.411301 
L 460.01562 154.470175 
L 468.762544 155.484894 
L 477.509468 148.694085 
L 486.256392 148.225754 
L 495.003316 147.367146 
L 503.750239 150.645467 
L 512.497163 146.586593 
L 521.244087 155.797115 
L 529.991011 148.694085 
L 538.737934 148.850196 
L 547.484858 142.215498 
L 556.231782 146.664648 
L 564.978706 147.28909 
L 573.72563 146.664648 
L 582.472553 150.177135 
L 591.219477 146.352427 
L 599.966401 147.367146 
L 608.713325 144.557156 
L 617.460249 151.347965 
L 626.207172 147.13298 
L 634.954096 145.80604 
L 643.70102 136.985794 
L 652.447944 146.742703 
L 661.194867 145.80604 
L 669.941791 145.727985 
L 678.688715 147.523256 
L 687.435639 144.166879 
L 696.182563 148.381864 
L 704.929486 137.21996 
L 713.67641 135.814965 
L 722.423334 139.249397 
L 731.170258 146.820759 
L 739.917181 137.532181 
L 748.664105 143.542437 
L 757.411029 134.331915 
L 766.157953 139.015231 
L 774.904877 134.40997 
L 783.6518 131.053593 
L 792.398724 135.814965 
L 801.145648 139.405508 
L 809.892572 133.473307 
L 818.639496 137.532181 
L 827.386419 138.078568 
L 836.133343 142.683829 
L 844.880267 139.327452 
L 853.627191 143.854658 
L 862.374114 143.698548 
L 871.121038 142.215498 
L 879.867962 145.571874 
L 888.614886 146.820759 
L 897.36181 149.162417 
L 906.108733 148.537975 
L 914.855657 157.046 
L 923.602581 152.831015 
L 932.349505 156.421557 
L 941.096428 158.216829 
L 949.843352 165.007637 
" clip-path="url(#pbcb10c2a92)" style="fill: none; stroke: #7cb5ec; stroke-linecap: square"/>
   </g>
   <g id="line2d_9">
    <path d="M 83.897898 262.967005 
L 92.644822 262.967005 
L 101.391745 262.967005 
L 110.138669 262.967005 
L 118.885593 262.967005 
L 127.632517 262.967005 
L 136.37944 262.967005 
L 145.126364 262.967005 
L 153.873288 262.967005 
L 162.620212 262.967005 
L 171.367136 262.967005 
L 180.114059 262.967005 
L 188.860983 262.967005 
L 197.607907 262.967005 
L 206.354831 262.967005 
L 215.101754 262.967005 
L 223.848678 262.967005 
L 232.595602 262.967005 
L 241.342526 262.967005 
L 250.08945 262.967005 
L 258.836373 262.967005 
L 267.583297 262.967005 
L 276.330221 262.967005 
L 285.077145 262.967005 
L 293.824069 262.967005 
L 302.570992 262.967005 
L 311.317916 262.967005 
L 320.06484 262.967005 
L 328.811764 262.967005 
L 337.558687 262.967005 
L 346.305611 228.74549 
L 355.052535 210.488136 
L 363.799459 188.349991 
L 372.546383 166.476445 
L 381.293306 151.306083 
L 390.04023 132.872329 
L 398.787154 113.380177 
L 407.534078 90.448234 
L 416.281001 82.245654 
L 425.027925 72.631878 
L 433.774849 66.105094 
L 442.521773 66.987092 
L 451.268697 58.078914 
L 460.01562 64.782098 
L 468.762544 55.60932 
L 477.509468 62.753503 
L 486.256392 57.461516 
L 495.003316 55.521121 
L 503.750239 61.254106 
L 512.497163 61.783305 
L 521.244087 79.77606 
L 529.991011 78.629463 
L 538.737934 84.627048 
L 547.484858 89.125237 
L 556.231782 97.945215 
L 564.978706 100.591209 
L 573.72563 102.884403 
L 582.472553 109.411187 
L 591.219477 111.175182 
L 599.966401 122.641154 
L 608.713325 122.200155 
L 617.460249 128.550539 
L 626.207172 137.635117 
L 634.954096 142.927104 
L 643.70102 143.279903 
L 652.447944 145.484897 
L 661.194867 155.363273 
L 669.941791 160.47886 
L 678.688715 165.859047 
L 687.435639 168.59324 
L 696.182563 179.265413 
L 704.929486 177.501418 
L 713.67641 183.940002 
L 722.423334 178.824414 
L 731.170258 186.056796 
L 739.917181 191.172384 
L 748.664105 193.112779 
L 757.411029 189.408388 
L 766.157953 196.287971 
L 774.904877 198.492966 
L 783.6518 202.726555 
L 792.398724 202.902955 
L 801.145648 210.135337 
L 809.892572 212.340331 
L 818.639496 208.72414 
L 827.386419 207.842142 
L 836.133343 211.105534 
L 844.880267 218.073317 
L 853.627191 219.925512 
L 862.374114 222.483306 
L 871.121038 224.335501 
L 879.867962 226.628696 
L 888.614886 223.894502 
L 897.36181 225.393899 
L 906.108733 223.806303 
L 914.855657 228.128092 
L 923.602581 230.862285 
L 932.349505 233.861078 
L 941.096428 235.360474 
L 949.843352 235.272274 
" clip-path="url(#pbcb10c2a92)" style="fill: none; stroke: #434348; stroke-linecap: square"/>
   </g>
   <g id="line2d_10">
    <path d="M 83.897898 262.967005 
L 92.644822 262.967005 
L 101.391745 262.967005 
L 110.138669 262.967005 
L 118.885593 262.967005 
L 127.632517 262.967005 
L 136.37944 262.967005 
L 145.126364 262.967005 
L 153.873288 262.967005 
L 162.620212 262.967005 
L 171.367136 262.967005 
L 180.114059 262.967005 
L 188.860983 262.967005 
L 197.607907 262.967005 
L 206.354831 262.967005 
L 215.101754 262.967005 
L 223.848678 262.967005 
L 232.595602 262.967005 
L 241.342526 262.967005 
L 250.08945 262.967005 
L 258.836373 262.967005 
L 267.583297 262.967005 
L 276.330221 262.967005 
L 285.077145 262.967005 
L 293.824069 262.967005 
L 302.570992 262.967005 
L 311.317916 262.967005 
L 320.06484 262.967005 
L 328.811764 262.967005 
L 337.558687 262.967005 
L 346.305611 248.009418 
L 355.052535 235.298679 
L 363.799459 227.466809 
L 372.546383 213.728939 
L 381.293306 201.339178 
L 390.04023 187.087743 
L 398.787154 184.455721 
L 407.534078 174.377004 
L 416.281001 168.278416 
L 425.027925 162.179829 
L 433.774849 164.426677 
L 442.521773 157.429351 
L 451.268697 153.641807 
L 460.01562 156.85159 
L 468.762544 158.456481 
L 477.509468 155.439286 
L 486.256392 156.209634 
L 495.003316 149.982655 
L 503.750239 149.854264 
L 512.497163 150.239438 
L 521.244087 154.92572 
L 529.991011 145.553155 
L 538.737934 145.874133 
L 547.484858 146.51609 
L 556.231782 144.012459 
L 564.978706 142.600155 
L 573.72563 135.988003 
L 582.472553 140.417503 
L 591.219477 137.143524 
L 599.966401 130.017807 
L 608.713325 136.437372 
L 617.460249 127.963546 
L 626.207172 128.541307 
L 634.954096 128.926481 
L 643.70102 123.277263 
L 652.447944 120.324263 
L 661.194867 119.553915 
L 669.941791 121.929155 
L 678.688715 120.709437 
L 687.435639 121.030415 
L 696.182563 121.351394 
L 704.929486 113.13435 
L 713.67641 122.506915 
L 722.423334 121.415589 
L 731.170258 123.341459 
L 739.917181 118.783568 
L 748.664105 125.716698 
L 757.411029 115.702176 
L 766.157953 121.736568 
L 774.904877 127.642568 
L 783.6518 126.743829 
L 792.398724 131.430111 
L 801.145648 136.244785 
L 809.892572 139.582959 
L 818.639496 145.553155 
L 827.386419 145.296372 
L 836.133343 151.202373 
L 844.880267 156.338025 
L 853.627191 159.291025 
L 862.374114 163.656329 
L 871.121038 172.001764 
L 879.867962 173.54246 
L 888.614886 174.762177 
L 897.36181 180.090417 
L 906.108733 184.198939 
L 914.855657 188.243265 
L 923.602581 190.23333 
L 932.349505 202.302113 
L 941.096428 206.860004 
L 949.843352 206.9242 
" clip-path="url(#pbcb10c2a92)" style="fill: none; stroke: #90ed7d; stroke-linecap: square"/>
   </g>
   <g id="line2d_11">
    <path d="M 83.897898 262.967005 
L 92.644822 262.967005 
L 101.391745 262.967005 
L 110.138669 262.967005 
L 118.885593 262.967005 
L 127.632517 262.967005 
L 136.37944 262.967005 
L 145.126364 262.967005 
L 153.873288 262.967005 
L 162.620212 262.967005 
L 171.367136 262.967005 
L 180.114059 262.967005 
L 188.860983 262.967005 
L 197.607907 262.967005 
L 206.354831 262.967005 
L 215.101754 262.967005 
L 223.848678 262.967005 
L 232.595602 262.967005 
L 241.342526 262.967005 
L 250.08945 262.967005 
L 258.836373 262.967005 
L 267.583297 262.967005 
L 276.330221 262.967005 
L 285.077145 262.967005 
L 293.824069 262.967005 
L 302.570992 262.967005 
L 311.317916 262.967005 
L 320.06484 262.967005 
L 328.811764 262.967005 
L 337.558687 262.967005 
L 346.305611 233.387067 
L 355.052535 209.602382 
L 363.799459 189.801934 
L 372.546383 168.552672 
L 381.293306 147.30341 
L 390.04023 128.348103 
L 398.787154 114.94658 
L 407.534078 82.469015 
L 416.281001 67.497944 
L 425.027925 65.686927 
L 433.774849 53.613483 
L 442.521773 49.025574 
L 451.268697 50.836591 
L 460.01562 58.080658 
L 468.762544 42.505915 
L 477.509468 44.5584 
L 486.256392 43.351056 
L 495.003316 51.440263 
L 503.750239 53.25128 
L 512.497163 62.789301 
L 521.244087 85.487376 
L 529.991011 79.209185 
L 538.737934 76.553027 
L 547.484858 84.159297 
L 556.231782 102.631667 
L 564.978706 95.991272 
L 573.72563 106.615903 
L 582.472553 118.20641 
L 591.219477 112.77336 
L 599.966401 129.555447 
L 608.713325 128.831041 
L 617.460249 138.972734 
L 626.207172 147.30341 
L 634.954096 140.059344 
L 643.70102 149.718099 
L 652.447944 151.287647 
L 661.194867 148.631489 
L 669.941791 169.880751 
L 678.688715 165.655045 
L 687.435639 176.158942 
L 696.182563 176.158942 
L 704.929486 174.830863 
L 713.67641 181.712726 
L 722.423334 187.507979 
L 731.170258 196.080125 
L 739.917181 189.43973 
L 748.664105 199.460689 
L 757.411029 194.87278 
L 766.157953 202.720519 
L 774.904877 204.65227 
L 783.6518 208.274303 
L 792.398724 199.460689 
L 801.145648 207.308428 
L 809.892572 208.515772 
L 818.639496 213.34515 
L 827.386419 215.156166 
L 836.133343 215.276901 
L 844.880267 219.019669 
L 853.627191 224.452718 
L 862.374114 223.003905 
L 871.121038 226.38447 
L 879.867962 225.660063 
L 888.614886 229.282096 
L 897.36181 228.316221 
L 906.108733 228.799158 
L 914.855657 232.300457 
L 923.602581 229.523565 
L 932.349505 231.213847 
L 941.096428 237.492038 
L 949.843352 237.371304 
" clip-path="url(#pbcb10c2a92)" style="fill: none; stroke: #f7a35c; stroke-linecap: square"/>
   </g>
   <g id="line2d_12">
    <path d="M 40.600625 262.967005 
L 993.140625 262.967005 
" clip-path="url(#pbcb10c2a92)" style="fill: none; stroke: #dedede; stroke-width: 2; stroke-linecap: square"/>
   </g>
   <g id="text_15">
    <!-- RSeQC: Inner Distance -->
    <g transform="translate(425.955625 19.3575) scale(0.16 -0.16)">
     <defs>
      <path id="DejaVuSans-52" d="M 2841 2188 
Q 3044 2119 3236 1894 
Q 3428 1669 3622 1275 
L 4263 0 
L 3584 0 
L 2988 1197 
Q 2756 1666 2539 1819 
Q 2322 1972 1947 1972 
L 1259 1972 
L 1259 0 
L 628 0 
L 628 4666 
L 2053 4666 
Q 2853 4666 3247 4331 
Q 3641 3997 3641 3322 
Q 3641 2881 3436 2590 
Q 3231 2300 2841 2188 
z
M 1259 4147 
L 1259 2491 
L 2053 2491 
Q 2509 2491 2742 2702 
Q 2975 2913 2975 3322 
Q 2975 3731 2742 3939 
Q 2509 4147 2053 4147 
L 1259 4147 
z
" transform="scale(0.015625)"/>
      <path id="DejaVuSans-53" d="M 3425 4513 
L 3425 3897 
Q 3066 4069 2747 4153 
Q 2428 4238 2131 4238 
Q 1616 4238 1336 4038 
Q 1056 3838 1056 3469 
Q 1056 3159 1242 3001 
Q 1428 2844 1947 2747 
L 2328 2669 
Q 3034 2534 3370 2195 
Q 3706 1856 3706 1288 
Q 3706 609 3251 259 
Q 2797 -91 1919 -91 
Q 1588 -91 1214 -16 
Q 841 59 441 206 
L 441 856 
Q 825 641 1194 531 
Q 1563 422 1919 422 
Q 2459 422 2753 634 
Q 3047 847 3047 1241 
Q 3047 1584 2836 1778 
Q 2625 1972 2144 2069 
L 1759 2144 
Q 1053 2284 737 2584 
Q 422 2884 422 3419 
Q 422 4038 858 4394 
Q 1294 4750 2059 4750 
Q 2388 4750 2728 4690 
Q 3069 4631 3425 4513 
z
" transform="scale(0.015625)"/>
      <path id="DejaVuSans-51" d="M 2522 4238 
Q 1834 4238 1429 3725 
Q 1025 3213 1025 2328 
Q 1025 1447 1429 934 
Q 1834 422 2522 422 
Q 3209 422 3611 934 
Q 4013 1447 4013 2328 
Q 4013 3213 3611 3725 
Q 3209 4238 2522 4238 
z
M 3406 84 
L 4238 -825 
L 3475 -825 
L 2784 -78 
Q 2681 -84 2626 -87 
Q 2572 -91 2522 -91 
Q 1538 -91 948 567 
Q 359 1225 359 2328 
Q 359 3434 948 4092 
Q 1538 4750 2522 4750 
Q 3503 4750 4090 4092 
Q 4678 3434 4678 2328 
Q 4678 1516 4351 937 
Q 4025 359 3406 84 
z
" transform="scale(0.015625)"/>
      <path id="DejaVuSans-43" d="M 4122 4306 
L 4122 3641 
Q 3803 3938 3442 4084 
Q 3081 4231 2675 4231 
Q 1875 4231 1450 3742 
Q 1025 3253 1025 2328 
Q 1025 1406 1450 917 
Q 1875 428 2675 428 
Q 3081 428 3442 575 
Q 3803 722 4122 1019 
L 4122 359 
Q 3791 134 3420 21 
Q 3050 -91 2638 -91 
Q 1578 -91 968 557 
Q 359 1206 359 2328 
Q 359 3453 968 4101 
Q 1578 4750 2638 4750 
Q 3056 4750 3426 4639 
Q 3797 4528 4122 4306 
z
" transform="scale(0.015625)"/>
      <path id="DejaVuSans-3a" d="M 750 794 
L 1409 794 
L 1409 0 
L 750 0 
L 750 794 
z
M 750 3309 
L 1409 3309 
L 1409 2516 
L 750 2516 
L 750 3309 
z
" transform="scale(0.015625)"/>
     </defs>
     <use xlink:href="#DejaVuSans-52"/>
     <use xlink:href="#DejaVuSans-53" x="69.482422"/>
     <use xlink:href="#DejaVuSans-65" x="132.958984"/>
     <use xlink:href="#DejaVuSans-51" x="194.482422"/>
     <use xlink:href="#DejaVuSans-43" x="273.193359"/>
     <use xlink:href="#DejaVuSans-3a" x="343.017578"/>
     <use xlink:href="#DejaVuSans-20" x="376.708984"/>
     <use xlink:href="#DejaVuSans-49" x="408.496094"/>
     <use xlink:href="#DejaVuSans-6e" x="437.988281"/>
     <use xlink:href="#DejaVuSans-6e" x="501.367188"/>
     <use xlink:href="#DejaVuSans-65" x="564.746094"/>
     <use xlink:href="#DejaVuSans-72" x="626.269531"/>
     <use xlink:href="#DejaVuSans-20" x="667.382812"/>
     <use xlink:href="#DejaVuSans-44" x="699.169922"/>
     <use xlink:href="#DejaVuSans-69" x="776.171875"/>
     <use xlink:href="#DejaVuSans-73" x="803.955078"/>
     <use xlink:href="#DejaVuSans-74" x="856.054688"/>
     <use xlink:href="#DejaVuSans-61" x="895.263672"/>
     <use xlink:href="#DejaVuSans-6e" x="956.542969"/>
     <use xlink:href="#DejaVuSans-63" x="1019.921875"/>
     <use xlink:href="#DejaVuSans-65" x="1074.902344"/>
    </g>
   </g>
   <g id="legend_1">
    <g id="line2d_13">
     <path d="M 47.800625 315.455394 
L 55.800625 315.455394 
L 63.800625 315.455394 
" style="fill: none; stroke: #7cb5ec; stroke-linecap: square"/>
    </g>
    <g id="text_16">
     <!-- CONTROL_REP1 -->
     <g transform="translate(70.200625 318.255394) scale(0.08 -0.08)">
      <defs>
       <path id="DejaVuSans-4f" d="M 2522 4238 
Q 1834 4238 1429 3725 
Q 1025 3213 1025 2328 
Q 1025 1447 1429 934 
Q 1834 422 2522 422 
Q 3209 422 3611 934 
Q 4013 1447 4013 2328 
Q 4013 3213 3611 3725 
Q 3209 4238 2522 4238 
z
M 2522 4750 
Q 3503 4750 4090 4092 
Q 4678 3434 4678 2328 
Q 4678 1225 4090 567 
Q 3503 -91 2522 -91 
Q 1538 -91 948 565 
Q 359 1222 359 2328 
Q 359 3434 948 4092 
Q 1538 4750 2522 4750 
z
" transform="scale(0.015625)"/>
       <path id="DejaVuSans-4e" d="M 628 4666 
L 1478 4666 
L 3547 763 
L 3547 4666 
L 4159 4666 
L 4159 0 
L 3309 0 
L 1241 3903 
L 1241 0 
L 628 0 
L 628 4666 
z
" transform="scale(0.015625)"/>
       <path id="DejaVuSans-54" d="M -19 4666 
L 3928 4666 
L 3928 4134 
L 2272 4134 
L 2272 0 
L 1638 0 
L 1638 4134 
L -19 4134 
L -19 4666 
z
" transform="scale(0.015625)"/>
       <path id="DejaVuSans-4c" d="M 628 4666 
L 1259 4666 
L 1259 531 
L 3531 531 
L 3531 0 
L 628 0 
L 628 4666 
z
" transform="scale(0.015625)"/>
       <path id="DejaVuSans-5f" d="M 3263 -1063 
L 3263 -1509 
L -63 -1509 
L -63 -1063 
L 3263 -1063 
z
" transform="scale(0.015625)"/>
       <path id="DejaVuSans-45" d="M 628 4666 
L 3578 4666 
L 3578 4134 
L 1259 4134 
L 1259 2753 
L 3481 2753 
L 3481 2222 
L 1259 2222 
L 1259 531 
L 3634 531 
L 3634 0 
L 628 0 
L 628 4666 
z
" transform="scale(0.015625)"/>
      </defs>
      <use xlink:href="#DejaVuSans-43"/>
      <use xlink:href="#DejaVuSans-4f" x="69.824219"/>
      <use xlink:href="#DejaVuSans-4e" x="148.535156"/>
      <use xlink:href="#DejaVuSans-54" x="223.339844"/>
      <use xlink:href="#DejaVuSans-52" x="284.423828"/>
      <use xlink:href="#DejaVuSans-4f" x="353.90625"/>
      <use xlink:href="#DejaVuSans-4c" x="432.617188"/>
      <use xlink:href="#DejaVuSans-5f" x="488.330078"/>
      <use xlink:href="#DejaVuSans-52" x="538.330078"/>
      <use xlink:href="#DejaVuSans-45" x="607.8125"/>
      <use xlink:href="#DejaVuSans-50" x="670.996094"/>
      <use xlink:href="#DejaVuSans-31" x="731.298828"/>
     </g>
    </g>
    <g id="line2d_14">
     <path d="M 331.848542 315.455394 
L 339.848542 315.455394 
L 347.848542 315.455394 
" style="fill: none; stroke: #434348; stroke-linecap: square"/>
    </g>
    <g id="text_17">
     <!-- CONTROL_REP2 -->
     <g transform="translate(354.248542 318.255394) scale(0.08 -0.08)">
      <use xlink:href="#DejaVuSans-43"/>
      <use xlink:href="#DejaVuSans-4f" x="69.824219"/>
      <use xlink:href="#DejaVuSans-4e" x="148.535156"/>
      <use xlink:href="#DejaVuSans-54" x="223.339844"/>
      <use xlink:href="#DejaVuSans-52" x="284.423828"/>
      <use xlink:href="#DejaVuSans-4f" x="353.90625"/>
      <use xlink:href="#DejaVuSans-4c" x="432.617188"/>
      <use xlink:href="#DejaVuSans-5f" x="488.330078"/>
      <use xlink:href="#DejaVuSans-52" x="538.330078"/>
      <use xlink:href="#DejaVuSans-45" x="607.8125"/>
      <use xlink:href="#DejaVuSans-50" x="670.996094"/>
      <use xlink:href="#DejaVuSans-32" x="731.298828"/>
     </g>
    </g>
    <g id="line2d_15">
     <path d="M 615.896458 315.455394 
L 623.896458 315.455394 
L 631.896458 315.455394 
" style="fill: none; stroke: #90ed7d; stroke-linecap: square"/>
    </g>
    <g id="text_18">
     <!-- CONTROL_REP3 -->
     <g transform="translate(638.296458 318.255394) scale(0.08 -0.08)">
      <use xlink:href="#DejaVuSans-43"/>
      <use xlink:href="#DejaVuSans-4f" x="69.824219"/>
      <use xlink:href="#DejaVuSans-4e" x="148.535156"/>
      <use xlink:href="#DejaVuSans-54" x="223.339844"/>
      <use xlink:href="#DejaVuSans-52" x="284.423828"/>
      <use xlink:href="#DejaVuSans-4f" x="353.90625"/>
      <use xlink:href="#DejaVuSans-4c" x="432.617188"/>
      <use xlink:href="#DejaVuSans-5f" x="488.330078"/>
      <use xlink:href="#DejaVuSans-52" x="538.330078"/>
      <use xlink:href="#DejaVuSans-45" x="607.8125"/>
      <use xlink:href="#DejaVuSans-50" x="670.996094"/>
      <use xlink:href="#DejaVuSans-33" x="731.298828"/>
     </g>
    </g>
    <g id="line2d_16">
     <path d="M 899.944375 315.455394 
L 907.944375 315.455394 
L 915.944375 315.455394 
" style="fill: none; stroke: #f7a35c; stroke-linecap: square"/>
    </g>
    <g id="text_19">
     <!-- CONTROL_REP4 -->
     <g transform="translate(922.344375 318.255394) scale(0.08 -0.08)">
      <defs>
       <path id="DejaVuSans-34" d="M 2419 4116 
L 825 1625 
L 2419 1625 
L 2419 4116 
z
M 2253 4666 
L 3047 4666 
L 3047 1625 
L 3713 1625 
L 3713 1100 
L 3047 1100 
L 3047 0 
L 2419 0 
L 2419 1100 
L 313 1100 
L 313 1709 
L 2253 4666 
z
" transform="scale(0.015625)"/>
      </defs>
      <use xlink:href="#DejaVuSans-43"/>
      <use xlink:href="#DejaVuSans-4f" x="69.824219"/>
      <use xlink:href="#DejaVuSans-4e" x="148.535156"/>
      <use xlink:href="#DejaVuSans-54" x="223.339844"/>
      <use xlink:href="#DejaVuSans-52" x="284.423828"/>
      <use xlink:href="#DejaVuSans-4f" x="353.90625"/>
      <use xlink:href="#DejaVuSans-4c" x="432.617188"/>
      <use xlink:href="#DejaVuSans-5f" x="488.330078"/>
      <use xlink:href="#DejaVuSans-52" x="538.330078"/>
      <use xlink:href="#DejaVuSans-45" x="607.8125"/>
      <use xlink:href="#DejaVuSans-50" x="670.996094"/>
      <use xlink:href="#DejaVuSans-34" x="731.298828"/>
     </g>
    </g>
   </g>
  </g>
 </g>
 <defs>
  <clipPath id="pbcb10c2a92">
   <rect x="40.600625" y="31.48286" width="952.54" height="242.5072"/>
  </clipPath>
 </defs>
</svg>
