<?xml version="1.0" encoding="utf-8" standalone="no"?>
<!DOCTYPE svg PUBLIC "-//W3C//DTD SVG 1.1//EN"
  "http://www.w3.org/Graphics/SVG/1.1/DTD/svg11.dtd">
<svg xmlns:xlink="http://www.w3.org/1999/xlink" width="1000.138125pt" height="330.541644pt" viewBox="0 0 1000.138125 330.541644" xmlns="http://www.w3.org/2000/svg" version="1.1">
 <metadata>
  <rdf:RDF xmlns:dc="http://purl.org/dc/elements/1.1/" xmlns:cc="http://creativecommons.org/ns#" xmlns:rdf="http://www.w3.org/1999/02/22-rdf-syntax-ns#">
   <cc:Work>
    <dc:type rdf:resource="http://purl.org/dc/dcmitype/StillImage"/>
    <dc:date>2024-06-12T15:58:13.417363</dc:date>
    <dc:format>image/svg+xml</dc:format>
    <dc:creator>
     <cc:Agent>
      <dc:title>Matplotlib v3.8.2, https://matplotlib.org/</dc:title>
     </cc:Agent>
    </dc:creator>
   </cc:Work>
  </rdf:RDF>
 </metadata>
 <defs>
  <style type="text/css">*{stroke-linejoin: round; stroke-linecap: butt}</style>
 </defs>
 <g id="figure_1">
  <g id="axes_1">
   <g id="patch_1">
    <path d="M 53.328125 273.99006 
L 985.303125 273.99006 
L 985.303125 31.48286 
L 53.328125 31.48286 
z
" style="fill: #ffffff"/>
   </g>
   <g id="matplotlib.axis_1">
    <g id="xtick_1">
     <g id="text_1">
      <!-- 0 -->
      <g transform="translate(50.783125 287.06881) scale(0.08 -0.08)">
       <defs>
        <path id="DejaVuSans-30" d="M 2034 4250 
Q 1547 4250 1301 3770 
Q 1056 3291 1056 2328 
Q 1056 1369 1301 889 
Q 1547 409 2034 409 
Q 2525 409 2770 889 
Q 3016 1369 3016 2328 
Q 3016 3291 2770 3770 
Q 2525 4250 2034 4250 
z
M 2034 4750 
Q 2819 4750 3233 4129 
Q 3647 3509 3647 2328 
Q 3647 1150 3233 529 
Q 2819 -91 2034 -91 
Q 1250 -91 836 529 
Q 422 1150 422 2328 
Q 422 3509 836 4129 
Q 1250 4750 2034 4750 
z
" transform="scale(0.015625)"/>
       </defs>
       <use xlink:href="#DejaVuSans-30"/>
      </g>
     </g>
    </g>
    <g id="xtick_2">
     <g id="text_2">
      <!-- 20 -->
      <g transform="translate(234.633125 287.06881) scale(0.08 -0.08)">
       <defs>
        <path id="DejaVuSans-32" d="M 1228 531 
L 3431 531 
L 3431 0 
L 469 0 
L 469 531 
Q 828 903 1448 1529 
Q 2069 2156 2228 2338 
Q 2531 2678 2651 2914 
Q 2772 3150 2772 3378 
Q 2772 3750 2511 3984 
Q 2250 4219 1831 4219 
Q 1534 4219 1204 4116 
Q 875 4013 500 3803 
L 500 4441 
Q 881 4594 1212 4672 
Q 1544 4750 1819 4750 
Q 2544 4750 2975 4387 
Q 3406 4025 3406 3419 
Q 3406 3131 3298 2873 
Q 3191 2616 2906 2266 
Q 2828 2175 2409 1742 
Q 1991 1309 1228 531 
z
" transform="scale(0.015625)"/>
       </defs>
       <use xlink:href="#DejaVuSans-32"/>
       <use xlink:href="#DejaVuSans-30" x="63.623047"/>
      </g>
     </g>
    </g>
    <g id="xtick_3">
     <g id="text_3">
      <!-- 40 -->
      <g transform="translate(421.028125 287.06881) scale(0.08 -0.08)">
       <defs>
        <path id="DejaVuSans-34" d="M 2419 4116 
L 825 1625 
L 2419 1625 
L 2419 4116 
z
M 2253 4666 
L 3047 4666 
L 3047 1625 
L 3713 1625 
L 3713 1100 
L 3047 1100 
L 3047 0 
L 2419 0 
L 2419 1100 
L 313 1100 
L 313 1709 
L 2253 4666 
z
" transform="scale(0.015625)"/>
       </defs>
       <use xlink:href="#DejaVuSans-34"/>
       <use xlink:href="#DejaVuSans-30" x="63.623047"/>
      </g>
     </g>
    </g>
    <g id="xtick_4">
     <g id="text_4">
      <!-- 60 -->
      <g transform="translate(607.423125 287.06881) scale(0.08 -0.08)">
       <defs>
        <path id="DejaVuSans-36" d="M 2113 2584 
Q 1688 2584 1439 2293 
Q 1191 2003 1191 1497 
Q 1191 994 1439 701 
Q 1688 409 2113 409 
Q 2538 409 2786 701 
Q 3034 994 3034 1497 
Q 3034 2003 2786 2293 
Q 2538 2584 2113 2584 
z
M 3366 4563 
L 3366 3988 
Q 3128 4100 2886 4159 
Q 2644 4219 2406 4219 
Q 1781 4219 1451 3797 
Q 1122 3375 1075 2522 
Q 1259 2794 1537 2939 
Q 1816 3084 2150 3084 
Q 2853 3084 3261 2657 
Q 3669 2231 3669 1497 
Q 3669 778 3244 343 
Q 2819 -91 2113 -91 
Q 1303 -91 875 529 
Q 447 1150 447 2328 
Q 447 3434 972 4092 
Q 1497 4750 2381 4750 
Q 2619 4750 2861 4703 
Q 3103 4656 3366 4563 
z
" transform="scale(0.015625)"/>
       </defs>
       <use xlink:href="#DejaVuSans-36"/>
       <use xlink:href="#DejaVuSans-30" x="63.623047"/>
      </g>
     </g>
    </g>
    <g id="xtick_5">
     <g id="text_5">
      <!-- 80 -->
      <g transform="translate(793.818125 287.06881) scale(0.08 -0.08)">
       <defs>
        <path id="DejaVuSans-38" d="M 2034 2216 
Q 1584 2216 1326 1975 
Q 1069 1734 1069 1313 
Q 1069 891 1326 650 
Q 1584 409 2034 409 
Q 2484 409 2743 651 
Q 3003 894 3003 1313 
Q 3003 1734 2745 1975 
Q 2488 2216 2034 2216 
z
M 1403 2484 
Q 997 2584 770 2862 
Q 544 3141 544 3541 
Q 544 4100 942 4425 
Q 1341 4750 2034 4750 
Q 2731 4750 3128 4425 
Q 3525 4100 3525 3541 
Q 3525 3141 3298 2862 
Q 3072 2584 2669 2484 
Q 3125 2378 3379 2068 
Q 3634 1759 3634 1313 
Q 3634 634 3220 271 
Q 2806 -91 2034 -91 
Q 1263 -91 848 271 
Q 434 634 434 1313 
Q 434 1759 690 2068 
Q 947 2378 1403 2484 
z
M 1172 3481 
Q 1172 3119 1398 2916 
Q 1625 2713 2034 2713 
Q 2441 2713 2670 2916 
Q 2900 3119 2900 3481 
Q 2900 3844 2670 4047 
Q 2441 4250 2034 4250 
Q 1625 4250 1398 4047 
Q 1172 3844 1172 3481 
z
" transform="scale(0.015625)"/>
       </defs>
       <use xlink:href="#DejaVuSans-38"/>
       <use xlink:href="#DejaVuSans-30" x="63.623047"/>
      </g>
     </g>
    </g>
    <g id="xtick_6">
     <g id="text_6">
      <!-- 100 -->
      <g transform="translate(977.668125 287.06881) scale(0.08 -0.08)">
       <defs>
        <path id="DejaVuSans-31" d="M 794 531 
L 1825 531 
L 1825 4091 
L 703 3866 
L 703 4441 
L 1819 4666 
L 2450 4666 
L 2450 531 
L 3481 531 
L 3481 0 
L 794 0 
L 794 531 
z
" transform="scale(0.015625)"/>
       </defs>
       <use xlink:href="#DejaVuSans-31"/>
       <use xlink:href="#DejaVuSans-30" x="63.623047"/>
       <use xlink:href="#DejaVuSans-30" x="127.246094"/>
      </g>
     </g>
    </g>
    <g id="text_7">
     <!-- % GC -->
     <g transform="translate(505.610156 300.330997) scale(0.1 -0.1)">
      <defs>
       <path id="DejaVuSans-25" d="M 4653 2053 
Q 4381 2053 4226 1822 
Q 4072 1591 4072 1178 
Q 4072 772 4226 539 
Q 4381 306 4653 306 
Q 4919 306 5073 539 
Q 5228 772 5228 1178 
Q 5228 1588 5073 1820 
Q 4919 2053 4653 2053 
z
M 4653 2450 
Q 5147 2450 5437 2106 
Q 5728 1763 5728 1178 
Q 5728 594 5436 251 
Q 5144 -91 4653 -91 
Q 4153 -91 3862 251 
Q 3572 594 3572 1178 
Q 3572 1766 3864 2108 
Q 4156 2450 4653 2450 
z
M 1428 4353 
Q 1159 4353 1004 4120 
Q 850 3888 850 3481 
Q 850 3069 1003 2837 
Q 1156 2606 1428 2606 
Q 1700 2606 1854 2837 
Q 2009 3069 2009 3481 
Q 2009 3884 1853 4118 
Q 1697 4353 1428 4353 
z
M 4250 4750 
L 4750 4750 
L 1831 -91 
L 1331 -91 
L 4250 4750 
z
M 1428 4750 
Q 1922 4750 2215 4408 
Q 2509 4066 2509 3481 
Q 2509 2891 2217 2550 
Q 1925 2209 1428 2209 
Q 931 2209 642 2551 
Q 353 2894 353 3481 
Q 353 4063 643 4406 
Q 934 4750 1428 4750 
z
" transform="scale(0.015625)"/>
       <path id="DejaVuSans-20" transform="scale(0.015625)"/>
       <path id="DejaVuSans-47" d="M 3809 666 
L 3809 1919 
L 2778 1919 
L 2778 2438 
L 4434 2438 
L 4434 434 
Q 4069 175 3628 42 
Q 3188 -91 2688 -91 
Q 1594 -91 976 548 
Q 359 1188 359 2328 
Q 359 3472 976 4111 
Q 1594 4750 2688 4750 
Q 3144 4750 3555 4637 
Q 3966 4525 4313 4306 
L 4313 3634 
Q 3963 3931 3569 4081 
Q 3175 4231 2741 4231 
Q 1884 4231 1454 3753 
Q 1025 3275 1025 2328 
Q 1025 1384 1454 906 
Q 1884 428 2741 428 
Q 3075 428 3337 486 
Q 3600 544 3809 666 
z
" transform="scale(0.015625)"/>
       <path id="DejaVuSans-43" d="M 4122 4306 
L 4122 3641 
Q 3803 3938 3442 4084 
Q 3081 4231 2675 4231 
Q 1875 4231 1450 3742 
Q 1025 3253 1025 2328 
Q 1025 1406 1450 917 
Q 1875 428 2675 428 
Q 3081 428 3442 575 
Q 3803 722 4122 1019 
L 4122 359 
Q 3791 134 3420 21 
Q 3050 -91 2638 -91 
Q 1578 -91 968 557 
Q 359 1206 359 2328 
Q 359 3453 968 4101 
Q 1578 4750 2638 4750 
Q 3056 4750 3426 4639 
Q 3797 4528 4122 4306 
z
" transform="scale(0.015625)"/>
      </defs>
      <use xlink:href="#DejaVuSans-25"/>
      <use xlink:href="#DejaVuSans-20" x="95.019531"/>
      <use xlink:href="#DejaVuSans-47" x="126.806641"/>
      <use xlink:href="#DejaVuSans-43" x="204.296875"/>
     </g>
    </g>
   </g>
   <g id="matplotlib.axis_2">
    <g id="ytick_1">
     <g id="line2d_1">
      <path d="M 53.328125 273.99006 
L 985.303125 273.99006 
" clip-path="url(#pf705954a30)" style="fill: none; stroke: #dedede; stroke-linecap: square"/>
     </g>
     <g id="text_8">
      <!-- 0 -->
      <g transform="translate(41.238125 277.029435) scale(0.08 -0.08)">
       <use xlink:href="#DejaVuSans-30"/>
      </g>
     </g>
    </g>
    <g id="ytick_2">
     <g id="line2d_2">
      <path d="M 53.328125 246.977915 
L 985.303125 246.977915 
" clip-path="url(#pf705954a30)" style="fill: none; stroke: #dedede; stroke-linecap: square"/>
     </g>
     <g id="text_9">
      <!-- 2500 -->
      <g transform="translate(25.968125 250.01729) scale(0.08 -0.08)">
       <defs>
        <path id="DejaVuSans-35" d="M 691 4666 
L 3169 4666 
L 3169 4134 
L 1269 4134 
L 1269 2991 
Q 1406 3038 1543 3061 
Q 1681 3084 1819 3084 
Q 2600 3084 3056 2656 
Q 3513 2228 3513 1497 
Q 3513 744 3044 326 
Q 2575 -91 1722 -91 
Q 1428 -91 1123 -41 
Q 819 9 494 109 
L 494 744 
Q 775 591 1075 516 
Q 1375 441 1709 441 
Q 2250 441 2565 725 
Q 2881 1009 2881 1497 
Q 2881 1984 2565 2268 
Q 2250 2553 1709 2553 
Q 1456 2553 1204 2497 
Q 953 2441 691 2322 
L 691 4666 
z
" transform="scale(0.015625)"/>
       </defs>
       <use xlink:href="#DejaVuSans-32"/>
       <use xlink:href="#DejaVuSans-35" x="63.623047"/>
       <use xlink:href="#DejaVuSans-30" x="127.246094"/>
       <use xlink:href="#DejaVuSans-30" x="190.869141"/>
      </g>
     </g>
    </g>
    <g id="ytick_3">
     <g id="line2d_3">
      <path d="M 53.328125 219.965771 
L 985.303125 219.965771 
" clip-path="url(#pf705954a30)" style="fill: none; stroke: #dedede; stroke-linecap: square"/>
     </g>
     <g id="text_10">
      <!-- 5000 -->
      <g transform="translate(25.968125 223.005146) scale(0.08 -0.08)">
       <use xlink:href="#DejaVuSans-35"/>
       <use xlink:href="#DejaVuSans-30" x="63.623047"/>
       <use xlink:href="#DejaVuSans-30" x="127.246094"/>
       <use xlink:href="#DejaVuSans-30" x="190.869141"/>
      </g>
     </g>
    </g>
    <g id="ytick_4">
     <g id="line2d_4">
      <path d="M 53.328125 192.953626 
L 985.303125 192.953626 
" clip-path="url(#pf705954a30)" style="fill: none; stroke: #dedede; stroke-linecap: square"/>
     </g>
     <g id="text_11">
      <!-- 7500 -->
      <g transform="translate(25.968125 195.993001) scale(0.08 -0.08)">
       <defs>
        <path id="DejaVuSans-37" d="M 525 4666 
L 3525 4666 
L 3525 4397 
L 1831 0 
L 1172 0 
L 2766 4134 
L 525 4134 
L 525 4666 
z
" transform="scale(0.015625)"/>
       </defs>
       <use xlink:href="#DejaVuSans-37"/>
       <use xlink:href="#DejaVuSans-35" x="63.623047"/>
       <use xlink:href="#DejaVuSans-30" x="127.246094"/>
       <use xlink:href="#DejaVuSans-30" x="190.869141"/>
      </g>
     </g>
    </g>
    <g id="ytick_5">
     <g id="line2d_5">
      <path d="M 53.328125 165.941482 
L 985.303125 165.941482 
" clip-path="url(#pf705954a30)" style="fill: none; stroke: #dedede; stroke-linecap: square"/>
     </g>
     <g id="text_12">
      <!-- 10000 -->
      <g transform="translate(20.878125 168.980857) scale(0.08 -0.08)">
       <use xlink:href="#DejaVuSans-31"/>
       <use xlink:href="#DejaVuSans-30" x="63.623047"/>
       <use xlink:href="#DejaVuSans-30" x="127.246094"/>
       <use xlink:href="#DejaVuSans-30" x="190.869141"/>
       <use xlink:href="#DejaVuSans-30" x="254.492188"/>
      </g>
     </g>
    </g>
    <g id="ytick_6">
     <g id="line2d_6">
      <path d="M 53.328125 138.929337 
L 985.303125 138.929337 
" clip-path="url(#pf705954a30)" style="fill: none; stroke: #dedede; stroke-linecap: square"/>
     </g>
     <g id="text_13">
      <!-- 12500 -->
      <g transform="translate(20.878125 141.968712) scale(0.08 -0.08)">
       <use xlink:href="#DejaVuSans-31"/>
       <use xlink:href="#DejaVuSans-32" x="63.623047"/>
       <use xlink:href="#DejaVuSans-35" x="127.246094"/>
       <use xlink:href="#DejaVuSans-30" x="190.869141"/>
       <use xlink:href="#DejaVuSans-30" x="254.492188"/>
      </g>
     </g>
    </g>
    <g id="ytick_7">
     <g id="line2d_7">
      <path d="M 53.328125 111.917193 
L 985.303125 111.917193 
" clip-path="url(#pf705954a30)" style="fill: none; stroke: #dedede; stroke-linecap: square"/>
     </g>
     <g id="text_14">
      <!-- 15000 -->
      <g transform="translate(20.878125 114.956568) scale(0.08 -0.08)">
       <use xlink:href="#DejaVuSans-31"/>
       <use xlink:href="#DejaVuSans-35" x="63.623047"/>
       <use xlink:href="#DejaVuSans-30" x="127.246094"/>
       <use xlink:href="#DejaVuSans-30" x="190.869141"/>
       <use xlink:href="#DejaVuSans-30" x="254.492188"/>
      </g>
     </g>
    </g>
    <g id="ytick_8">
     <g id="line2d_8">
      <path d="M 53.328125 84.905048 
L 985.303125 84.905048 
" clip-path="url(#pf705954a30)" style="fill: none; stroke: #dedede; stroke-linecap: square"/>
     </g>
     <g id="text_15">
      <!-- 17500 -->
      <g transform="translate(20.878125 87.944423) scale(0.08 -0.08)">
       <use xlink:href="#DejaVuSans-31"/>
       <use xlink:href="#DejaVuSans-37" x="63.623047"/>
       <use xlink:href="#DejaVuSans-35" x="127.246094"/>
       <use xlink:href="#DejaVuSans-30" x="190.869141"/>
       <use xlink:href="#DejaVuSans-30" x="254.492188"/>
      </g>
     </g>
    </g>
    <g id="ytick_9">
     <g id="line2d_9">
      <path d="M 53.328125 57.892904 
L 985.303125 57.892904 
" clip-path="url(#pf705954a30)" style="fill: none; stroke: #dedede; stroke-linecap: square"/>
     </g>
     <g id="text_16">
      <!-- 20000 -->
      <g transform="translate(20.878125 60.932279) scale(0.08 -0.08)">
       <use xlink:href="#DejaVuSans-32"/>
       <use xlink:href="#DejaVuSans-30" x="63.623047"/>
       <use xlink:href="#DejaVuSans-30" x="127.246094"/>
       <use xlink:href="#DejaVuSans-30" x="190.869141"/>
       <use xlink:href="#DejaVuSans-30" x="254.492188"/>
      </g>
     </g>
    </g>
    <g id="text_17">
     <!-- Count -->
     <g transform="translate(14.798437 167.584897) rotate(-90) scale(0.1 -0.1)">
      <defs>
       <path id="DejaVuSans-6f" d="M 1959 3097 
Q 1497 3097 1228 2736 
Q 959 2375 959 1747 
Q 959 1119 1226 758 
Q 1494 397 1959 397 
Q 2419 397 2687 759 
Q 2956 1122 2956 1747 
Q 2956 2369 2687 2733 
Q 2419 3097 1959 3097 
z
M 1959 3584 
Q 2709 3584 3137 3096 
Q 3566 2609 3566 1747 
Q 3566 888 3137 398 
Q 2709 -91 1959 -91 
Q 1206 -91 779 398 
Q 353 888 353 1747 
Q 353 2609 779 3096 
Q 1206 3584 1959 3584 
z
" transform="scale(0.015625)"/>
       <path id="DejaVuSans-75" d="M 544 1381 
L 544 3500 
L 1119 3500 
L 1119 1403 
Q 1119 906 1312 657 
Q 1506 409 1894 409 
Q 2359 409 2629 706 
Q 2900 1003 2900 1516 
L 2900 3500 
L 3475 3500 
L 3475 0 
L 2900 0 
L 2900 538 
Q 2691 219 2414 64 
Q 2138 -91 1772 -91 
Q 1169 -91 856 284 
Q 544 659 544 1381 
z
M 1991 3584 
L 1991 3584 
z
" transform="scale(0.015625)"/>
       <path id="DejaVuSans-6e" d="M 3513 2113 
L 3513 0 
L 2938 0 
L 2938 2094 
Q 2938 2591 2744 2837 
Q 2550 3084 2163 3084 
Q 1697 3084 1428 2787 
Q 1159 2491 1159 1978 
L 1159 0 
L 581 0 
L 581 3500 
L 1159 3500 
L 1159 2956 
Q 1366 3272 1645 3428 
Q 1925 3584 2291 3584 
Q 2894 3584 3203 3211 
Q 3513 2838 3513 2113 
z
" transform="scale(0.015625)"/>
       <path id="DejaVuSans-74" d="M 1172 4494 
L 1172 3500 
L 2356 3500 
L 2356 3053 
L 1172 3053 
L 1172 1153 
Q 1172 725 1289 603 
Q 1406 481 1766 481 
L 2356 481 
L 2356 0 
L 1766 0 
Q 1100 0 847 248 
Q 594 497 594 1153 
L 594 3053 
L 172 3053 
L 172 3500 
L 594 3500 
L 594 4494 
L 1172 4494 
z
" transform="scale(0.015625)"/>
      </defs>
      <use xlink:href="#DejaVuSans-43"/>
      <use xlink:href="#DejaVuSans-6f" x="69.824219"/>
      <use xlink:href="#DejaVuSans-75" x="131.005859"/>
      <use xlink:href="#DejaVuSans-6e" x="194.384766"/>
      <use xlink:href="#DejaVuSans-74" x="257.763672"/>
     </g>
    </g>
   </g>
   <g id="line2d_10">
    <path d="M 53.328125 273.99006 
L 62.647875 273.99006 
L 71.967625 273.99006 
L 81.287375 273.99006 
L 90.607125 273.99006 
L 99.926875 273.99006 
L 109.246625 273.99006 
L 118.566375 273.99006 
L 127.886125 273.99006 
L 137.205875 273.99006 
L 146.525625 273.99006 
L 155.845375 273.973853 
L 165.165125 273.941438 
L 174.484875 273.914426 
L 183.804625 273.838792 
L 193.124375 273.644305 
L 202.444125 273.357976 
L 211.763875 272.212661 
L 221.083625 271.207809 
L 230.403375 271.305053 
L 239.723125 271.758857 
L 249.042875 271.758857 
L 258.362625 271.580577 
L 267.682375 271.883113 
L 277.002125 271.92093 
L 286.321875 271.861503 
L 295.641625 271.585979 
L 304.961375 270.219165 
L 314.281125 269.133276 
L 323.600875 265.859404 
L 332.920625 265.691929 
L 342.240375 269.597885 
L 351.560125 270.311006 
L 360.879875 269.295349 
L 370.199625 268.430961 
L 379.519375 266.93989 
L 388.839125 263.725445 
L 398.158875 265.729746 
L 407.478625 266.064697 
L 416.798375 260.840548 
L 426.118125 240.505806 
L 435.437875 211.673043 
L 444.757625 200.171271 
L 454.077375 201.419233 
L 463.397125 221.840414 
L 472.716875 239.095772 
L 482.036625 244.028189 
L 491.356375 251.72665 
L 500.676125 256.275496 
L 509.995875 261.461827 
L 519.315625 261.872412 
L 528.635375 253.936244 
L 537.955125 230.489702 
L 547.274875 215.341292 
L 556.594625 186.459907 
L 565.914375 154.834088 
L 575.234125 139.221069 
L 584.553875 124.375194 
L 593.873625 121.879272 
L 603.193375 144.266937 
L 612.513125 168.286136 
L 621.832875 153.591529 
L 631.152625 136.719744 
L 640.472375 143.948194 
L 649.792125 168.702123 
L 659.111875 205.768188 
L 668.431625 242.62896 
L 677.751375 261.586083 
L 687.071125 268.398546 
L 696.390875 270.791822 
L 705.710625 272.288295 
L 715.030375 273.071647 
L 724.350125 273.228318 
L 733.669875 273.298549 
L 742.989625 273.374183 
L 752.309375 273.493037 
L 761.629125 273.730743 
L 770.948875 273.892816 
L 780.268625 273.946841 
L 789.588375 273.973853 
L 798.908125 273.984658 
L 808.227875 273.984658 
L 817.547625 273.984658 
L 826.867375 273.979255 
L 836.187125 273.973853 
L 845.506875 273.984658 
L 854.826625 273.99006 
L 864.146375 273.99006 
L 873.466125 273.99006 
L 882.785875 273.99006 
L 892.105625 273.99006 
L 901.425375 273.99006 
L 910.745125 273.99006 
L 920.064875 273.99006 
L 929.384625 273.99006 
L 938.704375 273.99006 
L 948.024125 273.99006 
L 957.343875 273.99006 
L 966.663625 273.99006 
L 975.983375 273.99006 
L 985.303125 273.99006 
" clip-path="url(#pf705954a30)" style="fill: none; stroke: #d9534f; stroke-linecap: square"/>
   </g>
   <g id="line2d_11">
    <path d="M 53.328125 273.99006 
L 62.647875 273.99006 
L 71.967625 273.99006 
L 81.287375 273.99006 
L 90.607125 273.99006 
L 99.926875 273.99006 
L 109.246625 273.99006 
L 118.566375 273.99006 
L 127.886125 273.99006 
L 137.205875 273.99006 
L 146.525625 273.99006 
L 155.845375 273.99006 
L 165.165125 273.984658 
L 174.484875 273.952243 
L 183.804625 273.865804 
L 193.124375 273.719939 
L 202.444125 273.61189 
L 211.763875 272.882562 
L 221.083625 272.0776 
L 230.403375 271.872308 
L 239.723125 270.835042 
L 249.042875 268.841545 
L 258.362625 268.738899 
L 267.682375 270.440664 
L 277.002125 271.126773 
L 286.321875 271.488735 
L 295.641625 271.634601 
L 304.961375 271.16459 
L 314.281125 269.246727 
L 323.600875 267.782669 
L 332.920625 269.533056 
L 342.240375 270.678371 
L 351.560125 269.732946 
L 360.879875 269.846397 
L 370.199625 268.614643 
L 379.519375 261.035035 
L 388.839125 261.04584 
L 398.158875 267.923132 
L 407.478625 267.415304 
L 416.798375 261.861607 
L 426.118125 260.062598 
L 435.437875 259.830294 
L 444.757625 255.357083 
L 454.077375 249.463033 
L 463.397125 250.548921 
L 472.716875 253.828195 
L 482.036625 253.471635 
L 491.356375 253.06105 
L 500.676125 255.638009 
L 509.995875 262.04529 
L 519.315625 263.676823 
L 528.635375 255.497546 
L 537.955125 211.51097 
L 547.274875 196.405779 
L 556.594625 192.424188 
L 565.914375 161.824831 
L 575.234125 139.820738 
L 584.553875 136.989865 
L 593.873625 115.039797 
L 603.193375 115.428772 
L 612.513125 153.040482 
L 621.832875 129.291404 
L 631.152625 73.559948 
L 640.472375 87.033605 
L 649.792125 150.636401 
L 659.111875 202.089134 
L 668.431625 245.508455 
L 677.751375 260.943194 
L 687.071125 266.999317 
L 696.390875 270.273189 
L 705.710625 271.483333 
L 715.030375 271.775064 
L 724.350125 272.174844 
L 733.669875 272.374734 
L 742.989625 272.63405 
L 752.309375 273.050037 
L 761.629125 273.347171 
L 770.948875 273.514646 
L 780.268625 273.714536 
L 789.588375 273.876609 
L 798.908125 273.930633 
L 808.227875 273.925231 
L 817.547625 273.930633 
L 826.867375 273.936036 
L 836.187125 273.919828 
L 845.506875 273.925231 
L 854.826625 273.96845 
L 864.146375 273.99006 
L 873.466125 273.99006 
L 882.785875 273.99006 
L 892.105625 273.99006 
L 901.425375 273.99006 
L 910.745125 273.99006 
L 920.064875 273.99006 
L 929.384625 273.99006 
L 938.704375 273.99006 
L 948.024125 273.99006 
L 957.343875 273.99006 
L 966.663625 273.99006 
L 975.983375 273.99006 
L 985.303125 273.99006 
" clip-path="url(#pf705954a30)" style="fill: none; stroke: #d9534f; stroke-linecap: square"/>
   </g>
   <g id="line2d_12">
    <path d="M 53.328125 273.99006 
L 62.647875 273.99006 
L 71.967625 273.99006 
L 81.287375 273.99006 
L 90.607125 273.99006 
L 99.926875 273.99006 
L 109.246625 273.99006 
L 118.566375 273.99006 
L 127.886125 273.99006 
L 137.205875 273.99006 
L 146.525625 273.99006 
L 155.845375 273.979255 
L 165.165125 273.963048 
L 174.484875 273.81178 
L 183.804625 273.320159 
L 193.124375 272.569221 
L 202.444125 270.910676 
L 211.763875 268.333717 
L 221.083625 263.325665 
L 230.403375 260.554219 
L 239.723125 263.741652 
L 249.042875 265.335369 
L 258.362625 265.594685 
L 267.682375 267.598987 
L 277.002125 267.685425 
L 286.321875 264.195456 
L 295.641625 260.230074 
L 304.961375 258.058297 
L 314.281125 258.75521 
L 323.600875 255.589387 
L 332.920625 256.994019 
L 342.240375 262.310009 
L 351.560125 261.42401 
L 360.879875 260.705487 
L 370.199625 257.139884 
L 379.519375 238.679785 
L 388.839125 231.969968 
L 398.158875 246.118929 
L 407.478625 246.761818 
L 416.798375 222.223986 
L 426.118125 216.254302 
L 435.437875 225.308773 
L 444.757625 193.034663 
L 454.077375 160.701126 
L 463.397125 186.157371 
L 472.716875 227.03755 
L 482.036625 234.233586 
L 491.356375 215.389914 
L 500.676125 208.123647 
L 509.995875 218.858273 
L 519.315625 220.160258 
L 528.635375 229.690143 
L 537.955125 219.987381 
L 547.274875 203.018351 
L 556.594625 180.419991 
L 565.914375 142.376087 
L 575.234125 110.588195 
L 584.553875 101.074518 
L 593.873625 118.481144 
L 603.193375 144.067047 
L 612.513125 162.138172 
L 621.832875 145.423057 
L 631.152625 130.852706 
L 640.472375 143.2945 
L 649.792125 164.450412 
L 659.111875 195.892548 
L 668.431625 231.26225 
L 677.751375 253.244733 
L 687.071125 265.135479 
L 696.390875 270.76481 
L 705.710625 272.504392 
L 715.030375 272.81233 
L 724.350125 272.963599 
L 733.669875 273.239122 
L 742.989625 273.530854 
L 752.309375 273.76856 
L 761.629125 273.903621 
L 770.948875 273.941438 
L 780.268625 273.946841 
L 789.588375 273.957645 
L 798.908125 273.973853 
L 808.227875 273.973853 
L 817.547625 273.963048 
L 826.867375 273.963048 
L 836.187125 273.96845 
L 845.506875 273.96845 
L 854.826625 273.973853 
L 864.146375 273.984658 
L 873.466125 273.99006 
L 882.785875 273.99006 
L 892.105625 273.99006 
L 901.425375 273.99006 
L 910.745125 273.99006 
L 920.064875 273.99006 
L 929.384625 273.99006 
L 938.704375 273.99006 
L 948.024125 273.99006 
L 957.343875 273.99006 
L 966.663625 273.99006 
L 975.983375 273.99006 
L 985.303125 273.99006 
" clip-path="url(#pf705954a30)" style="fill: none; stroke: #d9534f; stroke-linecap: square"/>
   </g>
   <g id="line2d_13">
    <path d="M 53.328125 273.99006 
L 62.647875 273.99006 
L 71.967625 273.99006 
L 81.287375 273.99006 
L 90.607125 273.99006 
L 99.926875 273.99006 
L 109.246625 273.99006 
L 118.566375 273.99006 
L 127.886125 273.99006 
L 137.205875 273.99006 
L 146.525625 273.99006 
L 155.845375 273.99006 
L 165.165125 273.984658 
L 174.484875 273.784768 
L 183.804625 273.217513 
L 193.124375 272.363929 
L 202.444125 271.456321 
L 211.763875 269.117069 
L 221.083625 266.491489 
L 230.403375 264.908577 
L 239.723125 259.592587 
L 249.042875 254.444072 
L 258.362625 258.495894 
L 267.682375 261.391596 
L 277.002125 256.140435 
L 286.321875 250.295007 
L 295.641625 254.660169 
L 304.961375 258.339223 
L 314.281125 253.763366 
L 323.600875 251.92654 
L 332.920625 256.788726 
L 342.240375 263.35808 
L 351.560125 262.866459 
L 360.879875 259.468331 
L 370.199625 250.305812 
L 379.519375 201.532684 
L 388.839125 191.019557 
L 398.158875 236.972617 
L 407.478625 247.307464 
L 416.798375 225.34659 
L 426.118125 222.672388 
L 435.437875 235.649022 
L 444.757625 214.304025 
L 454.077375 175.595622 
L 463.397125 176.384377 
L 472.716875 197.696959 
L 482.036625 203.68285 
L 491.356375 209.074474 
L 500.676125 220.084624 
L 509.995875 231.570188 
L 519.315625 235.087169 
L 528.635375 236.059607 
L 537.955125 219.733467 
L 547.274875 203.32629 
L 556.594625 180.014809 
L 565.914375 146.552165 
L 575.234125 137.319414 
L 584.553875 152.084252 
L 593.873625 155.023173 
L 603.193375 154.396491 
L 612.513125 161.835636 
L 621.832875 164.439607 
L 631.152625 156.816779 
L 640.472375 144.537059 
L 649.792125 156.811377 
L 659.111875 186.011505 
L 668.431625 221.672938 
L 677.751375 247.102171 
L 687.071125 259.15499 
L 696.390875 267.577377 
L 705.710625 270.581127 
L 715.030375 270.705383 
L 724.350125 271.305053 
L 733.669875 272.47738 
L 742.989625 273.249927 
L 752.309375 273.606488 
L 761.629125 273.795573 
L 770.948875 273.871207 
L 780.268625 273.925231 
L 789.588375 273.946841 
L 798.908125 273.973853 
L 808.227875 273.99006 
L 817.547625 273.99006 
L 826.867375 273.979255 
L 836.187125 273.952243 
L 845.506875 273.957645 
L 854.826625 273.984658 
L 864.146375 273.99006 
L 873.466125 273.99006 
L 882.785875 273.99006 
L 892.105625 273.99006 
L 901.425375 273.99006 
L 910.745125 273.99006 
L 920.064875 273.99006 
L 929.384625 273.99006 
L 938.704375 273.99006 
L 948.024125 273.99006 
L 957.343875 273.99006 
L 966.663625 273.99006 
L 975.983375 273.99006 
L 985.303125 273.99006 
" clip-path="url(#pf705954a30)" style="fill: none; stroke: #d9534f; stroke-linecap: square"/>
   </g>
   <g id="line2d_14">
    <path d="M 53.328125 273.99006 
L 62.647875 273.99006 
L 71.967625 273.99006 
L 81.287375 273.99006 
L 90.607125 273.99006 
L 99.926875 273.99006 
L 109.246625 273.99006 
L 118.566375 273.99006 
L 127.886125 273.99006 
L 137.205875 273.99006 
L 146.525625 273.99006 
L 155.845375 273.984658 
L 165.165125 273.96845 
L 174.484875 273.925231 
L 183.804625 273.860402 
L 193.124375 273.725341 
L 202.444125 273.185098 
L 211.763875 271.575174 
L 221.083625 269.949043 
L 230.403375 269.500642 
L 239.723125 270.478481 
L 249.042875 271.078151 
L 258.362625 270.516298 
L 267.682375 270.948493 
L 277.002125 271.656211 
L 286.321875 271.926332 
L 295.641625 271.704833 
L 304.961375 270.300201 
L 314.281125 269.05224 
L 323.600875 265.794575 
L 332.920625 265.951246 
L 342.240375 269.727544 
L 351.560125 270.413652 
L 360.879875 269.78697 
L 370.199625 268.128425 
L 379.519375 264.708687 
L 388.839125 262.412655 
L 398.158875 266.210562 
L 407.478625 266.502294 
L 416.798375 259.635806 
L 426.118125 241.359389 
L 435.437875 217.869629 
L 444.757625 205.19553 
L 454.077375 203.628826 
L 463.397125 224.060812 
L 472.716875 242.877472 
L 482.036625 247.377695 
L 491.356375 249.992471 
L 500.676125 252.936795 
L 509.995875 260.057196 
L 519.315625 260.570427 
L 528.635375 251.651016 
L 537.955125 223.185619 
L 547.274875 205.341396 
L 556.594625 173.164529 
L 565.914375 133.175751 
L 575.234125 114.58059 
L 584.553875 96.38521 
L 593.873625 93.67319 
L 603.193375 118.475742 
L 612.513125 146.492738 
L 621.832875 134.677626 
L 631.152625 108.589297 
L 640.472375 109.696795 
L 649.792125 143.067598 
L 659.111875 197.98869 
L 668.431625 243.098972 
L 677.751375 261.629303 
L 687.071125 269.824787 
L 696.390875 272.110015 
L 705.710625 272.979806 
L 715.030375 273.179696 
L 724.350125 273.276939 
L 733.669875 273.422805 
L 742.989625 273.557866 
L 752.309375 273.6335 
L 761.629125 273.81178 
L 770.948875 273.925231 
L 780.268625 273.963048 
L 789.588375 273.984658 
L 798.908125 273.979255 
L 808.227875 273.979255 
L 817.547625 273.979255 
L 826.867375 273.984658 
L 836.187125 273.99006 
L 845.506875 273.984658 
L 854.826625 273.979255 
L 864.146375 273.984658 
L 873.466125 273.99006 
L 882.785875 273.99006 
L 892.105625 273.99006 
L 901.425375 273.99006 
L 910.745125 273.99006 
L 920.064875 273.99006 
L 929.384625 273.99006 
L 938.704375 273.99006 
L 948.024125 273.99006 
L 957.343875 273.99006 
L 966.663625 273.99006 
L 975.983375 273.99006 
L 985.303125 273.99006 
" clip-path="url(#pf705954a30)" style="fill: none; stroke: #d9534f; stroke-linecap: square"/>
   </g>
   <g id="line2d_15">
    <path d="M 53.328125 273.99006 
L 62.647875 273.99006 
L 71.967625 273.99006 
L 81.287375 273.99006 
L 90.607125 273.99006 
L 99.926875 273.99006 
L 109.246625 273.99006 
L 118.566375 273.99006 
L 127.886125 273.99006 
L 137.205875 273.99006 
L 146.525625 273.99006 
L 155.845375 273.99006 
L 165.165125 273.99006 
L 174.484875 273.963048 
L 183.804625 273.844194 
L 193.124375 273.655109 
L 202.444125 273.368781 
L 211.763875 272.185649 
L 221.083625 271.14298 
L 230.403375 270.716188 
L 239.723125 269.403398 
L 249.042875 267.128975 
L 258.362625 267.123573 
L 267.682375 269.473629 
L 277.002125 270.435262 
L 286.321875 270.667566 
L 295.641625 271.305053 
L 304.961375 270.818834 
L 314.281125 268.155437 
L 323.600875 266.875061 
L 332.920625 269.214313 
L 342.240375 270.348823 
L 351.560125 269.592483 
L 360.879875 270.132726 
L 370.199625 267.480133 
L 379.519375 258.555321 
L 388.839125 259.317063 
L 398.158875 266.98311 
L 407.478625 266.432062 
L 416.798375 258.485089 
L 426.118125 256.659068 
L 435.437875 257.880017 
L 444.757625 252.915185 
L 454.077375 245.222126 
L 463.397125 246.340429 
L 472.716875 253.185306 
L 482.036625 252.591039 
L 491.356375 249.63591 
L 500.676125 252.655868 
L 509.995875 260.602841 
L 519.315625 262.617947 
L 528.635375 253.174501 
L 537.955125 204.487812 
L 547.274875 188.129257 
L 556.594625 179.766297 
L 565.914375 140.496042 
L 575.234125 115.250491 
L 584.553875 117.346634 
L 593.873625 100.685543 
L 603.193375 99.459192 
L 612.513125 134.35348 
L 621.832875 106.174411 
L 631.152625 43.030822 
L 640.472375 58.676256 
L 649.792125 135.298905 
L 659.111875 198.685604 
L 668.431625 247.285854 
L 677.751375 262.520703 
L 687.071125 268.441766 
L 696.390875 271.169992 
L 705.710625 272.488185 
L 715.030375 272.612441 
L 724.350125 272.704282 
L 733.669875 272.979806 
L 742.989625 273.131074 
L 752.309375 273.341769 
L 761.629125 273.665914 
L 770.948875 273.806377 
L 780.268625 273.844194 
L 789.588375 273.914426 
L 798.908125 273.952243 
L 808.227875 273.941438 
L 817.547625 273.946841 
L 826.867375 273.963048 
L 836.187125 273.979255 
L 845.506875 273.99006 
L 854.826625 273.99006 
L 864.146375 273.99006 
L 873.466125 273.99006 
L 882.785875 273.99006 
L 892.105625 273.99006 
L 901.425375 273.99006 
L 910.745125 273.99006 
L 920.064875 273.99006 
L 929.384625 273.99006 
L 938.704375 273.99006 
L 948.024125 273.99006 
L 957.343875 273.99006 
L 966.663625 273.99006 
L 975.983375 273.99006 
L 985.303125 273.99006 
" clip-path="url(#pf705954a30)" style="fill: none; stroke: #d9534f; stroke-linecap: square"/>
   </g>
   <g id="line2d_16">
    <path d="M 53.328125 273.99006 
L 62.647875 273.99006 
L 71.967625 273.99006 
L 81.287375 273.99006 
L 90.607125 273.99006 
L 99.926875 273.99006 
L 109.246625 273.99006 
L 118.566375 273.99006 
L 127.886125 273.99006 
L 137.205875 273.99006 
L 146.525625 273.99006 
L 155.845375 273.984658 
L 165.165125 273.973853 
L 174.484875 273.898219 
L 183.804625 273.579475 
L 193.124375 273.044635 
L 202.444125 272.12082 
L 211.763875 270.840444 
L 221.083625 268.47418 
L 230.403375 266.880464 
L 239.723125 268.312107 
L 249.042875 269.560068 
L 258.362625 269.857202 
L 267.682375 270.294799 
L 277.002125 269.160289 
L 286.321875 266.653562 
L 295.641625 265.065247 
L 304.961375 263.919933 
L 314.281125 264.416956 
L 323.600875 262.628752 
L 332.920625 263.141983 
L 342.240375 266.685976 
L 351.560125 266.070099 
L 360.879875 265.043638 
L 370.199625 261.213316 
L 379.519375 243.736458 
L 388.839125 240.170855 
L 398.158875 254.833047 
L 407.478625 255.632607 
L 416.798375 237.977469 
L 426.118125 233.666331 
L 435.437875 239.868319 
L 444.757625 220.095429 
L 454.077375 205.006445 
L 463.397125 218.155957 
L 472.716875 240.938 
L 482.036625 248.955204 
L 491.356375 237.226531 
L 500.676125 233.007234 
L 509.995875 240.046599 
L 519.315625 241.580889 
L 528.635375 246.248588 
L 537.955125 236.610654 
L 547.274875 223.336887 
L 556.594625 205.546688 
L 565.914375 179.72848 
L 575.234125 157.162535 
L 584.553875 151.689874 
L 593.873625 169.939279 
L 603.193375 183.261669 
L 612.513125 191.948775 
L 621.832875 184.082838 
L 631.152625 171.084594 
L 640.472375 179.636639 
L 649.792125 197.140509 
L 659.111875 220.716709 
L 668.431625 247.799085 
L 677.751375 262.671971 
L 687.071125 269.25213 
L 696.390875 272.239673 
L 705.710625 273.217513 
L 715.030375 273.314756 
L 724.350125 273.422805 
L 733.669875 273.638902 
L 742.989625 273.784768 
L 752.309375 273.882011 
L 761.629125 273.930633 
L 770.948875 273.946841 
L 780.268625 273.963048 
L 789.588375 273.979255 
L 798.908125 273.99006 
L 808.227875 273.979255 
L 817.547625 273.979255 
L 826.867375 273.99006 
L 836.187125 273.99006 
L 845.506875 273.99006 
L 854.826625 273.984658 
L 864.146375 273.979255 
L 873.466125 273.984658 
L 882.785875 273.99006 
L 892.105625 273.99006 
L 901.425375 273.99006 
L 910.745125 273.99006 
L 920.064875 273.99006 
L 929.384625 273.99006 
L 938.704375 273.99006 
L 948.024125 273.99006 
L 957.343875 273.99006 
L 966.663625 273.99006 
L 975.983375 273.99006 
L 985.303125 273.99006 
" clip-path="url(#pf705954a30)" style="fill: none; stroke: #d9534f; stroke-linecap: square"/>
   </g>
   <g id="line2d_17">
    <path d="M 53.328125 273.99006 
L 62.647875 273.99006 
L 71.967625 273.99006 
L 81.287375 273.99006 
L 90.607125 273.99006 
L 99.926875 273.99006 
L 109.246625 273.99006 
L 118.566375 273.99006 
L 127.886125 273.99006 
L 137.205875 273.99006 
L 146.525625 273.99006 
L 155.845375 273.99006 
L 165.165125 273.979255 
L 174.484875 273.865804 
L 183.804625 273.39039 
L 193.124375 272.590831 
L 202.444125 271.829088 
L 211.763875 270.640554 
L 221.083625 268.814533 
L 230.403375 266.902073 
L 239.723125 265.232723 
L 249.042875 263.919933 
L 258.362625 265.086857 
L 267.682375 265.44882 
L 277.002125 261.499644 
L 286.321875 257.993468 
L 295.641625 261.348376 
L 304.961375 263.763262 
L 314.281125 261.035035 
L 323.600875 259.252234 
L 332.920625 262.882666 
L 342.240375 267.625999 
L 351.560125 266.918281 
L 360.879875 264.984211 
L 370.199625 258.706589 
L 379.519375 229.322778 
L 388.839125 225.957065 
L 398.158875 253.309562 
L 407.478625 258.052895 
L 416.798375 240.16005 
L 426.118125 237.096873 
L 435.437875 247.669426 
L 444.757625 232.326528 
L 454.077375 206.313833 
L 463.397125 205.627725 
L 472.716875 221.975475 
L 482.036625 227.901939 
L 491.356375 230.846263 
L 500.676125 237.183312 
L 509.995875 243.855312 
L 519.315625 245.454431 
L 528.635375 247.615402 
L 537.955125 237.523665 
L 547.274875 224.784738 
L 556.594625 208.393768 
L 565.914375 184.995849 
L 575.234125 179.39353 
L 584.553875 190.841277 
L 593.873625 194.849879 
L 603.193375 193.736979 
L 612.513125 195.211842 
L 621.832875 195.309085 
L 631.152625 187.950977 
L 640.472375 178.021313 
L 649.792125 187.486368 
L 659.111875 211.548787 
L 668.431625 239.879124 
L 677.751375 258.177151 
L 687.071125 265.681124 
L 696.390875 270.289396 
L 705.710625 271.937137 
L 715.030375 271.661613 
L 724.350125 272.012771 
L 733.669875 272.958196 
L 742.989625 273.595683 
L 752.309375 273.784768 
L 761.629125 273.876609 
L 770.948875 273.936036 
L 780.268625 273.96845 
L 789.588375 273.984658 
L 798.908125 273.99006 
L 808.227875 273.99006 
L 817.547625 273.984658 
L 826.867375 273.973853 
L 836.187125 273.973853 
L 845.506875 273.984658 
L 854.826625 273.99006 
L 864.146375 273.99006 
L 873.466125 273.99006 
L 882.785875 273.99006 
L 892.105625 273.99006 
L 901.425375 273.99006 
L 910.745125 273.99006 
L 920.064875 273.99006 
L 929.384625 273.99006 
L 938.704375 273.99006 
L 948.024125 273.99006 
L 957.343875 273.99006 
L 966.663625 273.99006 
L 975.983375 273.99006 
L 985.303125 273.99006 
" clip-path="url(#pf705954a30)" style="fill: none; stroke: #d9534f; stroke-linecap: square"/>
   </g>
   <g id="line2d_18">
    <path d="M 53.328125 273.99006 
L 985.303125 273.99006 
" clip-path="url(#pf705954a30)" style="fill: none; stroke: #dedede; stroke-width: 2; stroke-linecap: square"/>
   </g>
   <g id="text_18">
    <!-- FastQC: Per Sequence GC Content -->
    <g transform="translate(382.679375 19.3575) scale(0.16 -0.16)">
     <defs>
      <path id="DejaVuSans-46" d="M 628 4666 
L 3309 4666 
L 3309 4134 
L 1259 4134 
L 1259 2759 
L 3109 2759 
L 3109 2228 
L 1259 2228 
L 1259 0 
L 628 0 
L 628 4666 
z
" transform="scale(0.015625)"/>
      <path id="DejaVuSans-61" d="M 2194 1759 
Q 1497 1759 1228 1600 
Q 959 1441 959 1056 
Q 959 750 1161 570 
Q 1363 391 1709 391 
Q 2188 391 2477 730 
Q 2766 1069 2766 1631 
L 2766 1759 
L 2194 1759 
z
M 3341 1997 
L 3341 0 
L 2766 0 
L 2766 531 
Q 2569 213 2275 61 
Q 1981 -91 1556 -91 
Q 1019 -91 701 211 
Q 384 513 384 1019 
Q 384 1609 779 1909 
Q 1175 2209 1959 2209 
L 2766 2209 
L 2766 2266 
Q 2766 2663 2505 2880 
Q 2244 3097 1772 3097 
Q 1472 3097 1187 3025 
Q 903 2953 641 2809 
L 641 3341 
Q 956 3463 1253 3523 
Q 1550 3584 1831 3584 
Q 2591 3584 2966 3190 
Q 3341 2797 3341 1997 
z
" transform="scale(0.015625)"/>
      <path id="DejaVuSans-73" d="M 2834 3397 
L 2834 2853 
Q 2591 2978 2328 3040 
Q 2066 3103 1784 3103 
Q 1356 3103 1142 2972 
Q 928 2841 928 2578 
Q 928 2378 1081 2264 
Q 1234 2150 1697 2047 
L 1894 2003 
Q 2506 1872 2764 1633 
Q 3022 1394 3022 966 
Q 3022 478 2636 193 
Q 2250 -91 1575 -91 
Q 1294 -91 989 -36 
Q 684 19 347 128 
L 347 722 
Q 666 556 975 473 
Q 1284 391 1588 391 
Q 1994 391 2212 530 
Q 2431 669 2431 922 
Q 2431 1156 2273 1281 
Q 2116 1406 1581 1522 
L 1381 1569 
Q 847 1681 609 1914 
Q 372 2147 372 2553 
Q 372 3047 722 3315 
Q 1072 3584 1716 3584 
Q 2034 3584 2315 3537 
Q 2597 3491 2834 3397 
z
" transform="scale(0.015625)"/>
      <path id="DejaVuSans-51" d="M 2522 4238 
Q 1834 4238 1429 3725 
Q 1025 3213 1025 2328 
Q 1025 1447 1429 934 
Q 1834 422 2522 422 
Q 3209 422 3611 934 
Q 4013 1447 4013 2328 
Q 4013 3213 3611 3725 
Q 3209 4238 2522 4238 
z
M 3406 84 
L 4238 -825 
L 3475 -825 
L 2784 -78 
Q 2681 -84 2626 -87 
Q 2572 -91 2522 -91 
Q 1538 -91 948 567 
Q 359 1225 359 2328 
Q 359 3434 948 4092 
Q 1538 4750 2522 4750 
Q 3503 4750 4090 4092 
Q 4678 3434 4678 2328 
Q 4678 1516 4351 937 
Q 4025 359 3406 84 
z
" transform="scale(0.015625)"/>
      <path id="DejaVuSans-3a" d="M 750 794 
L 1409 794 
L 1409 0 
L 750 0 
L 750 794 
z
M 750 3309 
L 1409 3309 
L 1409 2516 
L 750 2516 
L 750 3309 
z
" transform="scale(0.015625)"/>
      <path id="DejaVuSans-50" d="M 1259 4147 
L 1259 2394 
L 2053 2394 
Q 2494 2394 2734 2622 
Q 2975 2850 2975 3272 
Q 2975 3691 2734 3919 
Q 2494 4147 2053 4147 
L 1259 4147 
z
M 628 4666 
L 2053 4666 
Q 2838 4666 3239 4311 
Q 3641 3956 3641 3272 
Q 3641 2581 3239 2228 
Q 2838 1875 2053 1875 
L 1259 1875 
L 1259 0 
L 628 0 
L 628 4666 
z
" transform="scale(0.015625)"/>
      <path id="DejaVuSans-65" d="M 3597 1894 
L 3597 1613 
L 953 1613 
Q 991 1019 1311 708 
Q 1631 397 2203 397 
Q 2534 397 2845 478 
Q 3156 559 3463 722 
L 3463 178 
Q 3153 47 2828 -22 
Q 2503 -91 2169 -91 
Q 1331 -91 842 396 
Q 353 884 353 1716 
Q 353 2575 817 3079 
Q 1281 3584 2069 3584 
Q 2775 3584 3186 3129 
Q 3597 2675 3597 1894 
z
M 3022 2063 
Q 3016 2534 2758 2815 
Q 2500 3097 2075 3097 
Q 1594 3097 1305 2825 
Q 1016 2553 972 2059 
L 3022 2063 
z
" transform="scale(0.015625)"/>
      <path id="DejaVuSans-72" d="M 2631 2963 
Q 2534 3019 2420 3045 
Q 2306 3072 2169 3072 
Q 1681 3072 1420 2755 
Q 1159 2438 1159 1844 
L 1159 0 
L 581 0 
L 581 3500 
L 1159 3500 
L 1159 2956 
Q 1341 3275 1631 3429 
Q 1922 3584 2338 3584 
Q 2397 3584 2469 3576 
Q 2541 3569 2628 3553 
L 2631 2963 
z
" transform="scale(0.015625)"/>
      <path id="DejaVuSans-53" d="M 3425 4513 
L 3425 3897 
Q 3066 4069 2747 4153 
Q 2428 4238 2131 4238 
Q 1616 4238 1336 4038 
Q 1056 3838 1056 3469 
Q 1056 3159 1242 3001 
Q 1428 2844 1947 2747 
L 2328 2669 
Q 3034 2534 3370 2195 
Q 3706 1856 3706 1288 
Q 3706 609 3251 259 
Q 2797 -91 1919 -91 
Q 1588 -91 1214 -16 
Q 841 59 441 206 
L 441 856 
Q 825 641 1194 531 
Q 1563 422 1919 422 
Q 2459 422 2753 634 
Q 3047 847 3047 1241 
Q 3047 1584 2836 1778 
Q 2625 1972 2144 2069 
L 1759 2144 
Q 1053 2284 737 2584 
Q 422 2884 422 3419 
Q 422 4038 858 4394 
Q 1294 4750 2059 4750 
Q 2388 4750 2728 4690 
Q 3069 4631 3425 4513 
z
" transform="scale(0.015625)"/>
      <path id="DejaVuSans-71" d="M 947 1747 
Q 947 1113 1208 752 
Q 1469 391 1925 391 
Q 2381 391 2643 752 
Q 2906 1113 2906 1747 
Q 2906 2381 2643 2742 
Q 2381 3103 1925 3103 
Q 1469 3103 1208 2742 
Q 947 2381 947 1747 
z
M 2906 525 
Q 2725 213 2448 61 
Q 2172 -91 1784 -91 
Q 1150 -91 751 415 
Q 353 922 353 1747 
Q 353 2572 751 3078 
Q 1150 3584 1784 3584 
Q 2172 3584 2448 3432 
Q 2725 3281 2906 2969 
L 2906 3500 
L 3481 3500 
L 3481 -1331 
L 2906 -1331 
L 2906 525 
z
" transform="scale(0.015625)"/>
      <path id="DejaVuSans-63" d="M 3122 3366 
L 3122 2828 
Q 2878 2963 2633 3030 
Q 2388 3097 2138 3097 
Q 1578 3097 1268 2742 
Q 959 2388 959 1747 
Q 959 1106 1268 751 
Q 1578 397 2138 397 
Q 2388 397 2633 464 
Q 2878 531 3122 666 
L 3122 134 
Q 2881 22 2623 -34 
Q 2366 -91 2075 -91 
Q 1284 -91 818 406 
Q 353 903 353 1747 
Q 353 2603 823 3093 
Q 1294 3584 2113 3584 
Q 2378 3584 2631 3529 
Q 2884 3475 3122 3366 
z
" transform="scale(0.015625)"/>
     </defs>
     <use xlink:href="#DejaVuSans-46"/>
     <use xlink:href="#DejaVuSans-61" x="48.394531"/>
     <use xlink:href="#DejaVuSans-73" x="109.673828"/>
     <use xlink:href="#DejaVuSans-74" x="161.773438"/>
     <use xlink:href="#DejaVuSans-51" x="200.982422"/>
     <use xlink:href="#DejaVuSans-43" x="279.693359"/>
     <use xlink:href="#DejaVuSans-3a" x="349.517578"/>
     <use xlink:href="#DejaVuSans-20" x="383.208984"/>
     <use xlink:href="#DejaVuSans-50" x="414.996094"/>
     <use xlink:href="#DejaVuSans-65" x="471.673828"/>
     <use xlink:href="#DejaVuSans-72" x="533.197266"/>
     <use xlink:href="#DejaVuSans-20" x="574.310547"/>
     <use xlink:href="#DejaVuSans-53" x="606.097656"/>
     <use xlink:href="#DejaVuSans-65" x="669.574219"/>
     <use xlink:href="#DejaVuSans-71" x="731.097656"/>
     <use xlink:href="#DejaVuSans-75" x="794.574219"/>
     <use xlink:href="#DejaVuSans-65" x="857.953125"/>
     <use xlink:href="#DejaVuSans-6e" x="919.476562"/>
     <use xlink:href="#DejaVuSans-63" x="982.855469"/>
     <use xlink:href="#DejaVuSans-65" x="1037.835938"/>
     <use xlink:href="#DejaVuSans-20" x="1099.359375"/>
     <use xlink:href="#DejaVuSans-47" x="1131.146484"/>
     <use xlink:href="#DejaVuSans-43" x="1208.636719"/>
     <use xlink:href="#DejaVuSans-20" x="1278.460938"/>
     <use xlink:href="#DejaVuSans-43" x="1310.248047"/>
     <use xlink:href="#DejaVuSans-6f" x="1380.072266"/>
     <use xlink:href="#DejaVuSans-6e" x="1441.253906"/>
     <use xlink:href="#DejaVuSans-74" x="1504.632812"/>
     <use xlink:href="#DejaVuSans-65" x="1543.841797"/>
     <use xlink:href="#DejaVuSans-6e" x="1605.365234"/>
     <use xlink:href="#DejaVuSans-74" x="1668.744141"/>
    </g>
   </g>
   <g id="legend_1">
    <g id="line2d_19">
     <path d="M 60.528125 303.490394 
L 68.528125 303.490394 
L 76.528125 303.490394 
" style="fill: none; stroke: #d9534f; stroke-linecap: square"/>
    </g>
    <g id="text_19">
     <!-- CONTROL_REP1_1 -->
     <g transform="translate(82.928125 306.290394) scale(0.08 -0.08)">
      <defs>
       <path id="DejaVuSans-4f" d="M 2522 4238 
Q 1834 4238 1429 3725 
Q 1025 3213 1025 2328 
Q 1025 1447 1429 934 
Q 1834 422 2522 422 
Q 3209 422 3611 934 
Q 4013 1447 4013 2328 
Q 4013 3213 3611 3725 
Q 3209 4238 2522 4238 
z
M 2522 4750 
Q 3503 4750 4090 4092 
Q 4678 3434 4678 2328 
Q 4678 1225 4090 567 
Q 3503 -91 2522 -91 
Q 1538 -91 948 565 
Q 359 1222 359 2328 
Q 359 3434 948 4092 
Q 1538 4750 2522 4750 
z
" transform="scale(0.015625)"/>
       <path id="DejaVuSans-4e" d="M 628 4666 
L 1478 4666 
L 3547 763 
L 3547 4666 
L 4159 4666 
L 4159 0 
L 3309 0 
L 1241 3903 
L 1241 0 
L 628 0 
L 628 4666 
z
" transform="scale(0.015625)"/>
       <path id="DejaVuSans-54" d="M -19 4666 
L 3928 4666 
L 3928 4134 
L 2272 4134 
L 2272 0 
L 1638 0 
L 1638 4134 
L -19 4134 
L -19 4666 
z
" transform="scale(0.015625)"/>
       <path id="DejaVuSans-52" d="M 2841 2188 
Q 3044 2119 3236 1894 
Q 3428 1669 3622 1275 
L 4263 0 
L 3584 0 
L 2988 1197 
Q 2756 1666 2539 1819 
Q 2322 1972 1947 1972 
L 1259 1972 
L 1259 0 
L 628 0 
L 628 4666 
L 2053 4666 
Q 2853 4666 3247 4331 
Q 3641 3997 3641 3322 
Q 3641 2881 3436 2590 
Q 3231 2300 2841 2188 
z
M 1259 4147 
L 1259 2491 
L 2053 2491 
Q 2509 2491 2742 2702 
Q 2975 2913 2975 3322 
Q 2975 3731 2742 3939 
Q 2509 4147 2053 4147 
L 1259 4147 
z
" transform="scale(0.015625)"/>
       <path id="DejaVuSans-4c" d="M 628 4666 
L 1259 4666 
L 1259 531 
L 3531 531 
L 3531 0 
L 628 0 
L 628 4666 
z
" transform="scale(0.015625)"/>
       <path id="DejaVuSans-5f" d="M 3263 -1063 
L 3263 -1509 
L -63 -1509 
L -63 -1063 
L 3263 -1063 
z
" transform="scale(0.015625)"/>
       <path id="DejaVuSans-45" d="M 628 4666 
L 3578 4666 
L 3578 4134 
L 1259 4134 
L 1259 2753 
L 3481 2753 
L 3481 2222 
L 1259 2222 
L 1259 531 
L 3634 531 
L 3634 0 
L 628 0 
L 628 4666 
z
" transform="scale(0.015625)"/>
      </defs>
      <use xlink:href="#DejaVuSans-43"/>
      <use xlink:href="#DejaVuSans-4f" x="69.824219"/>
      <use xlink:href="#DejaVuSans-4e" x="148.535156"/>
      <use xlink:href="#DejaVuSans-54" x="223.339844"/>
      <use xlink:href="#DejaVuSans-52" x="284.423828"/>
      <use xlink:href="#DejaVuSans-4f" x="353.90625"/>
      <use xlink:href="#DejaVuSans-4c" x="432.617188"/>
      <use xlink:href="#DejaVuSans-5f" x="488.330078"/>
      <use xlink:href="#DejaVuSans-52" x="538.330078"/>
      <use xlink:href="#DejaVuSans-45" x="607.8125"/>
      <use xlink:href="#DejaVuSans-50" x="670.996094"/>
      <use xlink:href="#DejaVuSans-31" x="731.298828"/>
      <use xlink:href="#DejaVuSans-5f" x="794.921875"/>
      <use xlink:href="#DejaVuSans-31" x="844.921875"/>
     </g>
    </g>
    <g id="line2d_20">
     <path d="M 60.528125 315.455394 
L 68.528125 315.455394 
L 76.528125 315.455394 
" style="fill: none; stroke: #d9534f; stroke-linecap: square"/>
    </g>
    <g id="text_20">
     <!-- CONTROL_REP1_2 -->
     <g transform="translate(82.928125 318.255394) scale(0.08 -0.08)">
      <use xlink:href="#DejaVuSans-43"/>
      <use xlink:href="#DejaVuSans-4f" x="69.824219"/>
      <use xlink:href="#DejaVuSans-4e" x="148.535156"/>
      <use xlink:href="#DejaVuSans-54" x="223.339844"/>
      <use xlink:href="#DejaVuSans-52" x="284.423828"/>
      <use xlink:href="#DejaVuSans-4f" x="353.90625"/>
      <use xlink:href="#DejaVuSans-4c" x="432.617188"/>
      <use xlink:href="#DejaVuSans-5f" x="488.330078"/>
      <use xlink:href="#DejaVuSans-52" x="538.330078"/>
      <use xlink:href="#DejaVuSans-45" x="607.8125"/>
      <use xlink:href="#DejaVuSans-50" x="670.996094"/>
      <use xlink:href="#DejaVuSans-31" x="731.298828"/>
      <use xlink:href="#DejaVuSans-5f" x="794.921875"/>
      <use xlink:href="#DejaVuSans-32" x="844.921875"/>
     </g>
    </g>
    <g id="line2d_21">
     <path d="M 266.150312 303.490394 
L 274.150312 303.490394 
L 282.150312 303.490394 
" style="fill: none; stroke: #d9534f; stroke-linecap: square"/>
    </g>
    <g id="text_21">
     <!-- CONTROL_REP2_1 -->
     <g transform="translate(288.550312 306.290394) scale(0.08 -0.08)">
      <use xlink:href="#DejaVuSans-43"/>
      <use xlink:href="#DejaVuSans-4f" x="69.824219"/>
      <use xlink:href="#DejaVuSans-4e" x="148.535156"/>
      <use xlink:href="#DejaVuSans-54" x="223.339844"/>
      <use xlink:href="#DejaVuSans-52" x="284.423828"/>
      <use xlink:href="#DejaVuSans-4f" x="353.90625"/>
      <use xlink:href="#DejaVuSans-4c" x="432.617188"/>
      <use xlink:href="#DejaVuSans-5f" x="488.330078"/>
      <use xlink:href="#DejaVuSans-52" x="538.330078"/>
      <use xlink:href="#DejaVuSans-45" x="607.8125"/>
      <use xlink:href="#DejaVuSans-50" x="670.996094"/>
      <use xlink:href="#DejaVuSans-32" x="731.298828"/>
      <use xlink:href="#DejaVuSans-5f" x="794.921875"/>
      <use xlink:href="#DejaVuSans-31" x="844.921875"/>
     </g>
    </g>
    <g id="line2d_22">
     <path d="M 266.150312 315.455394 
L 274.150312 315.455394 
L 282.150312 315.455394 
" style="fill: none; stroke: #d9534f; stroke-linecap: square"/>
    </g>
    <g id="text_22">
     <!-- CONTROL_REP2_2 -->
     <g transform="translate(288.550312 318.255394) scale(0.08 -0.08)">
      <use xlink:href="#DejaVuSans-43"/>
      <use xlink:href="#DejaVuSans-4f" x="69.824219"/>
      <use xlink:href="#DejaVuSans-4e" x="148.535156"/>
      <use xlink:href="#DejaVuSans-54" x="223.339844"/>
      <use xlink:href="#DejaVuSans-52" x="284.423828"/>
      <use xlink:href="#DejaVuSans-4f" x="353.90625"/>
      <use xlink:href="#DejaVuSans-4c" x="432.617188"/>
      <use xlink:href="#DejaVuSans-5f" x="488.330078"/>
      <use xlink:href="#DejaVuSans-52" x="538.330078"/>
      <use xlink:href="#DejaVuSans-45" x="607.8125"/>
      <use xlink:href="#DejaVuSans-50" x="670.996094"/>
      <use xlink:href="#DejaVuSans-32" x="731.298828"/>
      <use xlink:href="#DejaVuSans-5f" x="794.921875"/>
      <use xlink:href="#DejaVuSans-32" x="844.921875"/>
     </g>
    </g>
    <g id="line2d_23">
     <path d="M 471.7725 303.490394 
L 479.7725 303.490394 
L 487.7725 303.490394 
" style="fill: none; stroke: #d9534f; stroke-linecap: square"/>
    </g>
    <g id="text_23">
     <!-- CONTROL_REP3_1 -->
     <g transform="translate(494.1725 306.290394) scale(0.08 -0.08)">
      <defs>
       <path id="DejaVuSans-33" d="M 2597 2516 
Q 3050 2419 3304 2112 
Q 3559 1806 3559 1356 
Q 3559 666 3084 287 
Q 2609 -91 1734 -91 
Q 1441 -91 1130 -33 
Q 819 25 488 141 
L 488 750 
Q 750 597 1062 519 
Q 1375 441 1716 441 
Q 2309 441 2620 675 
Q 2931 909 2931 1356 
Q 2931 1769 2642 2001 
Q 2353 2234 1838 2234 
L 1294 2234 
L 1294 2753 
L 1863 2753 
Q 2328 2753 2575 2939 
Q 2822 3125 2822 3475 
Q 2822 3834 2567 4026 
Q 2313 4219 1838 4219 
Q 1578 4219 1281 4162 
Q 984 4106 628 3988 
L 628 4550 
Q 988 4650 1302 4700 
Q 1616 4750 1894 4750 
Q 2613 4750 3031 4423 
Q 3450 4097 3450 3541 
Q 3450 3153 3228 2886 
Q 3006 2619 2597 2516 
z
" transform="scale(0.015625)"/>
      </defs>
      <use xlink:href="#DejaVuSans-43"/>
      <use xlink:href="#DejaVuSans-4f" x="69.824219"/>
      <use xlink:href="#DejaVuSans-4e" x="148.535156"/>
      <use xlink:href="#DejaVuSans-54" x="223.339844"/>
      <use xlink:href="#DejaVuSans-52" x="284.423828"/>
      <use xlink:href="#DejaVuSans-4f" x="353.90625"/>
      <use xlink:href="#DejaVuSans-4c" x="432.617188"/>
      <use xlink:href="#DejaVuSans-5f" x="488.330078"/>
      <use xlink:href="#DejaVuSans-52" x="538.330078"/>
      <use xlink:href="#DejaVuSans-45" x="607.8125"/>
      <use xlink:href="#DejaVuSans-50" x="670.996094"/>
      <use xlink:href="#DejaVuSans-33" x="731.298828"/>
      <use xlink:href="#DejaVuSans-5f" x="794.921875"/>
      <use xlink:href="#DejaVuSans-31" x="844.921875"/>
     </g>
    </g>
    <g id="line2d_24">
     <path d="M 471.7725 315.455394 
L 479.7725 315.455394 
L 487.7725 315.455394 
" style="fill: none; stroke: #d9534f; stroke-linecap: square"/>
    </g>
    <g id="text_24">
     <!-- CONTROL_REP3_2 -->
     <g transform="translate(494.1725 318.255394) scale(0.08 -0.08)">
      <use xlink:href="#DejaVuSans-43"/>
      <use xlink:href="#DejaVuSans-4f" x="69.824219"/>
      <use xlink:href="#DejaVuSans-4e" x="148.535156"/>
      <use xlink:href="#DejaVuSans-54" x="223.339844"/>
      <use xlink:href="#DejaVuSans-52" x="284.423828"/>
      <use xlink:href="#DejaVuSans-4f" x="353.90625"/>
      <use xlink:href="#DejaVuSans-4c" x="432.617188"/>
      <use xlink:href="#DejaVuSans-5f" x="488.330078"/>
      <use xlink:href="#DejaVuSans-52" x="538.330078"/>
      <use xlink:href="#DejaVuSans-45" x="607.8125"/>
      <use xlink:href="#DejaVuSans-50" x="670.996094"/>
      <use xlink:href="#DejaVuSans-33" x="731.298828"/>
      <use xlink:href="#DejaVuSans-5f" x="794.921875"/>
      <use xlink:href="#DejaVuSans-32" x="844.921875"/>
     </g>
    </g>
    <g id="line2d_25">
     <path d="M 677.394688 303.490394 
L 685.394688 303.490394 
L 693.394688 303.490394 
" style="fill: none; stroke: #d9534f; stroke-linecap: square"/>
    </g>
    <g id="text_25">
     <!-- CONTROL_REP4_1 -->
     <g transform="translate(699.794688 306.290394) scale(0.08 -0.08)">
      <use xlink:href="#DejaVuSans-43"/>
      <use xlink:href="#DejaVuSans-4f" x="69.824219"/>
      <use xlink:href="#DejaVuSans-4e" x="148.535156"/>
      <use xlink:href="#DejaVuSans-54" x="223.339844"/>
      <use xlink:href="#DejaVuSans-52" x="284.423828"/>
      <use xlink:href="#DejaVuSans-4f" x="353.90625"/>
      <use xlink:href="#DejaVuSans-4c" x="432.617188"/>
      <use xlink:href="#DejaVuSans-5f" x="488.330078"/>
      <use xlink:href="#DejaVuSans-52" x="538.330078"/>
      <use xlink:href="#DejaVuSans-45" x="607.8125"/>
      <use xlink:href="#DejaVuSans-50" x="670.996094"/>
      <use xlink:href="#DejaVuSans-34" x="731.298828"/>
      <use xlink:href="#DejaVuSans-5f" x="794.921875"/>
      <use xlink:href="#DejaVuSans-31" x="844.921875"/>
     </g>
    </g>
    <g id="line2d_26">
     <path d="M 883.016875 303.490394 
L 891.016875 303.490394 
L 899.016875 303.490394 
" style="fill: none; stroke: #d9534f; stroke-linecap: square"/>
    </g>
    <g id="text_26">
     <!-- CONTROL_REP4_2 -->
     <g transform="translate(905.416875 306.290394) scale(0.08 -0.08)">
      <use xlink:href="#DejaVuSans-43"/>
      <use xlink:href="#DejaVuSans-4f" x="69.824219"/>
      <use xlink:href="#DejaVuSans-4e" x="148.535156"/>
      <use xlink:href="#DejaVuSans-54" x="223.339844"/>
      <use xlink:href="#DejaVuSans-52" x="284.423828"/>
      <use xlink:href="#DejaVuSans-4f" x="353.90625"/>
      <use xlink:href="#DejaVuSans-4c" x="432.617188"/>
      <use xlink:href="#DejaVuSans-5f" x="488.330078"/>
      <use xlink:href="#DejaVuSans-52" x="538.330078"/>
      <use xlink:href="#DejaVuSans-45" x="607.8125"/>
      <use xlink:href="#DejaVuSans-50" x="670.996094"/>
      <use xlink:href="#DejaVuSans-34" x="731.298828"/>
      <use xlink:href="#DejaVuSans-5f" x="794.921875"/>
      <use xlink:href="#DejaVuSans-32" x="844.921875"/>
     </g>
    </g>
   </g>
  </g>
 </g>
 <defs>
  <clipPath id="pf705954a30">
   <rect x="53.328125" y="31.48286" width="931.975" height="242.5072"/>
  </clipPath>
 </defs>
</svg>
