<?xml version="1.0" encoding="utf-8" standalone="no"?>
<!DOCTYPE svg PUBLIC "-//W3C//DTD SVG 1.1//EN"
  "http://www.w3.org/Graphics/SVG/1.1/DTD/svg11.dtd">
<svg xmlns:xlink="http://www.w3.org/1999/xlink" width="999.508887pt" height="330.541644pt" viewBox="0 0 999.508887 330.541644" xmlns="http://www.w3.org/2000/svg" version="1.1">
 <metadata>
  <rdf:RDF xmlns:dc="http://purl.org/dc/elements/1.1/" xmlns:cc="http://creativecommons.org/ns#" xmlns:rdf="http://www.w3.org/1999/02/22-rdf-syntax-ns#">
   <cc:Work>
    <dc:type rdf:resource="http://purl.org/dc/dcmitype/StillImage"/>
    <dc:date>2024-06-12T15:57:55.052098</dc:date>
    <dc:format>image/svg+xml</dc:format>
    <dc:creator>
     <cc:Agent>
      <dc:title>Matplotlib v3.8.2, https://matplotlib.org/</dc:title>
     </cc:Agent>
    </dc:creator>
   </cc:Work>
  </rdf:RDF>
 </metadata>
 <defs>
  <style type="text/css">*{stroke-linejoin: round; stroke-linecap: butt}</style>
 </defs>
 <g id="figure_1">
  <g id="axes_1">
   <g id="patch_1">
    <path d="M 41.958125 273.99006 
L 992.308887 273.99006 
L 992.308887 31.48286 
L 41.958125 31.48286 
z
" style="fill: #ffffff"/>
   </g>
   <g id="matplotlib.axis_1">
    <g id="xtick_1">
     <g id="text_1">
      <!-- 0 -->
      <g transform="translate(80.876037 287.06881) scale(0.08 -0.08)">
       <defs>
        <path id="DejaVuSans-30" d="M 2034 4250 
Q 1547 4250 1301 3770 
Q 1056 3291 1056 2328 
Q 1056 1369 1301 889 
Q 1547 409 2034 409 
Q 2525 409 2770 889 
Q 3016 1369 3016 2328 
Q 3016 3291 2770 3770 
Q 2525 4250 2034 4250 
z
M 2034 4750 
Q 2819 4750 3233 4129 
Q 3647 3509 3647 2328 
Q 3647 1150 3233 529 
Q 2819 -91 2034 -91 
Q 1250 -91 836 529 
Q 422 1150 422 2328 
Q 422 3509 836 4129 
Q 1250 4750 2034 4750 
z
" transform="scale(0.015625)"/>
       </defs>
       <use xlink:href="#DejaVuSans-30"/>
      </g>
     </g>
    </g>
    <g id="xtick_2">
     <g id="text_2">
      <!-- 100 -->
      <g transform="translate(249.271025 287.06881) scale(0.08 -0.08)">
       <defs>
        <path id="DejaVuSans-31" d="M 794 531 
L 1825 531 
L 1825 4091 
L 703 3866 
L 703 4441 
L 1819 4666 
L 2450 4666 
L 2450 531 
L 3481 531 
L 3481 0 
L 794 0 
L 794 531 
z
" transform="scale(0.015625)"/>
       </defs>
       <use xlink:href="#DejaVuSans-31"/>
       <use xlink:href="#DejaVuSans-30" x="63.623047"/>
       <use xlink:href="#DejaVuSans-30" x="127.246094"/>
      </g>
     </g>
    </g>
    <g id="xtick_3">
     <g id="text_3">
      <!-- 200 -->
      <g transform="translate(422.756012 287.06881) scale(0.08 -0.08)">
       <defs>
        <path id="DejaVuSans-32" d="M 1228 531 
L 3431 531 
L 3431 0 
L 469 0 
L 469 531 
Q 828 903 1448 1529 
Q 2069 2156 2228 2338 
Q 2531 2678 2651 2914 
Q 2772 3150 2772 3378 
Q 2772 3750 2511 3984 
Q 2250 4219 1831 4219 
Q 1534 4219 1204 4116 
Q 875 4013 500 3803 
L 500 4441 
Q 881 4594 1212 4672 
Q 1544 4750 1819 4750 
Q 2544 4750 2975 4387 
Q 3406 4025 3406 3419 
Q 3406 3131 3298 2873 
Q 3191 2616 2906 2266 
Q 2828 2175 2409 1742 
Q 1991 1309 1228 531 
z
" transform="scale(0.015625)"/>
       </defs>
       <use xlink:href="#DejaVuSans-32"/>
       <use xlink:href="#DejaVuSans-30" x="63.623047"/>
       <use xlink:href="#DejaVuSans-30" x="127.246094"/>
      </g>
     </g>
    </g>
    <g id="xtick_4">
     <g id="text_4">
      <!-- 300 -->
      <g transform="translate(596.241 287.06881) scale(0.08 -0.08)">
       <defs>
        <path id="DejaVuSans-33" d="M 2597 2516 
Q 3050 2419 3304 2112 
Q 3559 1806 3559 1356 
Q 3559 666 3084 287 
Q 2609 -91 1734 -91 
Q 1441 -91 1130 -33 
Q 819 25 488 141 
L 488 750 
Q 750 597 1062 519 
Q 1375 441 1716 441 
Q 2309 441 2620 675 
Q 2931 909 2931 1356 
Q 2931 1769 2642 2001 
Q 2353 2234 1838 2234 
L 1294 2234 
L 1294 2753 
L 1863 2753 
Q 2328 2753 2575 2939 
Q 2822 3125 2822 3475 
Q 2822 3834 2567 4026 
Q 2313 4219 1838 4219 
Q 1578 4219 1281 4162 
Q 984 4106 628 3988 
L 628 4550 
Q 988 4650 1302 4700 
Q 1616 4750 1894 4750 
Q 2613 4750 3031 4423 
Q 3450 4097 3450 3541 
Q 3450 3153 3228 2886 
Q 3006 2619 2597 2516 
z
" transform="scale(0.015625)"/>
       </defs>
       <use xlink:href="#DejaVuSans-33"/>
       <use xlink:href="#DejaVuSans-30" x="63.623047"/>
       <use xlink:href="#DejaVuSans-30" x="127.246094"/>
      </g>
     </g>
    </g>
    <g id="xtick_5">
     <g id="text_5">
      <!-- 400 -->
      <g transform="translate(769.725988 287.06881) scale(0.08 -0.08)">
       <defs>
        <path id="DejaVuSans-34" d="M 2419 4116 
L 825 1625 
L 2419 1625 
L 2419 4116 
z
M 2253 4666 
L 3047 4666 
L 3047 1625 
L 3713 1625 
L 3713 1100 
L 3047 1100 
L 3047 0 
L 2419 0 
L 2419 1100 
L 313 1100 
L 313 1709 
L 2253 4666 
z
" transform="scale(0.015625)"/>
       </defs>
       <use xlink:href="#DejaVuSans-34"/>
       <use xlink:href="#DejaVuSans-30" x="63.623047"/>
       <use xlink:href="#DejaVuSans-30" x="127.246094"/>
      </g>
     </g>
    </g>
    <g id="xtick_6">
     <g id="text_6">
      <!-- 500 -->
      <g transform="translate(943.210975 287.06881) scale(0.08 -0.08)">
       <defs>
        <path id="DejaVuSans-35" d="M 691 4666 
L 3169 4666 
L 3169 4134 
L 1269 4134 
L 1269 2991 
Q 1406 3038 1543 3061 
Q 1681 3084 1819 3084 
Q 2600 3084 3056 2656 
Q 3513 2228 3513 1497 
Q 3513 744 3044 326 
Q 2575 -91 1722 -91 
Q 1428 -91 1123 -41 
Q 819 9 494 109 
L 494 744 
Q 775 591 1075 516 
Q 1375 441 1709 441 
Q 2250 441 2565 725 
Q 2881 1009 2881 1497 
Q 2881 1984 2565 2268 
Q 2250 2553 1709 2553 
Q 1456 2553 1204 2497 
Q 953 2441 691 2322 
L 691 4666 
z
" transform="scale(0.015625)"/>
       </defs>
       <use xlink:href="#DejaVuSans-35"/>
       <use xlink:href="#DejaVuSans-30" x="63.623047"/>
       <use xlink:href="#DejaVuSans-30" x="127.246094"/>
      </g>
     </g>
    </g>
    <g id="text_7">
     <!-- Occurrence of read -->
     <g transform="translate(469.292881 300.330997) scale(0.1 -0.1)">
      <defs>
       <path id="DejaVuSans-4f" d="M 2522 4238 
Q 1834 4238 1429 3725 
Q 1025 3213 1025 2328 
Q 1025 1447 1429 934 
Q 1834 422 2522 422 
Q 3209 422 3611 934 
Q 4013 1447 4013 2328 
Q 4013 3213 3611 3725 
Q 3209 4238 2522 4238 
z
M 2522 4750 
Q 3503 4750 4090 4092 
Q 4678 3434 4678 2328 
Q 4678 1225 4090 567 
Q 3503 -91 2522 -91 
Q 1538 -91 948 565 
Q 359 1222 359 2328 
Q 359 3434 948 4092 
Q 1538 4750 2522 4750 
z
" transform="scale(0.015625)"/>
       <path id="DejaVuSans-63" d="M 3122 3366 
L 3122 2828 
Q 2878 2963 2633 3030 
Q 2388 3097 2138 3097 
Q 1578 3097 1268 2742 
Q 959 2388 959 1747 
Q 959 1106 1268 751 
Q 1578 397 2138 397 
Q 2388 397 2633 464 
Q 2878 531 3122 666 
L 3122 134 
Q 2881 22 2623 -34 
Q 2366 -91 2075 -91 
Q 1284 -91 818 406 
Q 353 903 353 1747 
Q 353 2603 823 3093 
Q 1294 3584 2113 3584 
Q 2378 3584 2631 3529 
Q 2884 3475 3122 3366 
z
" transform="scale(0.015625)"/>
       <path id="DejaVuSans-75" d="M 544 1381 
L 544 3500 
L 1119 3500 
L 1119 1403 
Q 1119 906 1312 657 
Q 1506 409 1894 409 
Q 2359 409 2629 706 
Q 2900 1003 2900 1516 
L 2900 3500 
L 3475 3500 
L 3475 0 
L 2900 0 
L 2900 538 
Q 2691 219 2414 64 
Q 2138 -91 1772 -91 
Q 1169 -91 856 284 
Q 544 659 544 1381 
z
M 1991 3584 
L 1991 3584 
z
" transform="scale(0.015625)"/>
       <path id="DejaVuSans-72" d="M 2631 2963 
Q 2534 3019 2420 3045 
Q 2306 3072 2169 3072 
Q 1681 3072 1420 2755 
Q 1159 2438 1159 1844 
L 1159 0 
L 581 0 
L 581 3500 
L 1159 3500 
L 1159 2956 
Q 1341 3275 1631 3429 
Q 1922 3584 2338 3584 
Q 2397 3584 2469 3576 
Q 2541 3569 2628 3553 
L 2631 2963 
z
" transform="scale(0.015625)"/>
       <path id="DejaVuSans-65" d="M 3597 1894 
L 3597 1613 
L 953 1613 
Q 991 1019 1311 708 
Q 1631 397 2203 397 
Q 2534 397 2845 478 
Q 3156 559 3463 722 
L 3463 178 
Q 3153 47 2828 -22 
Q 2503 -91 2169 -91 
Q 1331 -91 842 396 
Q 353 884 353 1716 
Q 353 2575 817 3079 
Q 1281 3584 2069 3584 
Q 2775 3584 3186 3129 
Q 3597 2675 3597 1894 
z
M 3022 2063 
Q 3016 2534 2758 2815 
Q 2500 3097 2075 3097 
Q 1594 3097 1305 2825 
Q 1016 2553 972 2059 
L 3022 2063 
z
" transform="scale(0.015625)"/>
       <path id="DejaVuSans-6e" d="M 3513 2113 
L 3513 0 
L 2938 0 
L 2938 2094 
Q 2938 2591 2744 2837 
Q 2550 3084 2163 3084 
Q 1697 3084 1428 2787 
Q 1159 2491 1159 1978 
L 1159 0 
L 581 0 
L 581 3500 
L 1159 3500 
L 1159 2956 
Q 1366 3272 1645 3428 
Q 1925 3584 2291 3584 
Q 2894 3584 3203 3211 
Q 3513 2838 3513 2113 
z
" transform="scale(0.015625)"/>
       <path id="DejaVuSans-20" transform="scale(0.015625)"/>
       <path id="DejaVuSans-6f" d="M 1959 3097 
Q 1497 3097 1228 2736 
Q 959 2375 959 1747 
Q 959 1119 1226 758 
Q 1494 397 1959 397 
Q 2419 397 2687 759 
Q 2956 1122 2956 1747 
Q 2956 2369 2687 2733 
Q 2419 3097 1959 3097 
z
M 1959 3584 
Q 2709 3584 3137 3096 
Q 3566 2609 3566 1747 
Q 3566 888 3137 398 
Q 2709 -91 1959 -91 
Q 1206 -91 779 398 
Q 353 888 353 1747 
Q 353 2609 779 3096 
Q 1206 3584 1959 3584 
z
" transform="scale(0.015625)"/>
       <path id="DejaVuSans-66" d="M 2375 4863 
L 2375 4384 
L 1825 4384 
Q 1516 4384 1395 4259 
Q 1275 4134 1275 3809 
L 1275 3500 
L 2222 3500 
L 2222 3053 
L 1275 3053 
L 1275 0 
L 697 0 
L 697 3053 
L 147 3053 
L 147 3500 
L 697 3500 
L 697 3744 
Q 697 4328 969 4595 
Q 1241 4863 1831 4863 
L 2375 4863 
z
" transform="scale(0.015625)"/>
       <path id="DejaVuSans-61" d="M 2194 1759 
Q 1497 1759 1228 1600 
Q 959 1441 959 1056 
Q 959 750 1161 570 
Q 1363 391 1709 391 
Q 2188 391 2477 730 
Q 2766 1069 2766 1631 
L 2766 1759 
L 2194 1759 
z
M 3341 1997 
L 3341 0 
L 2766 0 
L 2766 531 
Q 2569 213 2275 61 
Q 1981 -91 1556 -91 
Q 1019 -91 701 211 
Q 384 513 384 1019 
Q 384 1609 779 1909 
Q 1175 2209 1959 2209 
L 2766 2209 
L 2766 2266 
Q 2766 2663 2505 2880 
Q 2244 3097 1772 3097 
Q 1472 3097 1187 3025 
Q 903 2953 641 2809 
L 641 3341 
Q 956 3463 1253 3523 
Q 1550 3584 1831 3584 
Q 2591 3584 2966 3190 
Q 3341 2797 3341 1997 
z
" transform="scale(0.015625)"/>
       <path id="DejaVuSans-64" d="M 2906 2969 
L 2906 4863 
L 3481 4863 
L 3481 0 
L 2906 0 
L 2906 525 
Q 2725 213 2448 61 
Q 2172 -91 1784 -91 
Q 1150 -91 751 415 
Q 353 922 353 1747 
Q 353 2572 751 3078 
Q 1150 3584 1784 3584 
Q 2172 3584 2448 3432 
Q 2725 3281 2906 2969 
z
M 947 1747 
Q 947 1113 1208 752 
Q 1469 391 1925 391 
Q 2381 391 2643 752 
Q 2906 1113 2906 1747 
Q 2906 2381 2643 2742 
Q 2381 3103 1925 3103 
Q 1469 3103 1208 2742 
Q 947 2381 947 1747 
z
" transform="scale(0.015625)"/>
      </defs>
      <use xlink:href="#DejaVuSans-4f"/>
      <use xlink:href="#DejaVuSans-63" x="78.710938"/>
      <use xlink:href="#DejaVuSans-63" x="133.691406"/>
      <use xlink:href="#DejaVuSans-75" x="188.671875"/>
      <use xlink:href="#DejaVuSans-72" x="252.050781"/>
      <use xlink:href="#DejaVuSans-72" x="291.414062"/>
      <use xlink:href="#DejaVuSans-65" x="330.277344"/>
      <use xlink:href="#DejaVuSans-6e" x="391.800781"/>
      <use xlink:href="#DejaVuSans-63" x="455.179688"/>
      <use xlink:href="#DejaVuSans-65" x="510.160156"/>
      <use xlink:href="#DejaVuSans-20" x="571.683594"/>
      <use xlink:href="#DejaVuSans-6f" x="603.470703"/>
      <use xlink:href="#DejaVuSans-66" x="664.652344"/>
      <use xlink:href="#DejaVuSans-20" x="699.857422"/>
      <use xlink:href="#DejaVuSans-72" x="731.644531"/>
      <use xlink:href="#DejaVuSans-65" x="770.507812"/>
      <use xlink:href="#DejaVuSans-61" x="832.03125"/>
      <use xlink:href="#DejaVuSans-64" x="893.310547"/>
     </g>
    </g>
   </g>
   <g id="matplotlib.axis_2">
    <g id="ytick_1">
     <g id="line2d_1">
      <path d="M 41.958125 262.967005 
L 992.308887 262.967005 
" clip-path="url(#p158a495ac2)" style="fill: none; stroke: #dedede; stroke-linecap: square"/>
     </g>
     <g id="text_8">
      <!-- $\mathdefault{10^{0}}$ -->
      <g transform="translate(20.878125 266.00638) scale(0.08 -0.08)">
       <use xlink:href="#DejaVuSans-31" transform="translate(0 0.765625)"/>
       <use xlink:href="#DejaVuSans-30" transform="translate(63.623047 0.765625)"/>
       <use xlink:href="#DejaVuSans-30" transform="translate(128.203125 39.046875) scale(0.7)"/>
      </g>
     </g>
    </g>
    <g id="ytick_2">
     <g id="line2d_2">
      <path d="M 41.958125 212.939863 
L 992.308887 212.939863 
" clip-path="url(#p158a495ac2)" style="fill: none; stroke: #dedede; stroke-linecap: square"/>
     </g>
     <g id="text_9">
      <!-- $\mathdefault{10^{1}}$ -->
      <g transform="translate(20.878125 215.979238) scale(0.08 -0.08)">
       <use xlink:href="#DejaVuSans-31" transform="translate(0 0.684375)"/>
       <use xlink:href="#DejaVuSans-30" transform="translate(63.623047 0.684375)"/>
       <use xlink:href="#DejaVuSans-31" transform="translate(128.203125 38.965625) scale(0.7)"/>
      </g>
     </g>
    </g>
    <g id="ytick_3">
     <g id="line2d_3">
      <path d="M 41.958125 162.912721 
L 992.308887 162.912721 
" clip-path="url(#p158a495ac2)" style="fill: none; stroke: #dedede; stroke-linecap: square"/>
     </g>
     <g id="text_10">
      <!-- $\mathdefault{10^{2}}$ -->
      <g transform="translate(20.878125 165.952096) scale(0.08 -0.08)">
       <use xlink:href="#DejaVuSans-31" transform="translate(0 0.765625)"/>
       <use xlink:href="#DejaVuSans-30" transform="translate(63.623047 0.765625)"/>
       <use xlink:href="#DejaVuSans-32" transform="translate(128.203125 39.046875) scale(0.7)"/>
      </g>
     </g>
    </g>
    <g id="ytick_4">
     <g id="line2d_4">
      <path d="M 41.958125 112.885579 
L 992.308887 112.885579 
" clip-path="url(#p158a495ac2)" style="fill: none; stroke: #dedede; stroke-linecap: square"/>
     </g>
     <g id="text_11">
      <!-- $\mathdefault{10^{3}}$ -->
      <g transform="translate(20.878125 115.924954) scale(0.08 -0.08)">
       <use xlink:href="#DejaVuSans-31" transform="translate(0 0.765625)"/>
       <use xlink:href="#DejaVuSans-30" transform="translate(63.623047 0.765625)"/>
       <use xlink:href="#DejaVuSans-33" transform="translate(128.203125 39.046875) scale(0.7)"/>
      </g>
     </g>
    </g>
    <g id="ytick_5">
     <g id="line2d_5">
      <path d="M 41.958125 62.858437 
L 992.308887 62.858437 
" clip-path="url(#p158a495ac2)" style="fill: none; stroke: #dedede; stroke-linecap: square"/>
     </g>
     <g id="text_12">
      <!-- $\mathdefault{10^{4}}$ -->
      <g transform="translate(20.878125 65.897812) scale(0.08 -0.08)">
       <use xlink:href="#DejaVuSans-31" transform="translate(0 0.684375)"/>
       <use xlink:href="#DejaVuSans-30" transform="translate(63.623047 0.684375)"/>
       <use xlink:href="#DejaVuSans-34" transform="translate(128.203125 38.965625) scale(0.7)"/>
      </g>
     </g>
    </g>
    <g id="ytick_6">
     <g id="line2d_6">
      <path d="M 41.958125 270.716308 
L 992.308887 270.716308 
" clip-path="url(#p158a495ac2)" style="fill: none; stroke: #dedede; stroke-linecap: square"/>
     </g>
     <g id="line2d_7">
      <defs>
       <path id="mf8c9416c8c" d="M 0 0 
L -2 0 
" style="stroke: #000000; stroke-width: 0.6"/>
      </defs>
      <g>
       <use xlink:href="#mf8c9416c8c" x="41.958125" y="270.716308" style="stroke: #000000; stroke-width: 0.6"/>
      </g>
     </g>
    </g>
    <g id="ytick_7">
     <g id="line2d_8">
      <path d="M 41.958125 267.815136 
L 992.308887 267.815136 
" clip-path="url(#p158a495ac2)" style="fill: none; stroke: #dedede; stroke-linecap: square"/>
     </g>
     <g id="line2d_9">
      <g>
       <use xlink:href="#mf8c9416c8c" x="41.958125" y="267.815136" style="stroke: #000000; stroke-width: 0.6"/>
      </g>
     </g>
    </g>
    <g id="ytick_8">
     <g id="line2d_10">
      <path d="M 41.958125 265.256122 
L 992.308887 265.256122 
" clip-path="url(#p158a495ac2)" style="fill: none; stroke: #dedede; stroke-linecap: square"/>
     </g>
     <g id="line2d_11">
      <g>
       <use xlink:href="#mf8c9416c8c" x="41.958125" y="265.256122" style="stroke: #000000; stroke-width: 0.6"/>
      </g>
     </g>
    </g>
    <g id="ytick_9">
     <g id="line2d_12">
      <path d="M 41.958125 247.907335 
L 992.308887 247.907335 
" clip-path="url(#p158a495ac2)" style="fill: none; stroke: #dedede; stroke-linecap: square"/>
     </g>
     <g id="line2d_13">
      <g>
       <use xlink:href="#mf8c9416c8c" x="41.958125" y="247.907335" style="stroke: #000000; stroke-width: 0.6"/>
      </g>
     </g>
    </g>
    <g id="ytick_10">
     <g id="line2d_14">
      <path d="M 41.958125 239.097993 
L 992.308887 239.097993 
" clip-path="url(#p158a495ac2)" style="fill: none; stroke: #dedede; stroke-linecap: square"/>
     </g>
     <g id="line2d_15">
      <g>
       <use xlink:href="#mf8c9416c8c" x="41.958125" y="239.097993" style="stroke: #000000; stroke-width: 0.6"/>
      </g>
     </g>
    </g>
    <g id="ytick_11">
     <g id="line2d_16">
      <path d="M 41.958125 232.847665 
L 992.308887 232.847665 
" clip-path="url(#p158a495ac2)" style="fill: none; stroke: #dedede; stroke-linecap: square"/>
     </g>
     <g id="line2d_17">
      <g>
       <use xlink:href="#mf8c9416c8c" x="41.958125" y="232.847665" style="stroke: #000000; stroke-width: 0.6"/>
      </g>
     </g>
    </g>
    <g id="ytick_12">
     <g id="line2d_18">
      <path d="M 41.958125 227.999534 
L 992.308887 227.999534 
" clip-path="url(#p158a495ac2)" style="fill: none; stroke: #dedede; stroke-linecap: square"/>
     </g>
     <g id="line2d_19">
      <g>
       <use xlink:href="#mf8c9416c8c" x="41.958125" y="227.999534" style="stroke: #000000; stroke-width: 0.6"/>
      </g>
     </g>
    </g>
    <g id="ytick_13">
     <g id="line2d_20">
      <path d="M 41.958125 224.038322 
L 992.308887 224.038322 
" clip-path="url(#p158a495ac2)" style="fill: none; stroke: #dedede; stroke-linecap: square"/>
     </g>
     <g id="line2d_21">
      <g>
       <use xlink:href="#mf8c9416c8c" x="41.958125" y="224.038322" style="stroke: #000000; stroke-width: 0.6"/>
      </g>
     </g>
    </g>
    <g id="ytick_14">
     <g id="line2d_22">
      <path d="M 41.958125 220.689166 
L 992.308887 220.689166 
" clip-path="url(#p158a495ac2)" style="fill: none; stroke: #dedede; stroke-linecap: square"/>
     </g>
     <g id="line2d_23">
      <g>
       <use xlink:href="#mf8c9416c8c" x="41.958125" y="220.689166" style="stroke: #000000; stroke-width: 0.6"/>
      </g>
     </g>
    </g>
    <g id="ytick_15">
     <g id="line2d_24">
      <path d="M 41.958125 217.787994 
L 992.308887 217.787994 
" clip-path="url(#p158a495ac2)" style="fill: none; stroke: #dedede; stroke-linecap: square"/>
     </g>
     <g id="line2d_25">
      <g>
       <use xlink:href="#mf8c9416c8c" x="41.958125" y="217.787994" style="stroke: #000000; stroke-width: 0.6"/>
      </g>
     </g>
    </g>
    <g id="ytick_16">
     <g id="line2d_26">
      <path d="M 41.958125 215.22898 
L 992.308887 215.22898 
" clip-path="url(#p158a495ac2)" style="fill: none; stroke: #dedede; stroke-linecap: square"/>
     </g>
     <g id="line2d_27">
      <g>
       <use xlink:href="#mf8c9416c8c" x="41.958125" y="215.22898" style="stroke: #000000; stroke-width: 0.6"/>
      </g>
     </g>
    </g>
    <g id="ytick_17">
     <g id="line2d_28">
      <path d="M 41.958125 197.880193 
L 992.308887 197.880193 
" clip-path="url(#p158a495ac2)" style="fill: none; stroke: #dedede; stroke-linecap: square"/>
     </g>
     <g id="line2d_29">
      <g>
       <use xlink:href="#mf8c9416c8c" x="41.958125" y="197.880193" style="stroke: #000000; stroke-width: 0.6"/>
      </g>
     </g>
    </g>
    <g id="ytick_18">
     <g id="line2d_30">
      <path d="M 41.958125 189.070851 
L 992.308887 189.070851 
" clip-path="url(#p158a495ac2)" style="fill: none; stroke: #dedede; stroke-linecap: square"/>
     </g>
     <g id="line2d_31">
      <g>
       <use xlink:href="#mf8c9416c8c" x="41.958125" y="189.070851" style="stroke: #000000; stroke-width: 0.6"/>
      </g>
     </g>
    </g>
    <g id="ytick_19">
     <g id="line2d_32">
      <path d="M 41.958125 182.820523 
L 992.308887 182.820523 
" clip-path="url(#p158a495ac2)" style="fill: none; stroke: #dedede; stroke-linecap: square"/>
     </g>
     <g id="line2d_33">
      <g>
       <use xlink:href="#mf8c9416c8c" x="41.958125" y="182.820523" style="stroke: #000000; stroke-width: 0.6"/>
      </g>
     </g>
    </g>
    <g id="ytick_20">
     <g id="line2d_34">
      <path d="M 41.958125 177.972392 
L 992.308887 177.972392 
" clip-path="url(#p158a495ac2)" style="fill: none; stroke: #dedede; stroke-linecap: square"/>
     </g>
     <g id="line2d_35">
      <g>
       <use xlink:href="#mf8c9416c8c" x="41.958125" y="177.972392" style="stroke: #000000; stroke-width: 0.6"/>
      </g>
     </g>
    </g>
    <g id="ytick_21">
     <g id="line2d_36">
      <path d="M 41.958125 174.01118 
L 992.308887 174.01118 
" clip-path="url(#p158a495ac2)" style="fill: none; stroke: #dedede; stroke-linecap: square"/>
     </g>
     <g id="line2d_37">
      <g>
       <use xlink:href="#mf8c9416c8c" x="41.958125" y="174.01118" style="stroke: #000000; stroke-width: 0.6"/>
      </g>
     </g>
    </g>
    <g id="ytick_22">
     <g id="line2d_38">
      <path d="M 41.958125 170.662024 
L 992.308887 170.662024 
" clip-path="url(#p158a495ac2)" style="fill: none; stroke: #dedede; stroke-linecap: square"/>
     </g>
     <g id="line2d_39">
      <g>
       <use xlink:href="#mf8c9416c8c" x="41.958125" y="170.662024" style="stroke: #000000; stroke-width: 0.6"/>
      </g>
     </g>
    </g>
    <g id="ytick_23">
     <g id="line2d_40">
      <path d="M 41.958125 167.760852 
L 992.308887 167.760852 
" clip-path="url(#p158a495ac2)" style="fill: none; stroke: #dedede; stroke-linecap: square"/>
     </g>
     <g id="line2d_41">
      <g>
       <use xlink:href="#mf8c9416c8c" x="41.958125" y="167.760852" style="stroke: #000000; stroke-width: 0.6"/>
      </g>
     </g>
    </g>
    <g id="ytick_24">
     <g id="line2d_42">
      <path d="M 41.958125 165.201838 
L 992.308887 165.201838 
" clip-path="url(#p158a495ac2)" style="fill: none; stroke: #dedede; stroke-linecap: square"/>
     </g>
     <g id="line2d_43">
      <g>
       <use xlink:href="#mf8c9416c8c" x="41.958125" y="165.201838" style="stroke: #000000; stroke-width: 0.6"/>
      </g>
     </g>
    </g>
    <g id="ytick_25">
     <g id="line2d_44">
      <path d="M 41.958125 147.853051 
L 992.308887 147.853051 
" clip-path="url(#p158a495ac2)" style="fill: none; stroke: #dedede; stroke-linecap: square"/>
     </g>
     <g id="line2d_45">
      <g>
       <use xlink:href="#mf8c9416c8c" x="41.958125" y="147.853051" style="stroke: #000000; stroke-width: 0.6"/>
      </g>
     </g>
    </g>
    <g id="ytick_26">
     <g id="line2d_46">
      <path d="M 41.958125 139.043709 
L 992.308887 139.043709 
" clip-path="url(#p158a495ac2)" style="fill: none; stroke: #dedede; stroke-linecap: square"/>
     </g>
     <g id="line2d_47">
      <g>
       <use xlink:href="#mf8c9416c8c" x="41.958125" y="139.043709" style="stroke: #000000; stroke-width: 0.6"/>
      </g>
     </g>
    </g>
    <g id="ytick_27">
     <g id="line2d_48">
      <path d="M 41.958125 132.793381 
L 992.308887 132.793381 
" clip-path="url(#p158a495ac2)" style="fill: none; stroke: #dedede; stroke-linecap: square"/>
     </g>
     <g id="line2d_49">
      <g>
       <use xlink:href="#mf8c9416c8c" x="41.958125" y="132.793381" style="stroke: #000000; stroke-width: 0.6"/>
      </g>
     </g>
    </g>
    <g id="ytick_28">
     <g id="line2d_50">
      <path d="M 41.958125 127.94525 
L 992.308887 127.94525 
" clip-path="url(#p158a495ac2)" style="fill: none; stroke: #dedede; stroke-linecap: square"/>
     </g>
     <g id="line2d_51">
      <g>
       <use xlink:href="#mf8c9416c8c" x="41.958125" y="127.94525" style="stroke: #000000; stroke-width: 0.6"/>
      </g>
     </g>
    </g>
    <g id="ytick_29">
     <g id="line2d_52">
      <path d="M 41.958125 123.984038 
L 992.308887 123.984038 
" clip-path="url(#p158a495ac2)" style="fill: none; stroke: #dedede; stroke-linecap: square"/>
     </g>
     <g id="line2d_53">
      <g>
       <use xlink:href="#mf8c9416c8c" x="41.958125" y="123.984038" style="stroke: #000000; stroke-width: 0.6"/>
      </g>
     </g>
    </g>
    <g id="ytick_30">
     <g id="line2d_54">
      <path d="M 41.958125 120.634882 
L 992.308887 120.634882 
" clip-path="url(#p158a495ac2)" style="fill: none; stroke: #dedede; stroke-linecap: square"/>
     </g>
     <g id="line2d_55">
      <g>
       <use xlink:href="#mf8c9416c8c" x="41.958125" y="120.634882" style="stroke: #000000; stroke-width: 0.6"/>
      </g>
     </g>
    </g>
    <g id="ytick_31">
     <g id="line2d_56">
      <path d="M 41.958125 117.73371 
L 992.308887 117.73371 
" clip-path="url(#p158a495ac2)" style="fill: none; stroke: #dedede; stroke-linecap: square"/>
     </g>
     <g id="line2d_57">
      <g>
       <use xlink:href="#mf8c9416c8c" x="41.958125" y="117.73371" style="stroke: #000000; stroke-width: 0.6"/>
      </g>
     </g>
    </g>
    <g id="ytick_32">
     <g id="line2d_58">
      <path d="M 41.958125 115.174696 
L 992.308887 115.174696 
" clip-path="url(#p158a495ac2)" style="fill: none; stroke: #dedede; stroke-linecap: square"/>
     </g>
     <g id="line2d_59">
      <g>
       <use xlink:href="#mf8c9416c8c" x="41.958125" y="115.174696" style="stroke: #000000; stroke-width: 0.6"/>
      </g>
     </g>
    </g>
    <g id="ytick_33">
     <g id="line2d_60">
      <path d="M 41.958125 97.825909 
L 992.308887 97.825909 
" clip-path="url(#p158a495ac2)" style="fill: none; stroke: #dedede; stroke-linecap: square"/>
     </g>
     <g id="line2d_61">
      <g>
       <use xlink:href="#mf8c9416c8c" x="41.958125" y="97.825909" style="stroke: #000000; stroke-width: 0.6"/>
      </g>
     </g>
    </g>
    <g id="ytick_34">
     <g id="line2d_62">
      <path d="M 41.958125 89.016567 
L 992.308887 89.016567 
" clip-path="url(#p158a495ac2)" style="fill: none; stroke: #dedede; stroke-linecap: square"/>
     </g>
     <g id="line2d_63">
      <g>
       <use xlink:href="#mf8c9416c8c" x="41.958125" y="89.016567" style="stroke: #000000; stroke-width: 0.6"/>
      </g>
     </g>
    </g>
    <g id="ytick_35">
     <g id="line2d_64">
      <path d="M 41.958125 82.766239 
L 992.308887 82.766239 
" clip-path="url(#p158a495ac2)" style="fill: none; stroke: #dedede; stroke-linecap: square"/>
     </g>
     <g id="line2d_65">
      <g>
       <use xlink:href="#mf8c9416c8c" x="41.958125" y="82.766239" style="stroke: #000000; stroke-width: 0.6"/>
      </g>
     </g>
    </g>
    <g id="ytick_36">
     <g id="line2d_66">
      <path d="M 41.958125 77.918108 
L 992.308887 77.918108 
" clip-path="url(#p158a495ac2)" style="fill: none; stroke: #dedede; stroke-linecap: square"/>
     </g>
     <g id="line2d_67">
      <g>
       <use xlink:href="#mf8c9416c8c" x="41.958125" y="77.918108" style="stroke: #000000; stroke-width: 0.6"/>
      </g>
     </g>
    </g>
    <g id="ytick_37">
     <g id="line2d_68">
      <path d="M 41.958125 73.956896 
L 992.308887 73.956896 
" clip-path="url(#p158a495ac2)" style="fill: none; stroke: #dedede; stroke-linecap: square"/>
     </g>
     <g id="line2d_69">
      <g>
       <use xlink:href="#mf8c9416c8c" x="41.958125" y="73.956896" style="stroke: #000000; stroke-width: 0.6"/>
      </g>
     </g>
    </g>
    <g id="ytick_38">
     <g id="line2d_70">
      <path d="M 41.958125 70.60774 
L 992.308887 70.60774 
" clip-path="url(#p158a495ac2)" style="fill: none; stroke: #dedede; stroke-linecap: square"/>
     </g>
     <g id="line2d_71">
      <g>
       <use xlink:href="#mf8c9416c8c" x="41.958125" y="70.60774" style="stroke: #000000; stroke-width: 0.6"/>
      </g>
     </g>
    </g>
    <g id="ytick_39">
     <g id="line2d_72">
      <path d="M 41.958125 67.706568 
L 992.308887 67.706568 
" clip-path="url(#p158a495ac2)" style="fill: none; stroke: #dedede; stroke-linecap: square"/>
     </g>
     <g id="line2d_73">
      <g>
       <use xlink:href="#mf8c9416c8c" x="41.958125" y="67.706568" style="stroke: #000000; stroke-width: 0.6"/>
      </g>
     </g>
    </g>
    <g id="ytick_40">
     <g id="line2d_74">
      <path d="M 41.958125 65.147554 
L 992.308887 65.147554 
" clip-path="url(#p158a495ac2)" style="fill: none; stroke: #dedede; stroke-linecap: square"/>
     </g>
     <g id="line2d_75">
      <g>
       <use xlink:href="#mf8c9416c8c" x="41.958125" y="65.147554" style="stroke: #000000; stroke-width: 0.6"/>
      </g>
     </g>
    </g>
    <g id="ytick_41">
     <g id="line2d_76">
      <path d="M 41.958125 47.798767 
L 992.308887 47.798767 
" clip-path="url(#p158a495ac2)" style="fill: none; stroke: #dedede; stroke-linecap: square"/>
     </g>
     <g id="line2d_77">
      <g>
       <use xlink:href="#mf8c9416c8c" x="41.958125" y="47.798767" style="stroke: #000000; stroke-width: 0.6"/>
      </g>
     </g>
    </g>
    <g id="ytick_42">
     <g id="line2d_78">
      <path d="M 41.958125 38.989425 
L 992.308887 38.989425 
" clip-path="url(#p158a495ac2)" style="fill: none; stroke: #dedede; stroke-linecap: square"/>
     </g>
     <g id="line2d_79">
      <g>
       <use xlink:href="#mf8c9416c8c" x="41.958125" y="38.989425" style="stroke: #000000; stroke-width: 0.6"/>
      </g>
     </g>
    </g>
    <g id="ytick_43">
     <g id="line2d_80">
      <path d="M 41.958125 32.739097 
L 992.308887 32.739097 
" clip-path="url(#p158a495ac2)" style="fill: none; stroke: #dedede; stroke-linecap: square"/>
     </g>
     <g id="line2d_81">
      <g>
       <use xlink:href="#mf8c9416c8c" x="41.958125" y="32.739097" style="stroke: #000000; stroke-width: 0.6"/>
      </g>
     </g>
    </g>
    <g id="text_13">
     <!-- Number of Reads (log10) -->
     <g transform="translate(14.798438 215.464585) rotate(-90) scale(0.1 -0.1)">
      <defs>
       <path id="DejaVuSans-4e" d="M 628 4666 
L 1478 4666 
L 3547 763 
L 3547 4666 
L 4159 4666 
L 4159 0 
L 3309 0 
L 1241 3903 
L 1241 0 
L 628 0 
L 628 4666 
z
" transform="scale(0.015625)"/>
       <path id="DejaVuSans-6d" d="M 3328 2828 
Q 3544 3216 3844 3400 
Q 4144 3584 4550 3584 
Q 5097 3584 5394 3201 
Q 5691 2819 5691 2113 
L 5691 0 
L 5113 0 
L 5113 2094 
Q 5113 2597 4934 2840 
Q 4756 3084 4391 3084 
Q 3944 3084 3684 2787 
Q 3425 2491 3425 1978 
L 3425 0 
L 2847 0 
L 2847 2094 
Q 2847 2600 2669 2842 
Q 2491 3084 2119 3084 
Q 1678 3084 1418 2786 
Q 1159 2488 1159 1978 
L 1159 0 
L 581 0 
L 581 3500 
L 1159 3500 
L 1159 2956 
Q 1356 3278 1631 3431 
Q 1906 3584 2284 3584 
Q 2666 3584 2933 3390 
Q 3200 3197 3328 2828 
z
" transform="scale(0.015625)"/>
       <path id="DejaVuSans-62" d="M 3116 1747 
Q 3116 2381 2855 2742 
Q 2594 3103 2138 3103 
Q 1681 3103 1420 2742 
Q 1159 2381 1159 1747 
Q 1159 1113 1420 752 
Q 1681 391 2138 391 
Q 2594 391 2855 752 
Q 3116 1113 3116 1747 
z
M 1159 2969 
Q 1341 3281 1617 3432 
Q 1894 3584 2278 3584 
Q 2916 3584 3314 3078 
Q 3713 2572 3713 1747 
Q 3713 922 3314 415 
Q 2916 -91 2278 -91 
Q 1894 -91 1617 61 
Q 1341 213 1159 525 
L 1159 0 
L 581 0 
L 581 4863 
L 1159 4863 
L 1159 2969 
z
" transform="scale(0.015625)"/>
       <path id="DejaVuSans-52" d="M 2841 2188 
Q 3044 2119 3236 1894 
Q 3428 1669 3622 1275 
L 4263 0 
L 3584 0 
L 2988 1197 
Q 2756 1666 2539 1819 
Q 2322 1972 1947 1972 
L 1259 1972 
L 1259 0 
L 628 0 
L 628 4666 
L 2053 4666 
Q 2853 4666 3247 4331 
Q 3641 3997 3641 3322 
Q 3641 2881 3436 2590 
Q 3231 2300 2841 2188 
z
M 1259 4147 
L 1259 2491 
L 2053 2491 
Q 2509 2491 2742 2702 
Q 2975 2913 2975 3322 
Q 2975 3731 2742 3939 
Q 2509 4147 2053 4147 
L 1259 4147 
z
" transform="scale(0.015625)"/>
       <path id="DejaVuSans-73" d="M 2834 3397 
L 2834 2853 
Q 2591 2978 2328 3040 
Q 2066 3103 1784 3103 
Q 1356 3103 1142 2972 
Q 928 2841 928 2578 
Q 928 2378 1081 2264 
Q 1234 2150 1697 2047 
L 1894 2003 
Q 2506 1872 2764 1633 
Q 3022 1394 3022 966 
Q 3022 478 2636 193 
Q 2250 -91 1575 -91 
Q 1294 -91 989 -36 
Q 684 19 347 128 
L 347 722 
Q 666 556 975 473 
Q 1284 391 1588 391 
Q 1994 391 2212 530 
Q 2431 669 2431 922 
Q 2431 1156 2273 1281 
Q 2116 1406 1581 1522 
L 1381 1569 
Q 847 1681 609 1914 
Q 372 2147 372 2553 
Q 372 3047 722 3315 
Q 1072 3584 1716 3584 
Q 2034 3584 2315 3537 
Q 2597 3491 2834 3397 
z
" transform="scale(0.015625)"/>
       <path id="DejaVuSans-28" d="M 1984 4856 
Q 1566 4138 1362 3434 
Q 1159 2731 1159 2009 
Q 1159 1288 1364 580 
Q 1569 -128 1984 -844 
L 1484 -844 
Q 1016 -109 783 600 
Q 550 1309 550 2009 
Q 550 2706 781 3412 
Q 1013 4119 1484 4856 
L 1984 4856 
z
" transform="scale(0.015625)"/>
       <path id="DejaVuSans-6c" d="M 603 4863 
L 1178 4863 
L 1178 0 
L 603 0 
L 603 4863 
z
" transform="scale(0.015625)"/>
       <path id="DejaVuSans-67" d="M 2906 1791 
Q 2906 2416 2648 2759 
Q 2391 3103 1925 3103 
Q 1463 3103 1205 2759 
Q 947 2416 947 1791 
Q 947 1169 1205 825 
Q 1463 481 1925 481 
Q 2391 481 2648 825 
Q 2906 1169 2906 1791 
z
M 3481 434 
Q 3481 -459 3084 -895 
Q 2688 -1331 1869 -1331 
Q 1566 -1331 1297 -1286 
Q 1028 -1241 775 -1147 
L 775 -588 
Q 1028 -725 1275 -790 
Q 1522 -856 1778 -856 
Q 2344 -856 2625 -561 
Q 2906 -266 2906 331 
L 2906 616 
Q 2728 306 2450 153 
Q 2172 0 1784 0 
Q 1141 0 747 490 
Q 353 981 353 1791 
Q 353 2603 747 3093 
Q 1141 3584 1784 3584 
Q 2172 3584 2450 3431 
Q 2728 3278 2906 2969 
L 2906 3500 
L 3481 3500 
L 3481 434 
z
" transform="scale(0.015625)"/>
       <path id="DejaVuSans-29" d="M 513 4856 
L 1013 4856 
Q 1481 4119 1714 3412 
Q 1947 2706 1947 2009 
Q 1947 1309 1714 600 
Q 1481 -109 1013 -844 
L 513 -844 
Q 928 -128 1133 580 
Q 1338 1288 1338 2009 
Q 1338 2731 1133 3434 
Q 928 4138 513 4856 
z
" transform="scale(0.015625)"/>
      </defs>
      <use xlink:href="#DejaVuSans-4e"/>
      <use xlink:href="#DejaVuSans-75" x="74.804688"/>
      <use xlink:href="#DejaVuSans-6d" x="138.183594"/>
      <use xlink:href="#DejaVuSans-62" x="235.595703"/>
      <use xlink:href="#DejaVuSans-65" x="299.072266"/>
      <use xlink:href="#DejaVuSans-72" x="360.595703"/>
      <use xlink:href="#DejaVuSans-20" x="401.708984"/>
      <use xlink:href="#DejaVuSans-6f" x="433.496094"/>
      <use xlink:href="#DejaVuSans-66" x="494.677734"/>
      <use xlink:href="#DejaVuSans-20" x="529.882812"/>
      <use xlink:href="#DejaVuSans-52" x="561.669922"/>
      <use xlink:href="#DejaVuSans-65" x="626.652344"/>
      <use xlink:href="#DejaVuSans-61" x="688.175781"/>
      <use xlink:href="#DejaVuSans-64" x="749.455078"/>
      <use xlink:href="#DejaVuSans-73" x="812.931641"/>
      <use xlink:href="#DejaVuSans-20" x="865.03125"/>
      <use xlink:href="#DejaVuSans-28" x="896.818359"/>
      <use xlink:href="#DejaVuSans-6c" x="935.832031"/>
      <use xlink:href="#DejaVuSans-6f" x="963.615234"/>
      <use xlink:href="#DejaVuSans-67" x="1024.796875"/>
      <use xlink:href="#DejaVuSans-31" x="1088.273438"/>
      <use xlink:href="#DejaVuSans-30" x="1151.896484"/>
      <use xlink:href="#DejaVuSans-29" x="1215.519531"/>
     </g>
    </g>
   </g>
   <g id="line2d_82">
    <path d="M 85.155887 48.803692 
L 88.625587 95.324909 
L 92.095286 121.651512 
L 95.564986 139.780271 
L 97.299836 147.316567 
L 100.769536 157.719718 
L 104.239236 166.961013 
L 107.708935 170.353841 
L 111.178635 177.54215 
L 114.648335 183.934947 
L 118.118035 187.668654 
L 119.852884 180.261508 
L 123.322584 183.37059 
L 126.792284 187.000093 
L 130.261984 193.918982 
L 133.731683 189.807413 
L 137.201383 194.843654 
L 142.405933 197.880193 
L 145.875633 193.918982 
L 149.345332 201.411163 
L 152.815032 200.16931 
L 156.284732 194.843654 
L 159.754432 198.994617 
L 163.224131 193.918982 
L 164.958981 202.728324 
L 168.428681 201.411163 
L 171.898381 193.918982 
L 175.36808 201.411163 
L 178.83778 200.16931 
L 182.30748 204.130521 
L 184.04233 197.880193 
L 187.51203 198.994617 
L 190.981729 201.411163 
L 194.451429 217.787994 
L 197.921129 205.629495 
L 201.390829 205.629495 
L 204.860528 202.728324 
L 206.595378 205.629495 
L 210.065078 200.16931 
L 213.534778 217.787994 
L 217.004478 200.16931 
L 220.474177 208.978652 
L 223.943877 205.629495 
L 227.413577 204.130521 
L 229.148427 205.629495 
L 232.618126 196.820153 
L 236.087826 208.978652 
L 239.557526 215.22898 
L 243.027226 205.629495 
L 246.496925 210.869106 
L 249.966625 215.22898 
L 251.701475 208.978652 
L 255.171175 212.939863 
L 258.640875 208.978652 
L 262.110574 217.787994 
L 265.580274 217.787994 
L 269.049974 220.689166 
L 272.519674 212.939863 
L 274.254523 215.22898 
L 277.724223 208.978652 
L 281.193923 210.869106 
L 284.663623 217.787994 
L 288.133322 212.939863 
L 291.603022 210.869106 
L 295.072722 227.999534 
L 296.807572 207.239603 
L 300.277272 207.239603 
L 303.746971 239.097993 
L 307.216671 220.689166 
L 310.686371 215.22898 
L 314.156071 227.999534 
L 317.62577 220.689166 
L 319.36062 224.038322 
L 322.83032 212.939863 
L 326.30002 227.999534 
L 329.769719 220.689166 
L 333.239419 202.728324 
L 336.709119 220.689166 
L 338.443969 232.847665 
L 341.913669 217.787994 
L 345.383368 212.939863 
L 348.853068 220.689166 
L 352.322768 220.689166 
L 355.792468 227.999534 
L 359.262167 232.847665 
L 360.997017 227.999534 
L 367.936417 227.999534 
L 371.406117 232.847665 
L 374.875816 232.847665 
L 378.345516 239.097993 
L 381.815216 247.907335 
L 383.550066 232.847665 
L 387.019765 217.787994 
L 390.489465 224.038322 
L 393.959165 217.787994 
L 397.428865 227.999534 
L 400.898564 247.907335 
L 404.368264 247.907335 
L 406.103114 227.999534 
L 413.042514 227.999534 
L 416.512213 239.097993 
L 419.981913 247.907335 
L 423.451613 247.907335 
L 426.921313 224.038322 
L 428.656162 247.907335 
L 432.125862 247.907335 
L 435.595562 227.999534 
L 439.065262 247.907335 
L 442.534961 227.999534 
L 446.004661 247.907335 
L 449.474361 232.847665 
L 451.209211 247.907335 
L 454.678911 247.907335 
L 458.14861 239.097993 
L 461.61831 247.907335 
L 465.08801 247.907335 
L 468.55771 224.038322 
L 472.027409 239.097993 
L 473.762259 247.907335 
L 477.231959 239.097993 
L 480.701659 247.907335 
L 487.641058 247.907335 
L 491.110758 239.097993 
L 492.845608 239.097993 
L 496.315308 247.907335 
L 499.785007 247.907335 
L 503.254707 239.097993 
L 506.724407 247.907335 
L 510.194107 239.097993 
L 513.663806 262.967005 
L 515.398656 224.038322 
L 518.868356 262.967005 
L 522.338056 262.967005 
L 527.542605 239.097993 
L 532.747155 239.097993 
L 536.216855 262.967005 
L 543.156254 262.967005 
L 544.891104 247.907335 
L 551.830504 239.097993 
L 555.300203 227.999534 
L 558.769903 247.907335 
L 567.444153 247.907335 
L 574.383552 262.967005 
L 576.118402 262.967005 
L 579.588102 239.097993 
L 584.792651 262.967005 
L 589.997201 247.907335 
L 596.9366 247.907335 
L 600.4063 239.097993 
L 607.3457 247.907335 
L 609.08055 262.967005 
L 626.429048 262.967005 
L 635.103298 247.907335 
L 638.572998 262.967005 
L 645.512397 262.967005 
L 648.982097 247.907335 
L 655.921496 262.967005 
L 721.845792 262.967005 
L 730.520041 247.907335 
L 733.989741 262.967005 
L 845.020133 262.967005 
L 855.429232 239.097993 
L 858.898932 262.967005 
L 947.376276 262.967005 
L 947.376276 262.967005 
" clip-path="url(#p158a495ac2)" style="fill: none; stroke: #7cb5ec; stroke-linecap: square"/>
   </g>
   <g id="line2d_83">
    <path d="M 85.155887 42.505915 
L 88.625587 77.861692 
L 90.360437 87.519524 
L 93.830136 103.802763 
L 95.564986 109.051477 
L 99.034686 121.814747 
L 102.504386 128.786953 
L 104.239236 130.970929 
L 107.708935 139.85532 
L 109.443785 141.494361 
L 112.913485 144.534955 
L 116.383185 154.542313 
L 118.118035 156.072982 
L 121.587734 159.31667 
L 123.322584 162.482479 
L 126.792284 166.443691 
L 130.261984 166.700812 
L 131.996834 171.940423 
L 135.466533 169.454685 
L 137.201383 170.049969 
L 140.671083 177.972392 
L 144.140783 181.249247 
L 145.875633 179.783983 
L 149.345332 175.510155 
L 151.080182 182.284038 
L 154.549882 180.749765 
L 158.019582 194.843654 
L 159.754432 189.070851 
L 163.224131 193.918982 
L 164.958981 187.668654 
L 168.428681 188.358442 
L 171.898381 196.820153 
L 173.633231 190.569825 
L 177.10293 195.809435 
L 178.83778 195.809435 
L 182.30748 197.880193 
L 185.77718 193.032062 
L 187.51203 204.130521 
L 190.981729 200.16931 
L 192.716579 200.16931 
L 196.186279 208.978652 
L 199.655979 207.239603 
L 201.390829 201.411163 
L 204.860528 208.978652 
L 206.595378 201.411163 
L 210.065078 208.978652 
L 213.534778 217.787994 
L 215.269628 207.239603 
L 218.739327 205.629495 
L 220.474177 204.130521 
L 223.943877 208.978652 
L 225.678727 212.939863 
L 229.148427 207.239603 
L 232.618126 202.728324 
L 234.352976 208.978652 
L 237.822676 210.869106 
L 239.557526 217.787994 
L 243.027226 224.038322 
L 246.496925 220.689166 
L 248.231775 224.038322 
L 251.701475 220.689166 
L 253.436325 217.787994 
L 256.906025 212.939863 
L 260.375724 217.787994 
L 262.110574 239.097993 
L 265.580274 227.999534 
L 267.315124 232.847665 
L 270.784824 224.038322 
L 274.254523 220.689166 
L 275.989373 217.787994 
L 279.459073 217.787994 
L 281.193923 224.038322 
L 284.663623 227.999534 
L 289.868172 224.038322 
L 291.603022 224.038322 
L 295.072722 239.097993 
L 300.277272 239.097993 
L 303.746971 232.847665 
L 305.481821 212.939863 
L 308.951521 239.097993 
L 310.686371 239.097993 
L 314.156071 232.847665 
L 317.62577 224.038322 
L 319.36062 227.999534 
L 322.83032 220.689166 
L 324.56517 217.787994 
L 328.03487 247.907335 
L 331.504569 239.097993 
L 333.239419 247.907335 
L 336.709119 247.907335 
L 338.443969 224.038322 
L 341.913669 262.967005 
L 345.383368 247.907335 
L 347.118218 227.999534 
L 350.587918 232.847665 
L 352.322768 239.097993 
L 355.792468 224.038322 
L 359.262167 262.967005 
L 360.997017 262.967005 
L 364.466717 232.847665 
L 366.201567 224.038322 
L 369.671267 247.907335 
L 380.080366 247.907335 
L 381.815216 232.847665 
L 385.284916 247.907335 
L 392.224315 247.907335 
L 395.694015 227.999534 
L 397.428865 232.847665 
L 400.898564 262.967005 
L 406.103114 262.967005 
L 407.837964 247.907335 
L 413.042514 262.967005 
L 423.451613 262.967005 
L 425.186463 239.097993 
L 428.656162 232.847665 
L 430.391012 247.907335 
L 437.330412 239.097993 
L 440.800112 262.967005 
L 442.534961 247.907335 
L 447.739511 262.967005 
L 449.474361 247.907335 
L 465.08801 247.907335 
L 468.55771 262.967005 
L 470.292559 262.967005 
L 475.497109 247.907335 
L 482.436509 262.967005 
L 492.845608 262.967005 
L 496.315308 239.097993 
L 499.785007 262.967005 
L 522.338056 262.967005 
L 527.542605 247.907335 
L 532.747155 247.907335 
L 536.216855 262.967005 
L 539.686555 262.967005 
L 544.891104 247.907335 
L 548.360804 262.967005 
L 557.035053 262.967005 
L 562.239603 247.907335 
L 563.974453 262.967005 
L 572.648702 262.967005 
L 576.118402 247.907335 
L 577.853252 262.967005 
L 583.057801 262.967005 
L 588.262351 247.907335 
L 596.9366 262.967005 
L 624.694198 262.967005 
L 631.633598 247.907335 
L 636.838148 239.097993 
L 640.307847 247.907335 
L 643.777547 262.967005 
L 659.391196 262.967005 
L 662.860896 247.907335 
L 673.269995 239.097993 
L 676.739695 247.907335 
L 697.557893 262.967005 
L 714.906392 239.097993 
L 716.641242 262.967005 
L 775.626138 262.967005 
L 782.565537 247.907335 
L 784.300387 262.967005 
L 936.967176 262.967005 
L 936.967176 262.967005 
" clip-path="url(#p158a495ac2)" style="fill: none; stroke: #434348; stroke-linecap: square"/>
   </g>
   <g id="line2d_84">
    <path d="M 85.155887 49.676584 
L 88.625587 97.545285 
L 92.095286 126.434691 
L 95.564986 143.982556 
L 99.034686 158.771206 
L 102.504386 161.852681 
L 104.239236 165.690095 
L 107.708935 174.01118 
L 111.178635 174.37634 
L 114.648335 185.109639 
L 118.118035 191.359967 
L 125.057434 188.358442 
L 128.527134 195.809435 
L 131.996834 192.179933 
L 135.466533 197.880193 
L 138.936233 198.994617 
L 142.405933 191.359967 
L 144.140783 205.629495 
L 147.610482 196.820153 
L 151.080182 200.16931 
L 154.549882 201.411163 
L 158.019582 201.411163 
L 161.489281 197.880193 
L 164.958981 210.869106 
L 168.428681 208.978652 
L 171.898381 224.038322 
L 175.36808 205.629495 
L 178.83778 215.22898 
L 182.30748 200.16931 
L 184.04233 208.978652 
L 187.51203 205.629495 
L 190.981729 201.411163 
L 194.451429 204.130521 
L 197.921129 207.239603 
L 201.390829 200.16931 
L 204.860528 201.411163 
L 208.330228 217.787994 
L 211.799928 212.939863 
L 215.269628 217.787994 
L 218.739327 195.809435 
L 220.474177 207.239603 
L 223.943877 204.130521 
L 227.413577 212.939863 
L 230.883277 201.411163 
L 234.352976 212.939863 
L 237.822676 205.629495 
L 241.292376 212.939863 
L 244.762076 210.869106 
L 248.231775 215.22898 
L 251.701475 227.999534 
L 255.171175 215.22898 
L 258.640875 232.847665 
L 260.375724 198.994617 
L 263.845424 215.22898 
L 267.315124 220.689166 
L 270.784824 217.787994 
L 274.254523 220.689166 
L 277.724223 210.869106 
L 281.193923 210.869106 
L 284.663623 217.787994 
L 288.133322 208.978652 
L 291.603022 215.22898 
L 295.072722 232.847665 
L 298.542422 208.978652 
L 300.277272 205.629495 
L 303.746971 224.038322 
L 307.216671 215.22898 
L 310.686371 217.787994 
L 314.156071 210.869106 
L 317.62577 210.869106 
L 321.09547 247.907335 
L 324.56517 220.689166 
L 328.03487 215.22898 
L 331.504569 232.847665 
L 334.974269 232.847665 
L 338.443969 239.097993 
L 340.178819 210.869106 
L 343.648519 217.787994 
L 347.118218 220.689166 
L 350.587918 232.847665 
L 354.057618 220.689166 
L 357.527318 247.907335 
L 360.997017 227.999534 
L 364.466717 220.689166 
L 367.936417 220.689166 
L 371.406117 227.999534 
L 374.875816 239.097993 
L 376.610666 239.097993 
L 380.080366 215.22898 
L 383.550066 227.999534 
L 387.019765 217.787994 
L 390.489465 227.999534 
L 393.959165 227.999534 
L 397.428865 224.038322 
L 400.898564 224.038322 
L 404.368264 232.847665 
L 407.837964 227.999534 
L 411.307664 232.847665 
L 414.777363 239.097993 
L 416.512213 224.038322 
L 419.981913 227.999534 
L 423.451613 232.847665 
L 426.921313 227.999534 
L 430.391012 239.097993 
L 433.860712 220.689166 
L 437.330412 262.967005 
L 444.269811 232.847665 
L 447.739511 220.689166 
L 452.944061 239.097993 
L 458.14861 247.907335 
L 459.88346 232.847665 
L 463.35316 224.038322 
L 466.82286 232.847665 
L 470.292559 247.907335 
L 473.762259 239.097993 
L 477.231959 239.097993 
L 480.701659 262.967005 
L 484.171359 232.847665 
L 491.110758 232.847665 
L 494.580458 217.787994 
L 496.315308 239.097993 
L 499.785007 217.787994 
L 504.989557 262.967005 
L 508.459257 262.967005 
L 511.928957 224.038322 
L 517.133506 247.907335 
L 522.338056 262.967005 
L 525.807756 227.999534 
L 529.277455 232.847665 
L 532.747155 247.907335 
L 536.216855 247.907335 
L 539.686555 262.967005 
L 541.421404 232.847665 
L 544.891104 239.097993 
L 548.360804 232.847665 
L 551.830504 247.907335 
L 557.035053 239.097993 
L 560.504753 239.097993 
L 567.444153 262.967005 
L 570.913852 247.907335 
L 574.383552 262.967005 
L 577.853252 247.907335 
L 584.792651 227.999534 
L 588.262351 262.967005 
L 591.732051 262.967005 
L 596.9366 239.097993 
L 600.4063 247.907335 
L 609.08055 247.907335 
L 612.550249 239.097993 
L 616.019949 262.967005 
L 621.224499 247.907335 
L 624.694198 262.967005 
L 631.633598 262.967005 
L 640.307847 247.907335 
L 642.042697 239.097993 
L 645.512397 232.847665 
L 652.451797 262.967005 
L 683.679094 262.967005 
L 687.148794 232.847665 
L 688.883644 239.097993 
L 692.353344 247.907335 
L 697.557893 247.907335 
L 702.762443 262.967005 
L 707.966993 247.907335 
L 732.254891 247.907335 
L 737.45944 262.967005 
L 747.86854 262.967005 
L 754.807939 247.907335 
L 768.686738 262.967005 
L 775.626138 262.967005 
L 779.095837 247.907335 
L 789.504937 262.967005 
L 794.709486 262.967005 
L 799.914036 239.097993 
L 812.057985 262.967005 
L 820.732235 262.967005 
L 824.201934 247.907335 
L 832.876184 262.967005 
L 898.800479 262.967005 
L 926.558077 247.907335 
L 940.436876 262.967005 
L 949.111125 262.967005 
L 949.111125 262.967005 
" clip-path="url(#p158a495ac2)" style="fill: none; stroke: #90ed7d; stroke-linecap: square"/>
   </g>
   <g id="line2d_85">
    <path d="M 85.155887 47.033508 
L 86.890737 69.324198 
L 90.360437 94.156333 
L 92.095286 103.112974 
L 93.830136 110.462174 
L 97.299836 123.062384 
L 99.034686 128.473045 
L 100.769536 131.527401 
L 104.239236 142.8318 
L 105.974085 142.404939 
L 107.708935 151.129906 
L 111.178635 154.690618 
L 112.913485 156.880752 
L 114.648335 155.294171 
L 118.118035 161.040381 
L 119.852884 162.482479 
L 121.587734 162.912721 
L 126.792284 175.125605 
L 128.527134 177.120262 
L 130.261984 175.510155 
L 133.731683 178.859311 
L 135.466533 174.37634 
L 137.201383 176.300297 
L 140.671083 185.109639 
L 142.405933 182.820523 
L 144.140783 185.109639 
L 147.610482 188.358442 
L 151.080182 185.721694 
L 154.549882 194.843654 
L 156.284732 187.000093 
L 158.019582 195.809435 
L 161.489281 198.994617 
L 163.224131 192.179933 
L 164.958981 195.809435 
L 168.428681 193.032062 
L 170.163531 202.728324 
L 171.898381 201.411163 
L 175.36808 189.807413 
L 177.10293 207.239603 
L 178.83778 204.130521 
L 182.30748 212.939863 
L 184.04233 204.130521 
L 185.77718 207.239603 
L 187.51203 224.038322 
L 190.981729 205.629495 
L 192.716579 212.939863 
L 194.451429 210.869106 
L 197.921129 212.939863 
L 199.655979 207.239603 
L 201.390829 208.978652 
L 204.860528 217.787994 
L 206.595378 208.978652 
L 208.330228 208.978652 
L 211.799928 220.689166 
L 213.534778 212.939863 
L 215.269628 224.038322 
L 218.739327 232.847665 
L 220.474177 212.939863 
L 222.209027 220.689166 
L 225.678727 208.978652 
L 227.413577 215.22898 
L 229.148427 239.097993 
L 232.618126 220.689166 
L 234.352976 217.787994 
L 236.087826 227.999534 
L 239.557526 227.999534 
L 241.292376 239.097993 
L 243.027226 262.967005 
L 246.496925 232.847665 
L 248.231775 220.689166 
L 249.966625 232.847665 
L 251.701475 227.999534 
L 255.171175 232.847665 
L 256.906025 224.038322 
L 258.640875 239.097993 
L 262.110574 239.097993 
L 263.845424 262.967005 
L 265.580274 239.097993 
L 269.049974 227.999534 
L 270.784824 262.967005 
L 272.519674 232.847665 
L 275.989373 220.689166 
L 277.724223 247.907335 
L 279.459073 239.097993 
L 282.928773 224.038322 
L 284.663623 239.097993 
L 286.398473 247.907335 
L 289.868172 239.097993 
L 291.603022 262.967005 
L 295.072722 247.907335 
L 298.542422 239.097993 
L 300.277272 224.038322 
L 302.012121 217.787994 
L 305.481821 262.967005 
L 307.216671 247.907335 
L 308.951521 224.038322 
L 312.421221 247.907335 
L 314.156071 232.847665 
L 315.89092 232.847665 
L 317.62577 262.967005 
L 321.09547 247.907335 
L 324.56517 247.907335 
L 326.30002 232.847665 
L 329.769719 239.097993 
L 331.504569 262.967005 
L 333.239419 239.097993 
L 338.443969 262.967005 
L 341.913669 232.847665 
L 347.118218 224.038322 
L 348.853068 247.907335 
L 350.587918 247.907335 
L 354.057618 262.967005 
L 355.792468 247.907335 
L 357.527318 262.967005 
L 360.997017 262.967005 
L 364.466717 247.907335 
L 366.201567 227.999534 
L 369.671267 262.967005 
L 373.140966 262.967005 
L 374.875816 247.907335 
L 380.080366 262.967005 
L 385.284916 262.967005 
L 390.489465 247.907335 
L 392.224315 247.907335 
L 395.694015 262.967005 
L 406.103114 262.967005 
L 407.837964 239.097993 
L 414.777363 247.907335 
L 416.512213 262.967005 
L 418.247063 247.907335 
L 428.656162 247.907335 
L 430.391012 262.967005 
L 432.125862 247.907335 
L 437.330412 262.967005 
L 440.800112 239.097993 
L 442.534961 232.847665 
L 446.004661 247.907335 
L 447.739511 247.907335 
L 449.474361 262.967005 
L 454.678911 247.907335 
L 473.762259 247.907335 
L 475.497109 262.967005 
L 501.519857 262.967005 
L 503.254707 247.907335 
L 510.194107 262.967005 
L 520.603206 262.967005 
L 537.951705 239.097993 
L 539.686555 262.967005 
L 645.512397 262.967005 
L 650.716947 247.907335 
L 655.921496 262.967005 
L 680.209395 262.967005 
L 690.618494 247.907335 
L 692.353344 262.967005 
L 931.762627 262.967005 
L 931.762627 262.967005 
" clip-path="url(#p158a495ac2)" style="fill: none; stroke: #f7a35c; stroke-linecap: square"/>
   </g>
   <g id="line2d_86">
    <path clip-path="url(#p158a495ac2)" style="fill: none; stroke: #dedede; stroke-width: 2; stroke-linecap: square"/>
   </g>
   <g id="text_14">
    <!-- RSeQC: Read Duplication -->
    <g transform="translate(416.428506 19.3575) scale(0.16 -0.16)">
     <defs>
      <path id="DejaVuSans-53" d="M 3425 4513 
L 3425 3897 
Q 3066 4069 2747 4153 
Q 2428 4238 2131 4238 
Q 1616 4238 1336 4038 
Q 1056 3838 1056 3469 
Q 1056 3159 1242 3001 
Q 1428 2844 1947 2747 
L 2328 2669 
Q 3034 2534 3370 2195 
Q 3706 1856 3706 1288 
Q 3706 609 3251 259 
Q 2797 -91 1919 -91 
Q 1588 -91 1214 -16 
Q 841 59 441 206 
L 441 856 
Q 825 641 1194 531 
Q 1563 422 1919 422 
Q 2459 422 2753 634 
Q 3047 847 3047 1241 
Q 3047 1584 2836 1778 
Q 2625 1972 2144 2069 
L 1759 2144 
Q 1053 2284 737 2584 
Q 422 2884 422 3419 
Q 422 4038 858 4394 
Q 1294 4750 2059 4750 
Q 2388 4750 2728 4690 
Q 3069 4631 3425 4513 
z
" transform="scale(0.015625)"/>
      <path id="DejaVuSans-51" d="M 2522 4238 
Q 1834 4238 1429 3725 
Q 1025 3213 1025 2328 
Q 1025 1447 1429 934 
Q 1834 422 2522 422 
Q 3209 422 3611 934 
Q 4013 1447 4013 2328 
Q 4013 3213 3611 3725 
Q 3209 4238 2522 4238 
z
M 3406 84 
L 4238 -825 
L 3475 -825 
L 2784 -78 
Q 2681 -84 2626 -87 
Q 2572 -91 2522 -91 
Q 1538 -91 948 567 
Q 359 1225 359 2328 
Q 359 3434 948 4092 
Q 1538 4750 2522 4750 
Q 3503 4750 4090 4092 
Q 4678 3434 4678 2328 
Q 4678 1516 4351 937 
Q 4025 359 3406 84 
z
" transform="scale(0.015625)"/>
      <path id="DejaVuSans-43" d="M 4122 4306 
L 4122 3641 
Q 3803 3938 3442 4084 
Q 3081 4231 2675 4231 
Q 1875 4231 1450 3742 
Q 1025 3253 1025 2328 
Q 1025 1406 1450 917 
Q 1875 428 2675 428 
Q 3081 428 3442 575 
Q 3803 722 4122 1019 
L 4122 359 
Q 3791 134 3420 21 
Q 3050 -91 2638 -91 
Q 1578 -91 968 557 
Q 359 1206 359 2328 
Q 359 3453 968 4101 
Q 1578 4750 2638 4750 
Q 3056 4750 3426 4639 
Q 3797 4528 4122 4306 
z
" transform="scale(0.015625)"/>
      <path id="DejaVuSans-3a" d="M 750 794 
L 1409 794 
L 1409 0 
L 750 0 
L 750 794 
z
M 750 3309 
L 1409 3309 
L 1409 2516 
L 750 2516 
L 750 3309 
z
" transform="scale(0.015625)"/>
      <path id="DejaVuSans-44" d="M 1259 4147 
L 1259 519 
L 2022 519 
Q 2988 519 3436 956 
Q 3884 1394 3884 2338 
Q 3884 3275 3436 3711 
Q 2988 4147 2022 4147 
L 1259 4147 
z
M 628 4666 
L 1925 4666 
Q 3281 4666 3915 4102 
Q 4550 3538 4550 2338 
Q 4550 1131 3912 565 
Q 3275 0 1925 0 
L 628 0 
L 628 4666 
z
" transform="scale(0.015625)"/>
      <path id="DejaVuSans-70" d="M 1159 525 
L 1159 -1331 
L 581 -1331 
L 581 3500 
L 1159 3500 
L 1159 2969 
Q 1341 3281 1617 3432 
Q 1894 3584 2278 3584 
Q 2916 3584 3314 3078 
Q 3713 2572 3713 1747 
Q 3713 922 3314 415 
Q 2916 -91 2278 -91 
Q 1894 -91 1617 61 
Q 1341 213 1159 525 
z
M 3116 1747 
Q 3116 2381 2855 2742 
Q 2594 3103 2138 3103 
Q 1681 3103 1420 2742 
Q 1159 2381 1159 1747 
Q 1159 1113 1420 752 
Q 1681 391 2138 391 
Q 2594 391 2855 752 
Q 3116 1113 3116 1747 
z
" transform="scale(0.015625)"/>
      <path id="DejaVuSans-69" d="M 603 3500 
L 1178 3500 
L 1178 0 
L 603 0 
L 603 3500 
z
M 603 4863 
L 1178 4863 
L 1178 4134 
L 603 4134 
L 603 4863 
z
" transform="scale(0.015625)"/>
      <path id="DejaVuSans-74" d="M 1172 4494 
L 1172 3500 
L 2356 3500 
L 2356 3053 
L 1172 3053 
L 1172 1153 
Q 1172 725 1289 603 
Q 1406 481 1766 481 
L 2356 481 
L 2356 0 
L 1766 0 
Q 1100 0 847 248 
Q 594 497 594 1153 
L 594 3053 
L 172 3053 
L 172 3500 
L 594 3500 
L 594 4494 
L 1172 4494 
z
" transform="scale(0.015625)"/>
     </defs>
     <use xlink:href="#DejaVuSans-52"/>
     <use xlink:href="#DejaVuSans-53" x="69.482422"/>
     <use xlink:href="#DejaVuSans-65" x="132.958984"/>
     <use xlink:href="#DejaVuSans-51" x="194.482422"/>
     <use xlink:href="#DejaVuSans-43" x="273.193359"/>
     <use xlink:href="#DejaVuSans-3a" x="343.017578"/>
     <use xlink:href="#DejaVuSans-20" x="376.708984"/>
     <use xlink:href="#DejaVuSans-52" x="408.496094"/>
     <use xlink:href="#DejaVuSans-65" x="473.478516"/>
     <use xlink:href="#DejaVuSans-61" x="535.001953"/>
     <use xlink:href="#DejaVuSans-64" x="596.28125"/>
     <use xlink:href="#DejaVuSans-20" x="659.757812"/>
     <use xlink:href="#DejaVuSans-44" x="691.544922"/>
     <use xlink:href="#DejaVuSans-75" x="768.546875"/>
     <use xlink:href="#DejaVuSans-70" x="831.925781"/>
     <use xlink:href="#DejaVuSans-6c" x="895.402344"/>
     <use xlink:href="#DejaVuSans-69" x="923.185547"/>
     <use xlink:href="#DejaVuSans-63" x="950.96875"/>
     <use xlink:href="#DejaVuSans-61" x="1005.949219"/>
     <use xlink:href="#DejaVuSans-74" x="1067.228516"/>
     <use xlink:href="#DejaVuSans-69" x="1106.4375"/>
     <use xlink:href="#DejaVuSans-6f" x="1134.220703"/>
     <use xlink:href="#DejaVuSans-6e" x="1195.402344"/>
    </g>
   </g>
   <g id="legend_1">
    <g id="line2d_87">
     <path d="M 49.158125 315.455394 
L 57.158125 315.455394 
L 65.158125 315.455394 
" style="fill: none; stroke: #7cb5ec; stroke-linecap: square"/>
    </g>
    <g id="text_15">
     <!-- CONTROL_REP1 -->
     <g transform="translate(71.558125 318.255394) scale(0.08 -0.08)">
      <defs>
       <path id="DejaVuSans-54" d="M -19 4666 
L 3928 4666 
L 3928 4134 
L 2272 4134 
L 2272 0 
L 1638 0 
L 1638 4134 
L -19 4134 
L -19 4666 
z
" transform="scale(0.015625)"/>
       <path id="DejaVuSans-4c" d="M 628 4666 
L 1259 4666 
L 1259 531 
L 3531 531 
L 3531 0 
L 628 0 
L 628 4666 
z
" transform="scale(0.015625)"/>
       <path id="DejaVuSans-5f" d="M 3263 -1063 
L 3263 -1509 
L -63 -1509 
L -63 -1063 
L 3263 -1063 
z
" transform="scale(0.015625)"/>
       <path id="DejaVuSans-45" d="M 628 4666 
L 3578 4666 
L 3578 4134 
L 1259 4134 
L 1259 2753 
L 3481 2753 
L 3481 2222 
L 1259 2222 
L 1259 531 
L 3634 531 
L 3634 0 
L 628 0 
L 628 4666 
z
" transform="scale(0.015625)"/>
       <path id="DejaVuSans-50" d="M 1259 4147 
L 1259 2394 
L 2053 2394 
Q 2494 2394 2734 2622 
Q 2975 2850 2975 3272 
Q 2975 3691 2734 3919 
Q 2494 4147 2053 4147 
L 1259 4147 
z
M 628 4666 
L 2053 4666 
Q 2838 4666 3239 4311 
Q 3641 3956 3641 3272 
Q 3641 2581 3239 2228 
Q 2838 1875 2053 1875 
L 1259 1875 
L 1259 0 
L 628 0 
L 628 4666 
z
" transform="scale(0.015625)"/>
      </defs>
      <use xlink:href="#DejaVuSans-43"/>
      <use xlink:href="#DejaVuSans-4f" x="69.824219"/>
      <use xlink:href="#DejaVuSans-4e" x="148.535156"/>
      <use xlink:href="#DejaVuSans-54" x="223.339844"/>
      <use xlink:href="#DejaVuSans-52" x="284.423828"/>
      <use xlink:href="#DejaVuSans-4f" x="353.90625"/>
      <use xlink:href="#DejaVuSans-4c" x="432.617188"/>
      <use xlink:href="#DejaVuSans-5f" x="488.330078"/>
      <use xlink:href="#DejaVuSans-52" x="538.330078"/>
      <use xlink:href="#DejaVuSans-45" x="607.8125"/>
      <use xlink:href="#DejaVuSans-50" x="670.996094"/>
      <use xlink:href="#DejaVuSans-31" x="731.298828"/>
     </g>
    </g>
    <g id="line2d_88">
     <path d="M 332.476296 315.455394 
L 340.476296 315.455394 
L 348.476296 315.455394 
" style="fill: none; stroke: #434348; stroke-linecap: square"/>
    </g>
    <g id="text_16">
     <!-- CONTROL_REP2 -->
     <g transform="translate(354.876296 318.255394) scale(0.08 -0.08)">
      <use xlink:href="#DejaVuSans-43"/>
      <use xlink:href="#DejaVuSans-4f" x="69.824219"/>
      <use xlink:href="#DejaVuSans-4e" x="148.535156"/>
      <use xlink:href="#DejaVuSans-54" x="223.339844"/>
      <use xlink:href="#DejaVuSans-52" x="284.423828"/>
      <use xlink:href="#DejaVuSans-4f" x="353.90625"/>
      <use xlink:href="#DejaVuSans-4c" x="432.617188"/>
      <use xlink:href="#DejaVuSans-5f" x="488.330078"/>
      <use xlink:href="#DejaVuSans-52" x="538.330078"/>
      <use xlink:href="#DejaVuSans-45" x="607.8125"/>
      <use xlink:href="#DejaVuSans-50" x="670.996094"/>
      <use xlink:href="#DejaVuSans-32" x="731.298828"/>
     </g>
    </g>
    <g id="line2d_89">
     <path d="M 615.794467 315.455394 
L 623.794467 315.455394 
L 631.794467 315.455394 
" style="fill: none; stroke: #90ed7d; stroke-linecap: square"/>
    </g>
    <g id="text_17">
     <!-- CONTROL_REP3 -->
     <g transform="translate(638.194467 318.255394) scale(0.08 -0.08)">
      <use xlink:href="#DejaVuSans-43"/>
      <use xlink:href="#DejaVuSans-4f" x="69.824219"/>
      <use xlink:href="#DejaVuSans-4e" x="148.535156"/>
      <use xlink:href="#DejaVuSans-54" x="223.339844"/>
      <use xlink:href="#DejaVuSans-52" x="284.423828"/>
      <use xlink:href="#DejaVuSans-4f" x="353.90625"/>
      <use xlink:href="#DejaVuSans-4c" x="432.617188"/>
      <use xlink:href="#DejaVuSans-5f" x="488.330078"/>
      <use xlink:href="#DejaVuSans-52" x="538.330078"/>
      <use xlink:href="#DejaVuSans-45" x="607.8125"/>
      <use xlink:href="#DejaVuSans-50" x="670.996094"/>
      <use xlink:href="#DejaVuSans-33" x="731.298828"/>
     </g>
    </g>
    <g id="line2d_90">
     <path d="M 899.112637 315.455394 
L 907.112637 315.455394 
L 915.112637 315.455394 
" style="fill: none; stroke: #f7a35c; stroke-linecap: square"/>
    </g>
    <g id="text_18">
     <!-- CONTROL_REP4 -->
     <g transform="translate(921.512637 318.255394) scale(0.08 -0.08)">
      <use xlink:href="#DejaVuSans-43"/>
      <use xlink:href="#DejaVuSans-4f" x="69.824219"/>
      <use xlink:href="#DejaVuSans-4e" x="148.535156"/>
      <use xlink:href="#DejaVuSans-54" x="223.339844"/>
      <use xlink:href="#DejaVuSans-52" x="284.423828"/>
      <use xlink:href="#DejaVuSans-4f" x="353.90625"/>
      <use xlink:href="#DejaVuSans-4c" x="432.617188"/>
      <use xlink:href="#DejaVuSans-5f" x="488.330078"/>
      <use xlink:href="#DejaVuSans-52" x="538.330078"/>
      <use xlink:href="#DejaVuSans-45" x="607.8125"/>
      <use xlink:href="#DejaVuSans-50" x="670.996094"/>
      <use xlink:href="#DejaVuSans-34" x="731.298828"/>
     </g>
    </g>
   </g>
  </g>
 </g>
 <defs>
  <clipPath id="p158a495ac2">
   <rect x="41.958125" y="31.48286" width="950.350762" height="242.5072"/>
  </clipPath>
 </defs>
</svg>
