<?xml version="1.0" encoding="utf-8" standalone="no"?>
<!DOCTYPE svg PUBLIC "-//W3C//DTD SVG 1.1//EN"
  "http://www.w3.org/Graphics/SVG/1.1/DTD/svg11.dtd">
<svg xmlns:xlink="http://www.w3.org/1999/xlink" width="1000.298125pt" height="330.541644pt" viewBox="0 0 1000.298125 330.541644" xmlns="http://www.w3.org/2000/svg" version="1.1">
 <metadata>
  <rdf:RDF xmlns:dc="http://purl.org/dc/elements/1.1/" xmlns:cc="http://creativecommons.org/ns#" xmlns:rdf="http://www.w3.org/1999/02/22-rdf-syntax-ns#">
   <cc:Work>
    <dc:type rdf:resource="http://purl.org/dc/dcmitype/StillImage"/>
    <dc:date>2024-06-12T15:58:12.796283</dc:date>
    <dc:format>image/svg+xml</dc:format>
    <dc:creator>
     <cc:Agent>
      <dc:title>Matplotlib v3.8.2, https://matplotlib.org/</dc:title>
     </cc:Agent>
    </dc:creator>
   </cc:Work>
  </rdf:RDF>
 </metadata>
 <defs>
  <style type="text/css">*{stroke-linejoin: round; stroke-linecap: butt}</style>
 </defs>
 <g id="figure_1">
  <g id="axes_1">
   <g id="patch_1">
    <path d="M 32.968125 273.99006 
L 985.463125 273.99006 
L 985.463125 31.48286 
L 32.968125 31.48286 
z
" style="fill: #ffffff"/>
   </g>
   <g id="matplotlib.axis_1">
    <g id="xtick_1">
     <g id="text_1">
      <!-- 0 -->
      <g transform="translate(30.423125 287.06881) scale(0.08 -0.08)">
       <defs>
        <path id="DejaVuSans-30" d="M 2034 4250 
Q 1547 4250 1301 3770 
Q 1056 3291 1056 2328 
Q 1056 1369 1301 889 
Q 1547 409 2034 409 
Q 2525 409 2770 889 
Q 3016 1369 3016 2328 
Q 3016 3291 2770 3770 
Q 2525 4250 2034 4250 
z
M 2034 4750 
Q 2819 4750 3233 4129 
Q 3647 3509 3647 2328 
Q 3647 1150 3233 529 
Q 2819 -91 2034 -91 
Q 1250 -91 836 529 
Q 422 1150 422 2328 
Q 422 3509 836 4129 
Q 1250 4750 2034 4750 
z
" transform="scale(0.015625)"/>
       </defs>
       <use xlink:href="#DejaVuSans-30"/>
      </g>
     </g>
    </g>
    <g id="xtick_2">
     <g id="text_2">
      <!-- 20 -->
      <g transform="translate(218.377125 287.06881) scale(0.08 -0.08)">
       <defs>
        <path id="DejaVuSans-32" d="M 1228 531 
L 3431 531 
L 3431 0 
L 469 0 
L 469 531 
Q 828 903 1448 1529 
Q 2069 2156 2228 2338 
Q 2531 2678 2651 2914 
Q 2772 3150 2772 3378 
Q 2772 3750 2511 3984 
Q 2250 4219 1831 4219 
Q 1534 4219 1204 4116 
Q 875 4013 500 3803 
L 500 4441 
Q 881 4594 1212 4672 
Q 1544 4750 1819 4750 
Q 2544 4750 2975 4387 
Q 3406 4025 3406 3419 
Q 3406 3131 3298 2873 
Q 3191 2616 2906 2266 
Q 2828 2175 2409 1742 
Q 1991 1309 1228 531 
z
" transform="scale(0.015625)"/>
       </defs>
       <use xlink:href="#DejaVuSans-32"/>
       <use xlink:href="#DejaVuSans-30" x="63.623047"/>
      </g>
     </g>
    </g>
    <g id="xtick_3">
     <g id="text_3">
      <!-- 40 -->
      <g transform="translate(408.876125 287.06881) scale(0.08 -0.08)">
       <defs>
        <path id="DejaVuSans-34" d="M 2419 4116 
L 825 1625 
L 2419 1625 
L 2419 4116 
z
M 2253 4666 
L 3047 4666 
L 3047 1625 
L 3713 1625 
L 3713 1100 
L 3047 1100 
L 3047 0 
L 2419 0 
L 2419 1100 
L 313 1100 
L 313 1709 
L 2253 4666 
z
" transform="scale(0.015625)"/>
       </defs>
       <use xlink:href="#DejaVuSans-34"/>
       <use xlink:href="#DejaVuSans-30" x="63.623047"/>
      </g>
     </g>
    </g>
    <g id="xtick_4">
     <g id="text_4">
      <!-- 60 -->
      <g transform="translate(599.375125 287.06881) scale(0.08 -0.08)">
       <defs>
        <path id="DejaVuSans-36" d="M 2113 2584 
Q 1688 2584 1439 2293 
Q 1191 2003 1191 1497 
Q 1191 994 1439 701 
Q 1688 409 2113 409 
Q 2538 409 2786 701 
Q 3034 994 3034 1497 
Q 3034 2003 2786 2293 
Q 2538 2584 2113 2584 
z
M 3366 4563 
L 3366 3988 
Q 3128 4100 2886 4159 
Q 2644 4219 2406 4219 
Q 1781 4219 1451 3797 
Q 1122 3375 1075 2522 
Q 1259 2794 1537 2939 
Q 1816 3084 2150 3084 
Q 2853 3084 3261 2657 
Q 3669 2231 3669 1497 
Q 3669 778 3244 343 
Q 2819 -91 2113 -91 
Q 1303 -91 875 529 
Q 447 1150 447 2328 
Q 447 3434 972 4092 
Q 1497 4750 2381 4750 
Q 2619 4750 2861 4703 
Q 3103 4656 3366 4563 
z
" transform="scale(0.015625)"/>
       </defs>
       <use xlink:href="#DejaVuSans-36"/>
       <use xlink:href="#DejaVuSans-30" x="63.623047"/>
      </g>
     </g>
    </g>
    <g id="xtick_5">
     <g id="text_5">
      <!-- 80 -->
      <g transform="translate(789.874125 287.06881) scale(0.08 -0.08)">
       <defs>
        <path id="DejaVuSans-38" d="M 2034 2216 
Q 1584 2216 1326 1975 
Q 1069 1734 1069 1313 
Q 1069 891 1326 650 
Q 1584 409 2034 409 
Q 2484 409 2743 651 
Q 3003 894 3003 1313 
Q 3003 1734 2745 1975 
Q 2488 2216 2034 2216 
z
M 1403 2484 
Q 997 2584 770 2862 
Q 544 3141 544 3541 
Q 544 4100 942 4425 
Q 1341 4750 2034 4750 
Q 2731 4750 3128 4425 
Q 3525 4100 3525 3541 
Q 3525 3141 3298 2862 
Q 3072 2584 2669 2484 
Q 3125 2378 3379 2068 
Q 3634 1759 3634 1313 
Q 3634 634 3220 271 
Q 2806 -91 2034 -91 
Q 1263 -91 848 271 
Q 434 634 434 1313 
Q 434 1759 690 2068 
Q 947 2378 1403 2484 
z
M 1172 3481 
Q 1172 3119 1398 2916 
Q 1625 2713 2034 2713 
Q 2441 2713 2670 2916 
Q 2900 3119 2900 3481 
Q 2900 3844 2670 4047 
Q 2441 4250 2034 4250 
Q 1625 4250 1398 4047 
Q 1172 3844 1172 3481 
z
" transform="scale(0.015625)"/>
       </defs>
       <use xlink:href="#DejaVuSans-38"/>
       <use xlink:href="#DejaVuSans-30" x="63.623047"/>
      </g>
     </g>
    </g>
    <g id="xtick_6">
     <g id="text_6">
      <!-- 100 -->
      <g transform="translate(977.828125 287.06881) scale(0.08 -0.08)">
       <defs>
        <path id="DejaVuSans-31" d="M 794 531 
L 1825 531 
L 1825 4091 
L 703 3866 
L 703 4441 
L 1819 4666 
L 2450 4666 
L 2450 531 
L 3481 531 
L 3481 0 
L 794 0 
L 794 531 
z
" transform="scale(0.015625)"/>
       </defs>
       <use xlink:href="#DejaVuSans-31"/>
       <use xlink:href="#DejaVuSans-30" x="63.623047"/>
       <use xlink:href="#DejaVuSans-30" x="127.246094"/>
      </g>
     </g>
    </g>
    <g id="text_7">
     <!-- % GC -->
     <g transform="translate(495.510156 300.330997) scale(0.1 -0.1)">
      <defs>
       <path id="DejaVuSans-25" d="M 4653 2053 
Q 4381 2053 4226 1822 
Q 4072 1591 4072 1178 
Q 4072 772 4226 539 
Q 4381 306 4653 306 
Q 4919 306 5073 539 
Q 5228 772 5228 1178 
Q 5228 1588 5073 1820 
Q 4919 2053 4653 2053 
z
M 4653 2450 
Q 5147 2450 5437 2106 
Q 5728 1763 5728 1178 
Q 5728 594 5436 251 
Q 5144 -91 4653 -91 
Q 4153 -91 3862 251 
Q 3572 594 3572 1178 
Q 3572 1766 3864 2108 
Q 4156 2450 4653 2450 
z
M 1428 4353 
Q 1159 4353 1004 4120 
Q 850 3888 850 3481 
Q 850 3069 1003 2837 
Q 1156 2606 1428 2606 
Q 1700 2606 1854 2837 
Q 2009 3069 2009 3481 
Q 2009 3884 1853 4118 
Q 1697 4353 1428 4353 
z
M 4250 4750 
L 4750 4750 
L 1831 -91 
L 1331 -91 
L 4250 4750 
z
M 1428 4750 
Q 1922 4750 2215 4408 
Q 2509 4066 2509 3481 
Q 2509 2891 2217 2550 
Q 1925 2209 1428 2209 
Q 931 2209 642 2551 
Q 353 2894 353 3481 
Q 353 4063 643 4406 
Q 934 4750 1428 4750 
z
" transform="scale(0.015625)"/>
       <path id="DejaVuSans-20" transform="scale(0.015625)"/>
       <path id="DejaVuSans-47" d="M 3809 666 
L 3809 1919 
L 2778 1919 
L 2778 2438 
L 4434 2438 
L 4434 434 
Q 4069 175 3628 42 
Q 3188 -91 2688 -91 
Q 1594 -91 976 548 
Q 359 1188 359 2328 
Q 359 3472 976 4111 
Q 1594 4750 2688 4750 
Q 3144 4750 3555 4637 
Q 3966 4525 4313 4306 
L 4313 3634 
Q 3963 3931 3569 4081 
Q 3175 4231 2741 4231 
Q 1884 4231 1454 3753 
Q 1025 3275 1025 2328 
Q 1025 1384 1454 906 
Q 1884 428 2741 428 
Q 3075 428 3337 486 
Q 3600 544 3809 666 
z
" transform="scale(0.015625)"/>
       <path id="DejaVuSans-43" d="M 4122 4306 
L 4122 3641 
Q 3803 3938 3442 4084 
Q 3081 4231 2675 4231 
Q 1875 4231 1450 3742 
Q 1025 3253 1025 2328 
Q 1025 1406 1450 917 
Q 1875 428 2675 428 
Q 3081 428 3442 575 
Q 3803 722 4122 1019 
L 4122 359 
Q 3791 134 3420 21 
Q 3050 -91 2638 -91 
Q 1578 -91 968 557 
Q 359 1206 359 2328 
Q 359 3453 968 4101 
Q 1578 4750 2638 4750 
Q 3056 4750 3426 4639 
Q 3797 4528 4122 4306 
z
" transform="scale(0.015625)"/>
      </defs>
      <use xlink:href="#DejaVuSans-25"/>
      <use xlink:href="#DejaVuSans-20" x="95.019531"/>
      <use xlink:href="#DejaVuSans-47" x="126.806641"/>
      <use xlink:href="#DejaVuSans-43" x="204.296875"/>
     </g>
    </g>
   </g>
   <g id="matplotlib.axis_2">
    <g id="ytick_1">
     <g id="line2d_1">
      <path d="M 32.968125 273.99006 
L 985.463125 273.99006 
" clip-path="url(#p9efdffc266)" style="fill: none; stroke: #dedede; stroke-linecap: square"/>
     </g>
     <g id="text_8">
      <!-- 0 -->
      <g transform="translate(20.878125 277.029435) scale(0.08 -0.08)">
       <use xlink:href="#DejaVuSans-30"/>
      </g>
     </g>
    </g>
    <g id="ytick_2">
     <g id="line2d_2">
      <path d="M 32.968125 224.920663 
L 985.463125 224.920663 
" clip-path="url(#p9efdffc266)" style="fill: none; stroke: #dedede; stroke-linecap: square"/>
     </g>
     <g id="text_9">
      <!-- 2 -->
      <g transform="translate(20.878125 227.960038) scale(0.08 -0.08)">
       <use xlink:href="#DejaVuSans-32"/>
      </g>
     </g>
    </g>
    <g id="ytick_3">
     <g id="line2d_3">
      <path d="M 32.968125 175.851265 
L 985.463125 175.851265 
" clip-path="url(#p9efdffc266)" style="fill: none; stroke: #dedede; stroke-linecap: square"/>
     </g>
     <g id="text_10">
      <!-- 4 -->
      <g transform="translate(20.878125 178.89064) scale(0.08 -0.08)">
       <use xlink:href="#DejaVuSans-34"/>
      </g>
     </g>
    </g>
    <g id="ytick_4">
     <g id="line2d_4">
      <path d="M 32.968125 126.781868 
L 985.463125 126.781868 
" clip-path="url(#p9efdffc266)" style="fill: none; stroke: #dedede; stroke-linecap: square"/>
     </g>
     <g id="text_11">
      <!-- 6 -->
      <g transform="translate(20.878125 129.821243) scale(0.08 -0.08)">
       <use xlink:href="#DejaVuSans-36"/>
      </g>
     </g>
    </g>
    <g id="ytick_5">
     <g id="line2d_5">
      <path d="M 32.968125 77.712471 
L 985.463125 77.712471 
" clip-path="url(#p9efdffc266)" style="fill: none; stroke: #dedede; stroke-linecap: square"/>
     </g>
     <g id="text_12">
      <!-- 8 -->
      <g transform="translate(20.878125 80.751846) scale(0.08 -0.08)">
       <use xlink:href="#DejaVuSans-38"/>
      </g>
     </g>
    </g>
    <g id="text_13">
     <!-- Percentage -->
     <g transform="translate(14.798437 180.859116) rotate(-90) scale(0.1 -0.1)">
      <defs>
       <path id="DejaVuSans-50" d="M 1259 4147 
L 1259 2394 
L 2053 2394 
Q 2494 2394 2734 2622 
Q 2975 2850 2975 3272 
Q 2975 3691 2734 3919 
Q 2494 4147 2053 4147 
L 1259 4147 
z
M 628 4666 
L 2053 4666 
Q 2838 4666 3239 4311 
Q 3641 3956 3641 3272 
Q 3641 2581 3239 2228 
Q 2838 1875 2053 1875 
L 1259 1875 
L 1259 0 
L 628 0 
L 628 4666 
z
" transform="scale(0.015625)"/>
       <path id="DejaVuSans-65" d="M 3597 1894 
L 3597 1613 
L 953 1613 
Q 991 1019 1311 708 
Q 1631 397 2203 397 
Q 2534 397 2845 478 
Q 3156 559 3463 722 
L 3463 178 
Q 3153 47 2828 -22 
Q 2503 -91 2169 -91 
Q 1331 -91 842 396 
Q 353 884 353 1716 
Q 353 2575 817 3079 
Q 1281 3584 2069 3584 
Q 2775 3584 3186 3129 
Q 3597 2675 3597 1894 
z
M 3022 2063 
Q 3016 2534 2758 2815 
Q 2500 3097 2075 3097 
Q 1594 3097 1305 2825 
Q 1016 2553 972 2059 
L 3022 2063 
z
" transform="scale(0.015625)"/>
       <path id="DejaVuSans-72" d="M 2631 2963 
Q 2534 3019 2420 3045 
Q 2306 3072 2169 3072 
Q 1681 3072 1420 2755 
Q 1159 2438 1159 1844 
L 1159 0 
L 581 0 
L 581 3500 
L 1159 3500 
L 1159 2956 
Q 1341 3275 1631 3429 
Q 1922 3584 2338 3584 
Q 2397 3584 2469 3576 
Q 2541 3569 2628 3553 
L 2631 2963 
z
" transform="scale(0.015625)"/>
       <path id="DejaVuSans-63" d="M 3122 3366 
L 3122 2828 
Q 2878 2963 2633 3030 
Q 2388 3097 2138 3097 
Q 1578 3097 1268 2742 
Q 959 2388 959 1747 
Q 959 1106 1268 751 
Q 1578 397 2138 397 
Q 2388 397 2633 464 
Q 2878 531 3122 666 
L 3122 134 
Q 2881 22 2623 -34 
Q 2366 -91 2075 -91 
Q 1284 -91 818 406 
Q 353 903 353 1747 
Q 353 2603 823 3093 
Q 1294 3584 2113 3584 
Q 2378 3584 2631 3529 
Q 2884 3475 3122 3366 
z
" transform="scale(0.015625)"/>
       <path id="DejaVuSans-6e" d="M 3513 2113 
L 3513 0 
L 2938 0 
L 2938 2094 
Q 2938 2591 2744 2837 
Q 2550 3084 2163 3084 
Q 1697 3084 1428 2787 
Q 1159 2491 1159 1978 
L 1159 0 
L 581 0 
L 581 3500 
L 1159 3500 
L 1159 2956 
Q 1366 3272 1645 3428 
Q 1925 3584 2291 3584 
Q 2894 3584 3203 3211 
Q 3513 2838 3513 2113 
z
" transform="scale(0.015625)"/>
       <path id="DejaVuSans-74" d="M 1172 4494 
L 1172 3500 
L 2356 3500 
L 2356 3053 
L 1172 3053 
L 1172 1153 
Q 1172 725 1289 603 
Q 1406 481 1766 481 
L 2356 481 
L 2356 0 
L 1766 0 
Q 1100 0 847 248 
Q 594 497 594 1153 
L 594 3053 
L 172 3053 
L 172 3500 
L 594 3500 
L 594 4494 
L 1172 4494 
z
" transform="scale(0.015625)"/>
       <path id="DejaVuSans-61" d="M 2194 1759 
Q 1497 1759 1228 1600 
Q 959 1441 959 1056 
Q 959 750 1161 570 
Q 1363 391 1709 391 
Q 2188 391 2477 730 
Q 2766 1069 2766 1631 
L 2766 1759 
L 2194 1759 
z
M 3341 1997 
L 3341 0 
L 2766 0 
L 2766 531 
Q 2569 213 2275 61 
Q 1981 -91 1556 -91 
Q 1019 -91 701 211 
Q 384 513 384 1019 
Q 384 1609 779 1909 
Q 1175 2209 1959 2209 
L 2766 2209 
L 2766 2266 
Q 2766 2663 2505 2880 
Q 2244 3097 1772 3097 
Q 1472 3097 1187 3025 
Q 903 2953 641 2809 
L 641 3341 
Q 956 3463 1253 3523 
Q 1550 3584 1831 3584 
Q 2591 3584 2966 3190 
Q 3341 2797 3341 1997 
z
" transform="scale(0.015625)"/>
       <path id="DejaVuSans-67" d="M 2906 1791 
Q 2906 2416 2648 2759 
Q 2391 3103 1925 3103 
Q 1463 3103 1205 2759 
Q 947 2416 947 1791 
Q 947 1169 1205 825 
Q 1463 481 1925 481 
Q 2391 481 2648 825 
Q 2906 1169 2906 1791 
z
M 3481 434 
Q 3481 -459 3084 -895 
Q 2688 -1331 1869 -1331 
Q 1566 -1331 1297 -1286 
Q 1028 -1241 775 -1147 
L 775 -588 
Q 1028 -725 1275 -790 
Q 1522 -856 1778 -856 
Q 2344 -856 2625 -561 
Q 2906 -266 2906 331 
L 2906 616 
Q 2728 306 2450 153 
Q 2172 0 1784 0 
Q 1141 0 747 490 
Q 353 981 353 1791 
Q 353 2603 747 3093 
Q 1141 3584 1784 3584 
Q 2172 3584 2450 3431 
Q 2728 3278 2906 2969 
L 2906 3500 
L 3481 3500 
L 3481 434 
z
" transform="scale(0.015625)"/>
      </defs>
      <use xlink:href="#DejaVuSans-50"/>
      <use xlink:href="#DejaVuSans-65" x="56.677734"/>
      <use xlink:href="#DejaVuSans-72" x="118.201172"/>
      <use xlink:href="#DejaVuSans-63" x="157.064453"/>
      <use xlink:href="#DejaVuSans-65" x="212.044922"/>
      <use xlink:href="#DejaVuSans-6e" x="273.568359"/>
      <use xlink:href="#DejaVuSans-74" x="336.947266"/>
      <use xlink:href="#DejaVuSans-61" x="376.15625"/>
      <use xlink:href="#DejaVuSans-67" x="437.435547"/>
      <use xlink:href="#DejaVuSans-65" x="500.912109"/>
     </g>
    </g>
   </g>
   <g id="line2d_6">
    <path d="M 32.968125 273.99006 
L 42.493075 273.99006 
L 52.018025 273.99006 
L 61.542975 273.99006 
L 71.067925 273.99006 
L 80.592875 273.99006 
L 90.117825 273.99006 
L 99.642775 273.99006 
L 109.167725 273.99006 
L 118.692675 273.99006 
L 128.217625 273.99006 
L 137.742575 273.971635 
L 147.267525 273.934786 
L 156.792475 273.904078 
L 166.317425 273.818095 
L 175.842375 273.596998 
L 185.367325 273.271493 
L 194.892275 271.969474 
L 204.417225 270.827137 
L 213.942175 270.937686 
L 223.467125 271.45358 
L 232.992075 271.45358 
L 242.517025 271.250908 
L 252.041975 271.594837 
L 261.566925 271.637828 
L 271.091875 271.570271 
L 280.616825 271.257049 
L 290.141775 269.703225 
L 299.666725 268.468764 
L 309.191675 264.746956 
L 318.716625 264.556567 
L 328.241575 268.996941 
L 337.766525 269.807632 
L 347.291475 268.653012 
L 356.816425 267.670356 
L 366.341375 265.975275 
L 375.866325 262.321025 
L 385.391275 264.599558 
L 394.916225 264.980337 
L 404.441175 259.041412 
L 413.966125 235.92444 
L 423.491075 203.146735 
L 433.016025 190.071274 
L 442.540975 191.489983 
L 452.065925 214.705221 
L 461.590875 234.321483 
L 471.115825 239.928761 
L 480.640775 248.680537 
L 490.165725 253.851762 
L 499.690675 259.747696 
L 509.215625 260.214457 
L 518.740575 251.192451 
L 528.265525 224.537918 
L 537.790475 207.316879 
L 547.315425 174.4839 
L 556.840375 138.530989 
L 566.365325 120.781773 
L 575.890275 103.904664 
L 585.415225 101.067246 
L 594.940175 126.518025 
L 604.465125 153.823567 
L 613.990075 137.118422 
L 623.515025 117.938213 
L 633.039975 126.155671 
L 642.564925 154.29647 
L 652.089875 196.433969 
L 661.614825 238.338088 
L 671.139775 259.888953 
L 680.664725 267.633507 
L 690.189675 270.354234 
L 699.714625 272.055457 
L 709.239575 272.945988 
L 718.764525 273.124095 
L 728.289475 273.203936 
L 737.814425 273.289918 
L 747.339375 273.425033 
L 756.864325 273.695263 
L 766.389275 273.879511 
L 775.914225 273.940927 
L 785.439175 273.971635 
L 794.964125 273.983918 
L 804.489075 273.983918 
L 814.014025 273.983918 
L 823.538975 273.977777 
L 833.063925 273.971635 
L 842.588875 273.983918 
L 852.113825 273.99006 
L 861.638775 273.99006 
L 871.163725 273.99006 
L 880.688675 273.99006 
L 890.213625 273.99006 
L 899.738575 273.99006 
L 909.263525 273.99006 
L 918.788475 273.99006 
L 928.313425 273.99006 
L 937.838375 273.99006 
L 947.363325 273.99006 
L 956.888275 273.99006 
L 966.413225 273.99006 
L 975.938175 273.99006 
L 985.463125 273.99006 
" clip-path="url(#p9efdffc266)" style="fill: none; stroke: #d9534f; stroke-linecap: square"/>
   </g>
   <g id="line2d_7">
    <path d="M 32.968125 273.99006 
L 42.493075 273.99006 
L 52.018025 273.99006 
L 61.542975 273.99006 
L 71.067925 273.99006 
L 80.592875 273.99006 
L 90.117825 273.99006 
L 99.642775 273.99006 
L 109.167725 273.99006 
L 118.692675 273.99006 
L 128.217625 273.99006 
L 137.742575 273.99006 
L 147.267525 273.983945 
L 156.792475 273.947254 
L 166.317425 273.849412 
L 175.842375 273.684303 
L 185.367325 273.562 
L 194.892275 272.736455 
L 204.417225 271.825298 
L 213.942175 271.592923 
L 223.467125 270.418815 
L 232.992075 268.162326 
L 242.517025 268.046138 
L 252.041975 269.972409 
L 261.566925 270.749033 
L 271.091875 271.158748 
L 280.616825 271.323856 
L 290.141775 270.791839 
L 299.666725 268.620962 
L 309.191675 266.963758 
L 318.716625 268.945065 
L 328.241575 270.241476 
L 337.766525 269.171325 
L 347.291475 269.299743 
L 356.816425 267.90549 
L 366.341375 259.32594 
L 375.866325 259.338171 
L 385.391275 267.122751 
L 394.916225 266.547928 
L 404.441175 260.261558 
L 413.966125 258.225214 
L 423.491075 257.962263 
L 433.016025 252.898922 
L 442.540975 246.227298 
L 452.065925 247.456442 
L 461.590875 251.168336 
L 471.115825 250.764736 
L 480.640775 250.299985 
L 490.165725 253.21691 
L 499.690675 260.469473 
L 509.215625 262.316247 
L 518.740575 253.057916 
L 528.265525 203.268399 
L 537.790475 186.170451 
L 547.315425 181.663589 
L 556.840375 147.027403 
L 566.365325 122.120415 
L 575.890275 118.916078 
L 585.415225 94.070241 
L 594.940175 94.510531 
L 604.465125 137.084176 
L 613.990075 110.201996 
L 623.515025 47.118152 
L 633.039975 62.369325 
L 642.564925 134.362936 
L 652.089875 192.603585 
L 661.614825 241.751011 
L 671.139775 259.221983 
L 680.664725 266.077061 
L 690.189675 269.78284 
L 699.714625 271.152632 
L 709.239575 271.48285 
L 718.764525 271.935371 
L 728.289475 272.161631 
L 737.814425 272.455158 
L 747.339375 272.926025 
L 756.864325 273.262358 
L 766.389275 273.451927 
L 775.914225 273.678188 
L 785.439175 273.861642 
L 794.964125 273.922793 
L 804.489075 273.916678 
L 814.014025 273.922793 
L 823.538975 273.928909 
L 833.063925 273.910563 
L 842.588875 273.916678 
L 852.113825 273.965599 
L 861.638775 273.99006 
L 871.163725 273.99006 
L 880.688675 273.99006 
L 890.213625 273.99006 
L 899.738575 273.99006 
L 909.263525 273.99006 
L 918.788475 273.99006 
L 928.313425 273.99006 
L 937.838375 273.99006 
L 947.363325 273.99006 
L 956.888275 273.99006 
L 966.413225 273.99006 
L 975.938175 273.99006 
L 985.463125 273.99006 
" clip-path="url(#p9efdffc266)" style="fill: none; stroke: #d9534f; stroke-linecap: square"/>
   </g>
   <g id="line2d_8">
    <path d="M 32.968125 273.99006 
L 42.493075 273.99006 
L 52.018025 273.99006 
L 61.542975 273.99006 
L 71.067925 273.99006 
L 80.592875 273.99006 
L 90.117825 273.99006 
L 99.642775 273.99006 
L 109.167725 273.99006 
L 118.692675 273.99006 
L 128.217625 273.99006 
L 137.742575 273.980955 
L 147.267525 273.967298 
L 156.792475 273.839831 
L 166.317425 273.425565 
L 175.842375 272.792784 
L 185.367325 271.395202 
L 194.892275 269.223716 
L 204.417225 265.003658 
L 213.942175 262.668286 
L 223.467125 265.354191 
L 232.992075 266.697144 
L 242.517025 266.915658 
L 252.041975 268.604592 
L 261.566925 268.67743 
L 271.091875 265.736591 
L 280.616825 262.395143 
L 290.141775 260.565085 
L 299.666725 261.152343 
L 309.191675 258.484647 
L 318.716625 259.668266 
L 328.241575 264.14781 
L 337.766525 263.401219 
L 347.291475 262.795753 
L 356.816425 259.79118 
L 366.341375 244.235691 
L 375.866325 238.581633 
L 385.391275 250.504321 
L 394.916225 251.046055 
L 404.441175 230.369136 
L 413.966125 225.338753 
L 423.491075 232.968546 
L 433.016025 205.772616 
L 442.540975 178.526609 
L 452.065925 199.977433 
L 461.590875 234.425308 
L 471.115825 240.489081 
L 480.640775 224.610372 
L 490.165725 218.487418 
L 499.690675 227.533002 
L 509.215625 228.630126 
L 518.740575 236.660527 
L 528.265525 228.484449 
L 537.790475 214.185417 
L 547.315425 195.142804 
L 556.840375 163.084929 
L 566.365325 136.298714 
L 575.890275 128.281969 
L 585.415225 142.949744 
L 594.940175 164.509825 
L 604.465125 179.737543 
L 613.990075 165.652473 
L 623.515025 153.374699 
L 633.039975 163.858834 
L 642.564925 181.685962 
L 652.089875 208.180826 
L 661.614825 237.985271 
L 671.139775 256.508913 
L 680.664725 266.528706 
L 690.189675 271.272288 
L 699.714625 272.738155 
L 709.239575 272.997641 
L 718.764525 273.125107 
L 728.289475 273.357279 
L 737.814425 273.603108 
L 747.339375 273.803412 
L 756.864325 273.917222 
L 766.389275 273.949089 
L 775.914225 273.953641 
L 785.439175 273.962746 
L 794.964125 273.976403 
L 804.489075 273.976403 
L 814.014025 273.967298 
L 823.538975 273.967298 
L 833.063925 273.97185 
L 842.588875 273.97185 
L 852.113825 273.976403 
L 861.638775 273.985508 
L 871.163725 273.99006 
L 880.688675 273.99006 
L 890.213625 273.99006 
L 899.738575 273.99006 
L 909.263525 273.99006 
L 918.788475 273.99006 
L 928.313425 273.99006 
L 937.838375 273.99006 
L 947.363325 273.99006 
L 956.888275 273.99006 
L 966.413225 273.99006 
L 975.938175 273.99006 
L 985.463125 273.99006 
" clip-path="url(#p9efdffc266)" style="fill: none; stroke: #d9534f; stroke-linecap: square"/>
   </g>
   <g id="line2d_9">
    <path d="M 32.968125 273.99006 
L 42.493075 273.99006 
L 52.018025 273.99006 
L 61.542975 273.99006 
L 71.067925 273.99006 
L 80.592875 273.99006 
L 90.117825 273.99006 
L 99.642775 273.99006 
L 109.167725 273.99006 
L 118.692675 273.99006 
L 128.217625 273.99006 
L 137.742575 273.99006 
L 147.267525 273.985509 
L 156.792475 273.817114 
L 166.317425 273.339238 
L 175.842375 272.620149 
L 185.367325 271.855547 
L 194.892275 269.884878 
L 204.417225 267.672995 
L 213.942175 266.339493 
L 223.467125 261.861113 
L 232.992075 257.523819 
L 242.517025 260.937219 
L 252.041975 263.376662 
L 261.566925 258.952896 
L 271.091875 254.028498 
L 280.616825 257.705867 
L 290.141775 260.805234 
L 299.666725 256.950368 
L 309.191675 255.40296 
L 318.716625 259.49904 
L 328.241575 265.033299 
L 337.766525 264.61914 
L 347.291475 261.756435 
L 356.816425 254.0376 
L 366.341375 212.949369 
L 375.866325 204.092734 
L 385.391275 242.805239 
L 394.916225 251.511684 
L 404.441175 233.011057 
L 413.966125 230.758214 
L 423.491075 241.690195 
L 433.016025 223.708405 
L 442.540975 191.099059 
L 452.065925 191.763534 
L 461.590875 209.718017 
L 471.115825 214.760746 
L 480.640775 219.302844 
L 490.165725 228.578189 
L 499.690675 238.25404 
L 509.215625 241.216871 
L 518.740575 242.036087 
L 528.265525 228.282361 
L 537.790475 214.460367 
L 547.315425 194.82194 
L 556.840375 166.631809 
L 566.365325 158.853809 
L 575.890275 171.292237 
L 585.415225 173.76809 
L 594.940175 173.240151 
L 604.465125 179.507153 
L 613.990075 181.700831 
L 623.515025 175.279088 
L 633.039975 164.934211 
L 642.564925 175.274537 
L 652.089875 199.873772 
L 661.614825 229.916242 
L 671.139775 251.338739 
L 680.664725 261.492465 
L 690.189675 268.587786 
L 699.714625 271.118253 
L 709.239575 271.222931 
L 718.764525 271.728114 
L 728.289475 272.715724 
L 737.814425 273.366546 
L 747.339375 273.666925 
L 756.864325 273.826217 
L 766.389275 273.889934 
L 775.914225 273.935446 
L 785.439175 273.95365 
L 794.964125 273.976406 
L 804.489075 273.99006 
L 814.014025 273.99006 
L 823.538975 273.980958 
L 833.063925 273.958202 
L 842.588875 273.962753 
L 852.113825 273.985509 
L 861.638775 273.99006 
L 871.163725 273.99006 
L 880.688675 273.99006 
L 890.213625 273.99006 
L 899.738575 273.99006 
L 909.263525 273.99006 
L 918.788475 273.99006 
L 928.313425 273.99006 
L 937.838375 273.99006 
L 947.363325 273.99006 
L 956.888275 273.99006 
L 966.413225 273.99006 
L 975.938175 273.99006 
L 985.463125 273.99006 
" clip-path="url(#p9efdffc266)" style="fill: none; stroke: #d9534f; stroke-linecap: square"/>
   </g>
   <g id="line2d_10">
    <path d="M 32.968125 273.99006 
L 42.493075 273.99006 
L 52.018025 273.99006 
L 61.542975 273.99006 
L 71.067925 273.99006 
L 80.592875 273.99006 
L 90.117825 273.99006 
L 99.642775 273.99006 
L 109.167725 273.99006 
L 118.692675 273.99006 
L 128.217625 273.99006 
L 137.742575 273.984642 
L 147.267525 273.968387 
L 156.792475 273.925041 
L 166.317425 273.860021 
L 175.842375 273.724565 
L 185.367325 273.182737 
L 194.892275 271.568092 
L 204.417225 269.937192 
L 213.942175 269.487475 
L 223.467125 270.468183 
L 232.992075 271.069611 
L 242.517025 270.50611 
L 252.041975 270.939572 
L 261.566925 271.649366 
L 271.091875 271.92028 
L 280.616825 271.698131 
L 290.141775 270.28938 
L 299.666725 269.037758 
L 309.191675 265.77054 
L 318.716625 265.92767 
L 328.241575 269.715043 
L 337.766525 270.403163 
L 347.291475 269.774644 
L 356.816425 268.111234 
L 366.341375 264.681467 
L 375.866325 262.378701 
L 385.391275 266.187747 
L 394.916225 266.480334 
L 404.441175 259.593709 
L 413.966125 241.263691 
L 423.491075 217.70504 
L 433.016025 204.993772 
L 442.540975 203.422473 
L 452.065925 223.914381 
L 461.590875 242.786226 
L 471.115825 247.299647 
L 480.640775 249.922091 
L 490.165725 252.87505 
L 499.690675 260.016334 
L 509.215625 260.53107 
L 518.740575 251.585501 
L 528.265525 223.036621 
L 537.790475 205.140065 
L 547.315425 172.868831 
L 556.840375 132.762774 
L 566.365325 114.113079 
L 575.890275 95.864335 
L 585.415225 93.144362 
L 594.940175 118.019654 
L 604.465125 146.118817 
L 613.990075 134.269054 
L 623.515025 108.104214 
L 633.039975 109.21496 
L 642.564925 142.683632 
L 652.089875 197.765796 
L 661.614825 243.008375 
L 671.139775 261.593051 
L 680.664725 269.812572 
L 690.189675 272.104501 
L 699.714625 272.976843 
L 709.239575 273.177319 
L 718.764525 273.274848 
L 728.289475 273.421141 
L 737.814425 273.556598 
L 747.339375 273.632454 
L 756.864325 273.811257 
L 766.389275 273.925041 
L 775.914225 273.962969 
L 785.439175 273.984642 
L 794.964125 273.979223 
L 804.489075 273.979223 
L 814.014025 273.979223 
L 823.538975 273.984642 
L 833.063925 273.99006 
L 842.588875 273.984642 
L 852.113825 273.979223 
L 861.638775 273.984642 
L 871.163725 273.99006 
L 880.688675 273.99006 
L 890.213625 273.99006 
L 899.738575 273.99006 
L 909.263525 273.99006 
L 918.788475 273.99006 
L 928.313425 273.99006 
L 937.838375 273.99006 
L 947.363325 273.99006 
L 956.888275 273.99006 
L 966.413225 273.99006 
L 975.938175 273.99006 
L 985.463125 273.99006 
" clip-path="url(#p9efdffc266)" style="fill: none; stroke: #d9534f; stroke-linecap: square"/>
   </g>
   <g id="line2d_11">
    <path d="M 32.968125 273.99006 
L 42.493075 273.99006 
L 52.018025 273.99006 
L 61.542975 273.99006 
L 71.067925 273.99006 
L 80.592875 273.99006 
L 90.117825 273.99006 
L 99.642775 273.99006 
L 109.167725 273.99006 
L 118.692675 273.99006 
L 128.217625 273.99006 
L 137.742575 273.99006 
L 147.267525 273.99006 
L 156.792475 273.963048 
L 166.317425 273.844194 
L 175.842375 273.655109 
L 185.367325 273.368781 
L 194.892275 272.185649 
L 204.417225 271.14298 
L 213.942175 270.716188 
L 223.467125 269.403398 
L 232.992075 267.128975 
L 242.517025 267.123573 
L 252.041975 269.473629 
L 261.566925 270.435262 
L 271.091875 270.667566 
L 280.616825 271.305053 
L 290.141775 270.818834 
L 299.666725 268.155437 
L 309.191675 266.875061 
L 318.716625 269.214313 
L 328.241575 270.348823 
L 337.766525 269.592483 
L 347.291475 270.132726 
L 356.816425 267.480133 
L 366.341375 258.555321 
L 375.866325 259.317063 
L 385.391275 266.98311 
L 394.916225 266.432062 
L 404.441175 258.485089 
L 413.966125 256.659068 
L 423.491075 257.880017 
L 433.016025 252.915185 
L 442.540975 245.222126 
L 452.065925 246.340429 
L 461.590875 253.185306 
L 471.115825 252.591039 
L 480.640775 249.63591 
L 490.165725 252.655868 
L 499.690675 260.602841 
L 509.215625 262.617947 
L 518.740575 253.174501 
L 528.265525 204.487812 
L 537.790475 188.129257 
L 547.315425 179.766297 
L 556.840375 140.496042 
L 566.365325 115.250491 
L 575.890275 117.346634 
L 585.415225 100.685543 
L 594.940175 99.459192 
L 604.465125 134.35348 
L 613.990075 106.174411 
L 623.515025 43.030822 
L 633.039975 58.676256 
L 642.564925 135.298905 
L 652.089875 198.685604 
L 661.614825 247.285854 
L 671.139775 262.520703 
L 680.664725 268.441766 
L 690.189675 271.169992 
L 699.714625 272.488185 
L 709.239575 272.612441 
L 718.764525 272.704282 
L 728.289475 272.979806 
L 737.814425 273.131074 
L 747.339375 273.341769 
L 756.864325 273.665914 
L 766.389275 273.806377 
L 775.914225 273.844194 
L 785.439175 273.914426 
L 794.964125 273.952243 
L 804.489075 273.941438 
L 814.014025 273.946841 
L 823.538975 273.963048 
L 833.063925 273.979255 
L 842.588875 273.99006 
L 852.113825 273.99006 
L 861.638775 273.99006 
L 871.163725 273.99006 
L 880.688675 273.99006 
L 890.213625 273.99006 
L 899.738575 273.99006 
L 909.263525 273.99006 
L 918.788475 273.99006 
L 928.313425 273.99006 
L 937.838375 273.99006 
L 947.363325 273.99006 
L 956.888275 273.99006 
L 966.413225 273.99006 
L 975.938175 273.99006 
L 985.463125 273.99006 
" clip-path="url(#p9efdffc266)" style="fill: none; stroke: #d9534f; stroke-linecap: square"/>
   </g>
   <g id="line2d_12">
    <path d="M 32.968125 273.99006 
L 42.493075 273.99006 
L 52.018025 273.99006 
L 61.542975 273.99006 
L 71.067925 273.99006 
L 80.592875 273.99006 
L 90.117825 273.99006 
L 99.642775 273.99006 
L 109.167725 273.99006 
L 118.692675 273.99006 
L 128.217625 273.99006 
L 137.742575 273.983394 
L 147.267525 273.970063 
L 156.792475 273.876741 
L 166.317425 273.483459 
L 175.842375 272.823544 
L 185.367325 271.683691 
L 194.892275 270.103895 
L 204.417225 267.184272 
L 213.942175 265.217859 
L 223.467125 266.984298 
L 232.992075 268.524099 
L 242.517025 268.890718 
L 252.041975 269.430649 
L 261.566925 268.030829 
L 271.091875 264.937896 
L 280.616825 262.978149 
L 290.141775 261.564998 
L 299.666725 262.178252 
L 309.191675 259.97187 
L 318.716625 260.605122 
L 328.241575 264.97789 
L 337.766525 264.217988 
L 347.291475 262.951485 
L 356.816425 258.225429 
L 366.341375 236.661547 
L 375.866325 232.262115 
L 385.391275 250.353112 
L 394.916225 251.339651 
L 404.441175 229.555797 
L 413.966125 224.236484 
L 423.491075 231.88883 
L 433.016025 207.49198 
L 442.540975 188.874384 
L 452.065925 205.098955 
L 461.590875 233.208659 
L 471.115825 243.100715 
L 480.640775 228.62925 
L 490.165725 223.423256 
L 499.690675 232.108801 
L 509.215625 234.00189 
L 518.740575 239.761146 
L 528.265525 227.869349 
L 537.790475 211.491463 
L 547.315425 189.540964 
L 556.840375 157.685078 
L 566.365325 129.842006 
L 575.890275 123.089545 
L 585.415225 145.606637 
L 594.940175 162.044515 
L 604.465125 172.763131 
L 613.990075 163.057717 
L 623.515025 147.019788 
L 633.039975 157.571759 
L 642.564925 179.16897 
L 652.089875 208.258547 
L 661.614825 241.674233 
L 671.139775 260.025197 
L 680.664725 268.144148 
L 690.189675 271.830339 
L 699.714625 273.03685 
L 709.239575 273.156834 
L 718.764525 273.29015 
L 728.289475 273.556783 
L 737.814425 273.736759 
L 747.339375 273.856744 
L 756.864325 273.916736 
L 766.389275 273.936734 
L 775.914225 273.956731 
L 785.439175 273.976728 
L 794.964125 273.99006 
L 804.489075 273.976728 
L 814.014025 273.976728 
L 823.538975 273.99006 
L 833.063925 273.99006 
L 842.588875 273.99006 
L 852.113825 273.983394 
L 861.638775 273.976728 
L 871.163725 273.983394 
L 880.688675 273.99006 
L 890.213625 273.99006 
L 899.738575 273.99006 
L 909.263525 273.99006 
L 918.788475 273.99006 
L 928.313425 273.99006 
L 937.838375 273.99006 
L 947.363325 273.99006 
L 956.888275 273.99006 
L 966.413225 273.99006 
L 975.938175 273.99006 
L 985.463125 273.99006 
" clip-path="url(#p9efdffc266)" style="fill: none; stroke: #d9534f; stroke-linecap: square"/>
   </g>
   <g id="line2d_13">
    <path d="M 32.968125 273.99006 
L 42.493075 273.99006 
L 52.018025 273.99006 
L 61.542975 273.99006 
L 71.067925 273.99006 
L 80.592875 273.99006 
L 90.117825 273.99006 
L 99.642775 273.99006 
L 109.167725 273.99006 
L 118.692675 273.99006 
L 128.217625 273.99006 
L 137.742575 273.99006 
L 147.267525 273.97672 
L 156.792475 273.836649 
L 166.317425 273.249685 
L 175.842375 272.262518 
L 185.367325 271.322041 
L 194.892275 269.854631 
L 204.417225 267.600155 
L 213.942175 265.238959 
L 223.467125 263.177915 
L 232.992075 261.557093 
L 242.517025 262.997823 
L 252.041975 263.444717 
L 261.566925 258.568913 
L 271.091875 254.240052 
L 280.616825 258.382151 
L 290.141775 261.363662 
L 299.666725 257.995289 
L 309.191675 255.794173 
L 318.716625 260.276444 
L 328.241575 266.132745 
L 337.766525 265.258969 
L 347.291475 262.871093 
L 356.816425 255.120499 
L 366.341375 218.842116 
L 375.866325 214.686677 
L 385.391275 248.457122 
L 394.916225 254.313423 
L 404.441175 232.222229 
L 413.966125 228.440313 
L 423.491075 241.493594 
L 433.016025 222.550662 
L 442.540975 190.434388 
L 452.065925 189.587292 
L 461.590875 209.770853 
L 471.115825 217.087894 
L 480.640775 220.723069 
L 490.165725 228.547034 
L 499.690675 236.784541 
L 509.215625 238.758875 
L 518.740575 241.426893 
L 528.265525 228.967246 
L 537.790475 213.239277 
L 547.315425 193.002356 
L 556.840375 164.114385 
L 566.365325 157.197547 
L 575.890275 171.331375 
L 585.415225 176.280549 
L 594.940175 174.90652 
L 604.465125 176.727443 
L 613.990075 176.847503 
L 623.515025 167.7629 
L 633.039975 155.503355 
L 642.564925 167.189276 
L 652.089875 196.897663 
L 661.614825 231.875387 
L 671.139775 254.466834 
L 680.664725 263.731529 
L 690.189675 269.421078 
L 699.714625 271.455442 
L 709.239575 271.11527 
L 718.764525 271.548823 
L 728.289475 272.716081 
L 737.814425 273.503147 
L 747.339375 273.736598 
L 756.864325 273.849989 
L 766.389275 273.92336 
L 775.914225 273.96338 
L 785.439175 273.98339 
L 794.964125 273.99006 
L 804.489075 273.99006 
L 814.014025 273.98339 
L 823.538975 273.97005 
L 833.063925 273.97005 
L 842.588875 273.98339 
L 852.113825 273.99006 
L 861.638775 273.99006 
L 871.163725 273.99006 
L 880.688675 273.99006 
L 890.213625 273.99006 
L 899.738575 273.99006 
L 909.263525 273.99006 
L 918.788475 273.99006 
L 928.313425 273.99006 
L 937.838375 273.99006 
L 947.363325 273.99006 
L 956.888275 273.99006 
L 966.413225 273.99006 
L 975.938175 273.99006 
L 985.463125 273.99006 
" clip-path="url(#p9efdffc266)" style="fill: none; stroke: #d9534f; stroke-linecap: square"/>
   </g>
   <g id="line2d_14">
    <path d="M 32.968125 273.99006 
L 985.463125 273.99006 
" clip-path="url(#p9efdffc266)" style="fill: none; stroke: #dedede; stroke-width: 2; stroke-linecap: square"/>
   </g>
   <g id="text_14">
    <!-- FastQC: Per Sequence GC Content -->
    <g transform="translate(372.579375 19.3575) scale(0.16 -0.16)">
     <defs>
      <path id="DejaVuSans-46" d="M 628 4666 
L 3309 4666 
L 3309 4134 
L 1259 4134 
L 1259 2759 
L 3109 2759 
L 3109 2228 
L 1259 2228 
L 1259 0 
L 628 0 
L 628 4666 
z
" transform="scale(0.015625)"/>
      <path id="DejaVuSans-73" d="M 2834 3397 
L 2834 2853 
Q 2591 2978 2328 3040 
Q 2066 3103 1784 3103 
Q 1356 3103 1142 2972 
Q 928 2841 928 2578 
Q 928 2378 1081 2264 
Q 1234 2150 1697 2047 
L 1894 2003 
Q 2506 1872 2764 1633 
Q 3022 1394 3022 966 
Q 3022 478 2636 193 
Q 2250 -91 1575 -91 
Q 1294 -91 989 -36 
Q 684 19 347 128 
L 347 722 
Q 666 556 975 473 
Q 1284 391 1588 391 
Q 1994 391 2212 530 
Q 2431 669 2431 922 
Q 2431 1156 2273 1281 
Q 2116 1406 1581 1522 
L 1381 1569 
Q 847 1681 609 1914 
Q 372 2147 372 2553 
Q 372 3047 722 3315 
Q 1072 3584 1716 3584 
Q 2034 3584 2315 3537 
Q 2597 3491 2834 3397 
z
" transform="scale(0.015625)"/>
      <path id="DejaVuSans-51" d="M 2522 4238 
Q 1834 4238 1429 3725 
Q 1025 3213 1025 2328 
Q 1025 1447 1429 934 
Q 1834 422 2522 422 
Q 3209 422 3611 934 
Q 4013 1447 4013 2328 
Q 4013 3213 3611 3725 
Q 3209 4238 2522 4238 
z
M 3406 84 
L 4238 -825 
L 3475 -825 
L 2784 -78 
Q 2681 -84 2626 -87 
Q 2572 -91 2522 -91 
Q 1538 -91 948 567 
Q 359 1225 359 2328 
Q 359 3434 948 4092 
Q 1538 4750 2522 4750 
Q 3503 4750 4090 4092 
Q 4678 3434 4678 2328 
Q 4678 1516 4351 937 
Q 4025 359 3406 84 
z
" transform="scale(0.015625)"/>
      <path id="DejaVuSans-3a" d="M 750 794 
L 1409 794 
L 1409 0 
L 750 0 
L 750 794 
z
M 750 3309 
L 1409 3309 
L 1409 2516 
L 750 2516 
L 750 3309 
z
" transform="scale(0.015625)"/>
      <path id="DejaVuSans-53" d="M 3425 4513 
L 3425 3897 
Q 3066 4069 2747 4153 
Q 2428 4238 2131 4238 
Q 1616 4238 1336 4038 
Q 1056 3838 1056 3469 
Q 1056 3159 1242 3001 
Q 1428 2844 1947 2747 
L 2328 2669 
Q 3034 2534 3370 2195 
Q 3706 1856 3706 1288 
Q 3706 609 3251 259 
Q 2797 -91 1919 -91 
Q 1588 -91 1214 -16 
Q 841 59 441 206 
L 441 856 
Q 825 641 1194 531 
Q 1563 422 1919 422 
Q 2459 422 2753 634 
Q 3047 847 3047 1241 
Q 3047 1584 2836 1778 
Q 2625 1972 2144 2069 
L 1759 2144 
Q 1053 2284 737 2584 
Q 422 2884 422 3419 
Q 422 4038 858 4394 
Q 1294 4750 2059 4750 
Q 2388 4750 2728 4690 
Q 3069 4631 3425 4513 
z
" transform="scale(0.015625)"/>
      <path id="DejaVuSans-71" d="M 947 1747 
Q 947 1113 1208 752 
Q 1469 391 1925 391 
Q 2381 391 2643 752 
Q 2906 1113 2906 1747 
Q 2906 2381 2643 2742 
Q 2381 3103 1925 3103 
Q 1469 3103 1208 2742 
Q 947 2381 947 1747 
z
M 2906 525 
Q 2725 213 2448 61 
Q 2172 -91 1784 -91 
Q 1150 -91 751 415 
Q 353 922 353 1747 
Q 353 2572 751 3078 
Q 1150 3584 1784 3584 
Q 2172 3584 2448 3432 
Q 2725 3281 2906 2969 
L 2906 3500 
L 3481 3500 
L 3481 -1331 
L 2906 -1331 
L 2906 525 
z
" transform="scale(0.015625)"/>
      <path id="DejaVuSans-75" d="M 544 1381 
L 544 3500 
L 1119 3500 
L 1119 1403 
Q 1119 906 1312 657 
Q 1506 409 1894 409 
Q 2359 409 2629 706 
Q 2900 1003 2900 1516 
L 2900 3500 
L 3475 3500 
L 3475 0 
L 2900 0 
L 2900 538 
Q 2691 219 2414 64 
Q 2138 -91 1772 -91 
Q 1169 -91 856 284 
Q 544 659 544 1381 
z
M 1991 3584 
L 1991 3584 
z
" transform="scale(0.015625)"/>
      <path id="DejaVuSans-6f" d="M 1959 3097 
Q 1497 3097 1228 2736 
Q 959 2375 959 1747 
Q 959 1119 1226 758 
Q 1494 397 1959 397 
Q 2419 397 2687 759 
Q 2956 1122 2956 1747 
Q 2956 2369 2687 2733 
Q 2419 3097 1959 3097 
z
M 1959 3584 
Q 2709 3584 3137 3096 
Q 3566 2609 3566 1747 
Q 3566 888 3137 398 
Q 2709 -91 1959 -91 
Q 1206 -91 779 398 
Q 353 888 353 1747 
Q 353 2609 779 3096 
Q 1206 3584 1959 3584 
z
" transform="scale(0.015625)"/>
     </defs>
     <use xlink:href="#DejaVuSans-46"/>
     <use xlink:href="#DejaVuSans-61" x="48.394531"/>
     <use xlink:href="#DejaVuSans-73" x="109.673828"/>
     <use xlink:href="#DejaVuSans-74" x="161.773438"/>
     <use xlink:href="#DejaVuSans-51" x="200.982422"/>
     <use xlink:href="#DejaVuSans-43" x="279.693359"/>
     <use xlink:href="#DejaVuSans-3a" x="349.517578"/>
     <use xlink:href="#DejaVuSans-20" x="383.208984"/>
     <use xlink:href="#DejaVuSans-50" x="414.996094"/>
     <use xlink:href="#DejaVuSans-65" x="471.673828"/>
     <use xlink:href="#DejaVuSans-72" x="533.197266"/>
     <use xlink:href="#DejaVuSans-20" x="574.310547"/>
     <use xlink:href="#DejaVuSans-53" x="606.097656"/>
     <use xlink:href="#DejaVuSans-65" x="669.574219"/>
     <use xlink:href="#DejaVuSans-71" x="731.097656"/>
     <use xlink:href="#DejaVuSans-75" x="794.574219"/>
     <use xlink:href="#DejaVuSans-65" x="857.953125"/>
     <use xlink:href="#DejaVuSans-6e" x="919.476562"/>
     <use xlink:href="#DejaVuSans-63" x="982.855469"/>
     <use xlink:href="#DejaVuSans-65" x="1037.835938"/>
     <use xlink:href="#DejaVuSans-20" x="1099.359375"/>
     <use xlink:href="#DejaVuSans-47" x="1131.146484"/>
     <use xlink:href="#DejaVuSans-43" x="1208.636719"/>
     <use xlink:href="#DejaVuSans-20" x="1278.460938"/>
     <use xlink:href="#DejaVuSans-43" x="1310.248047"/>
     <use xlink:href="#DejaVuSans-6f" x="1380.072266"/>
     <use xlink:href="#DejaVuSans-6e" x="1441.253906"/>
     <use xlink:href="#DejaVuSans-74" x="1504.632812"/>
     <use xlink:href="#DejaVuSans-65" x="1543.841797"/>
     <use xlink:href="#DejaVuSans-6e" x="1605.365234"/>
     <use xlink:href="#DejaVuSans-74" x="1668.744141"/>
    </g>
   </g>
   <g id="legend_1">
    <g id="line2d_15">
     <path d="M 40.168125 303.490394 
L 48.168125 303.490394 
L 56.168125 303.490394 
" style="fill: none; stroke: #d9534f; stroke-linecap: square"/>
    </g>
    <g id="text_15">
     <!-- CONTROL_REP1_1 -->
     <g transform="translate(62.568125 306.290394) scale(0.08 -0.08)">
      <defs>
       <path id="DejaVuSans-4f" d="M 2522 4238 
Q 1834 4238 1429 3725 
Q 1025 3213 1025 2328 
Q 1025 1447 1429 934 
Q 1834 422 2522 422 
Q 3209 422 3611 934 
Q 4013 1447 4013 2328 
Q 4013 3213 3611 3725 
Q 3209 4238 2522 4238 
z
M 2522 4750 
Q 3503 4750 4090 4092 
Q 4678 3434 4678 2328 
Q 4678 1225 4090 567 
Q 3503 -91 2522 -91 
Q 1538 -91 948 565 
Q 359 1222 359 2328 
Q 359 3434 948 4092 
Q 1538 4750 2522 4750 
z
" transform="scale(0.015625)"/>
       <path id="DejaVuSans-4e" d="M 628 4666 
L 1478 4666 
L 3547 763 
L 3547 4666 
L 4159 4666 
L 4159 0 
L 3309 0 
L 1241 3903 
L 1241 0 
L 628 0 
L 628 4666 
z
" transform="scale(0.015625)"/>
       <path id="DejaVuSans-54" d="M -19 4666 
L 3928 4666 
L 3928 4134 
L 2272 4134 
L 2272 0 
L 1638 0 
L 1638 4134 
L -19 4134 
L -19 4666 
z
" transform="scale(0.015625)"/>
       <path id="DejaVuSans-52" d="M 2841 2188 
Q 3044 2119 3236 1894 
Q 3428 1669 3622 1275 
L 4263 0 
L 3584 0 
L 2988 1197 
Q 2756 1666 2539 1819 
Q 2322 1972 1947 1972 
L 1259 1972 
L 1259 0 
L 628 0 
L 628 4666 
L 2053 4666 
Q 2853 4666 3247 4331 
Q 3641 3997 3641 3322 
Q 3641 2881 3436 2590 
Q 3231 2300 2841 2188 
z
M 1259 4147 
L 1259 2491 
L 2053 2491 
Q 2509 2491 2742 2702 
Q 2975 2913 2975 3322 
Q 2975 3731 2742 3939 
Q 2509 4147 2053 4147 
L 1259 4147 
z
" transform="scale(0.015625)"/>
       <path id="DejaVuSans-4c" d="M 628 4666 
L 1259 4666 
L 1259 531 
L 3531 531 
L 3531 0 
L 628 0 
L 628 4666 
z
" transform="scale(0.015625)"/>
       <path id="DejaVuSans-5f" d="M 3263 -1063 
L 3263 -1509 
L -63 -1509 
L -63 -1063 
L 3263 -1063 
z
" transform="scale(0.015625)"/>
       <path id="DejaVuSans-45" d="M 628 4666 
L 3578 4666 
L 3578 4134 
L 1259 4134 
L 1259 2753 
L 3481 2753 
L 3481 2222 
L 1259 2222 
L 1259 531 
L 3634 531 
L 3634 0 
L 628 0 
L 628 4666 
z
" transform="scale(0.015625)"/>
      </defs>
      <use xlink:href="#DejaVuSans-43"/>
      <use xlink:href="#DejaVuSans-4f" x="69.824219"/>
      <use xlink:href="#DejaVuSans-4e" x="148.535156"/>
      <use xlink:href="#DejaVuSans-54" x="223.339844"/>
      <use xlink:href="#DejaVuSans-52" x="284.423828"/>
      <use xlink:href="#DejaVuSans-4f" x="353.90625"/>
      <use xlink:href="#DejaVuSans-4c" x="432.617188"/>
      <use xlink:href="#DejaVuSans-5f" x="488.330078"/>
      <use xlink:href="#DejaVuSans-52" x="538.330078"/>
      <use xlink:href="#DejaVuSans-45" x="607.8125"/>
      <use xlink:href="#DejaVuSans-50" x="670.996094"/>
      <use xlink:href="#DejaVuSans-31" x="731.298828"/>
      <use xlink:href="#DejaVuSans-5f" x="794.921875"/>
      <use xlink:href="#DejaVuSans-31" x="844.921875"/>
     </g>
    </g>
    <g id="line2d_16">
     <path d="M 40.168125 315.455394 
L 48.168125 315.455394 
L 56.168125 315.455394 
" style="fill: none; stroke: #d9534f; stroke-linecap: square"/>
    </g>
    <g id="text_16">
     <!-- CONTROL_REP1_2 -->
     <g transform="translate(62.568125 318.255394) scale(0.08 -0.08)">
      <use xlink:href="#DejaVuSans-43"/>
      <use xlink:href="#DejaVuSans-4f" x="69.824219"/>
      <use xlink:href="#DejaVuSans-4e" x="148.535156"/>
      <use xlink:href="#DejaVuSans-54" x="223.339844"/>
      <use xlink:href="#DejaVuSans-52" x="284.423828"/>
      <use xlink:href="#DejaVuSans-4f" x="353.90625"/>
      <use xlink:href="#DejaVuSans-4c" x="432.617188"/>
      <use xlink:href="#DejaVuSans-5f" x="488.330078"/>
      <use xlink:href="#DejaVuSans-52" x="538.330078"/>
      <use xlink:href="#DejaVuSans-45" x="607.8125"/>
      <use xlink:href="#DejaVuSans-50" x="670.996094"/>
      <use xlink:href="#DejaVuSans-31" x="731.298828"/>
      <use xlink:href="#DejaVuSans-5f" x="794.921875"/>
      <use xlink:href="#DejaVuSans-32" x="844.921875"/>
     </g>
    </g>
    <g id="line2d_17">
     <path d="M 250.920312 303.490394 
L 258.920313 303.490394 
L 266.920313 303.490394 
" style="fill: none; stroke: #d9534f; stroke-linecap: square"/>
    </g>
    <g id="text_17">
     <!-- CONTROL_REP2_1 -->
     <g transform="translate(273.320312 306.290394) scale(0.08 -0.08)">
      <use xlink:href="#DejaVuSans-43"/>
      <use xlink:href="#DejaVuSans-4f" x="69.824219"/>
      <use xlink:href="#DejaVuSans-4e" x="148.535156"/>
      <use xlink:href="#DejaVuSans-54" x="223.339844"/>
      <use xlink:href="#DejaVuSans-52" x="284.423828"/>
      <use xlink:href="#DejaVuSans-4f" x="353.90625"/>
      <use xlink:href="#DejaVuSans-4c" x="432.617188"/>
      <use xlink:href="#DejaVuSans-5f" x="488.330078"/>
      <use xlink:href="#DejaVuSans-52" x="538.330078"/>
      <use xlink:href="#DejaVuSans-45" x="607.8125"/>
      <use xlink:href="#DejaVuSans-50" x="670.996094"/>
      <use xlink:href="#DejaVuSans-32" x="731.298828"/>
      <use xlink:href="#DejaVuSans-5f" x="794.921875"/>
      <use xlink:href="#DejaVuSans-31" x="844.921875"/>
     </g>
    </g>
    <g id="line2d_18">
     <path d="M 250.920312 315.455394 
L 258.920313 315.455394 
L 266.920313 315.455394 
" style="fill: none; stroke: #d9534f; stroke-linecap: square"/>
    </g>
    <g id="text_18">
     <!-- CONTROL_REP2_2 -->
     <g transform="translate(273.320312 318.255394) scale(0.08 -0.08)">
      <use xlink:href="#DejaVuSans-43"/>
      <use xlink:href="#DejaVuSans-4f" x="69.824219"/>
      <use xlink:href="#DejaVuSans-4e" x="148.535156"/>
      <use xlink:href="#DejaVuSans-54" x="223.339844"/>
      <use xlink:href="#DejaVuSans-52" x="284.423828"/>
      <use xlink:href="#DejaVuSans-4f" x="353.90625"/>
      <use xlink:href="#DejaVuSans-4c" x="432.617188"/>
      <use xlink:href="#DejaVuSans-5f" x="488.330078"/>
      <use xlink:href="#DejaVuSans-52" x="538.330078"/>
      <use xlink:href="#DejaVuSans-45" x="607.8125"/>
      <use xlink:href="#DejaVuSans-50" x="670.996094"/>
      <use xlink:href="#DejaVuSans-32" x="731.298828"/>
      <use xlink:href="#DejaVuSans-5f" x="794.921875"/>
      <use xlink:href="#DejaVuSans-32" x="844.921875"/>
     </g>
    </g>
    <g id="line2d_19">
     <path d="M 461.6725 303.490394 
L 469.6725 303.490394 
L 477.6725 303.490394 
" style="fill: none; stroke: #d9534f; stroke-linecap: square"/>
    </g>
    <g id="text_19">
     <!-- CONTROL_REP3_1 -->
     <g transform="translate(484.0725 306.290394) scale(0.08 -0.08)">
      <defs>
       <path id="DejaVuSans-33" d="M 2597 2516 
Q 3050 2419 3304 2112 
Q 3559 1806 3559 1356 
Q 3559 666 3084 287 
Q 2609 -91 1734 -91 
Q 1441 -91 1130 -33 
Q 819 25 488 141 
L 488 750 
Q 750 597 1062 519 
Q 1375 441 1716 441 
Q 2309 441 2620 675 
Q 2931 909 2931 1356 
Q 2931 1769 2642 2001 
Q 2353 2234 1838 2234 
L 1294 2234 
L 1294 2753 
L 1863 2753 
Q 2328 2753 2575 2939 
Q 2822 3125 2822 3475 
Q 2822 3834 2567 4026 
Q 2313 4219 1838 4219 
Q 1578 4219 1281 4162 
Q 984 4106 628 3988 
L 628 4550 
Q 988 4650 1302 4700 
Q 1616 4750 1894 4750 
Q 2613 4750 3031 4423 
Q 3450 4097 3450 3541 
Q 3450 3153 3228 2886 
Q 3006 2619 2597 2516 
z
" transform="scale(0.015625)"/>
      </defs>
      <use xlink:href="#DejaVuSans-43"/>
      <use xlink:href="#DejaVuSans-4f" x="69.824219"/>
      <use xlink:href="#DejaVuSans-4e" x="148.535156"/>
      <use xlink:href="#DejaVuSans-54" x="223.339844"/>
      <use xlink:href="#DejaVuSans-52" x="284.423828"/>
      <use xlink:href="#DejaVuSans-4f" x="353.90625"/>
      <use xlink:href="#DejaVuSans-4c" x="432.617188"/>
      <use xlink:href="#DejaVuSans-5f" x="488.330078"/>
      <use xlink:href="#DejaVuSans-52" x="538.330078"/>
      <use xlink:href="#DejaVuSans-45" x="607.8125"/>
      <use xlink:href="#DejaVuSans-50" x="670.996094"/>
      <use xlink:href="#DejaVuSans-33" x="731.298828"/>
      <use xlink:href="#DejaVuSans-5f" x="794.921875"/>
      <use xlink:href="#DejaVuSans-31" x="844.921875"/>
     </g>
    </g>
    <g id="line2d_20">
     <path d="M 461.6725 315.455394 
L 469.6725 315.455394 
L 477.6725 315.455394 
" style="fill: none; stroke: #d9534f; stroke-linecap: square"/>
    </g>
    <g id="text_20">
     <!-- CONTROL_REP3_2 -->
     <g transform="translate(484.0725 318.255394) scale(0.08 -0.08)">
      <use xlink:href="#DejaVuSans-43"/>
      <use xlink:href="#DejaVuSans-4f" x="69.824219"/>
      <use xlink:href="#DejaVuSans-4e" x="148.535156"/>
      <use xlink:href="#DejaVuSans-54" x="223.339844"/>
      <use xlink:href="#DejaVuSans-52" x="284.423828"/>
      <use xlink:href="#DejaVuSans-4f" x="353.90625"/>
      <use xlink:href="#DejaVuSans-4c" x="432.617188"/>
      <use xlink:href="#DejaVuSans-5f" x="488.330078"/>
      <use xlink:href="#DejaVuSans-52" x="538.330078"/>
      <use xlink:href="#DejaVuSans-45" x="607.8125"/>
      <use xlink:href="#DejaVuSans-50" x="670.996094"/>
      <use xlink:href="#DejaVuSans-33" x="731.298828"/>
      <use xlink:href="#DejaVuSans-5f" x="794.921875"/>
      <use xlink:href="#DejaVuSans-32" x="844.921875"/>
     </g>
    </g>
    <g id="line2d_21">
     <path d="M 672.424688 303.490394 
L 680.424688 303.490394 
L 688.424688 303.490394 
" style="fill: none; stroke: #d9534f; stroke-linecap: square"/>
    </g>
    <g id="text_21">
     <!-- CONTROL_REP4_1 -->
     <g transform="translate(694.824688 306.290394) scale(0.08 -0.08)">
      <use xlink:href="#DejaVuSans-43"/>
      <use xlink:href="#DejaVuSans-4f" x="69.824219"/>
      <use xlink:href="#DejaVuSans-4e" x="148.535156"/>
      <use xlink:href="#DejaVuSans-54" x="223.339844"/>
      <use xlink:href="#DejaVuSans-52" x="284.423828"/>
      <use xlink:href="#DejaVuSans-4f" x="353.90625"/>
      <use xlink:href="#DejaVuSans-4c" x="432.617188"/>
      <use xlink:href="#DejaVuSans-5f" x="488.330078"/>
      <use xlink:href="#DejaVuSans-52" x="538.330078"/>
      <use xlink:href="#DejaVuSans-45" x="607.8125"/>
      <use xlink:href="#DejaVuSans-50" x="670.996094"/>
      <use xlink:href="#DejaVuSans-34" x="731.298828"/>
      <use xlink:href="#DejaVuSans-5f" x="794.921875"/>
      <use xlink:href="#DejaVuSans-31" x="844.921875"/>
     </g>
    </g>
    <g id="line2d_22">
     <path d="M 883.176875 303.490394 
L 891.176875 303.490394 
L 899.176875 303.490394 
" style="fill: none; stroke: #d9534f; stroke-linecap: square"/>
    </g>
    <g id="text_22">
     <!-- CONTROL_REP4_2 -->
     <g transform="translate(905.576875 306.290394) scale(0.08 -0.08)">
      <use xlink:href="#DejaVuSans-43"/>
      <use xlink:href="#DejaVuSans-4f" x="69.824219"/>
      <use xlink:href="#DejaVuSans-4e" x="148.535156"/>
      <use xlink:href="#DejaVuSans-54" x="223.339844"/>
      <use xlink:href="#DejaVuSans-52" x="284.423828"/>
      <use xlink:href="#DejaVuSans-4f" x="353.90625"/>
      <use xlink:href="#DejaVuSans-4c" x="432.617188"/>
      <use xlink:href="#DejaVuSans-5f" x="488.330078"/>
      <use xlink:href="#DejaVuSans-52" x="538.330078"/>
      <use xlink:href="#DejaVuSans-45" x="607.8125"/>
      <use xlink:href="#DejaVuSans-50" x="670.996094"/>
      <use xlink:href="#DejaVuSans-34" x="731.298828"/>
      <use xlink:href="#DejaVuSans-5f" x="794.921875"/>
      <use xlink:href="#DejaVuSans-32" x="844.921875"/>
     </g>
    </g>
   </g>
  </g>
 </g>
 <defs>
  <clipPath id="p9efdffc266">
   <rect x="32.968125" y="31.48286" width="952.495" height="242.5072"/>
  </clipPath>
 </defs>
</svg>
