<?xml version="1.0" encoding="utf-8" standalone="no"?>
<!DOCTYPE svg PUBLIC "-//W3C//DTD SVG 1.1//EN"
  "http://www.w3.org/Graphics/SVG/1.1/DTD/svg11.dtd">
<svg xmlns:xlink="http://www.w3.org/1999/xlink" width="1000.258125pt" height="330.541644pt" viewBox="0 0 1000.258125 330.541644" xmlns="http://www.w3.org/2000/svg" version="1.1">
 <metadata>
  <rdf:RDF xmlns:dc="http://purl.org/dc/elements/1.1/" xmlns:cc="http://creativecommons.org/ns#" xmlns:rdf="http://www.w3.org/1999/02/22-rdf-syntax-ns#">
   <cc:Work>
    <dc:type rdf:resource="http://purl.org/dc/dcmitype/StillImage"/>
    <dc:date>2024-06-12T15:58:04.462361</dc:date>
    <dc:format>image/svg+xml</dc:format>
    <dc:creator>
     <cc:Agent>
      <dc:title>Matplotlib v3.8.2, https://matplotlib.org/</dc:title>
     </cc:Agent>
    </dc:creator>
   </cc:Work>
  </rdf:RDF>
 </metadata>
 <defs>
  <style type="text/css">*{stroke-linejoin: round; stroke-linecap: butt}</style>
 </defs>
 <g id="figure_1">
  <g id="axes_1">
   <g id="patch_1">
    <path d="M 38.058125 273.99006 
L 985.423125 273.99006 
L 985.423125 31.48286 
L 38.058125 31.48286 
z
" style="fill: #ffffff"/>
   </g>
   <g id="matplotlib.axis_1">
    <g id="xtick_1">
     <g id="text_1">
      <!-- 0 -->
      <g transform="translate(35.513125 287.06881) scale(0.08 -0.08)">
       <defs>
        <path id="DejaVuSans-30" d="M 2034 4250 
Q 1547 4250 1301 3770 
Q 1056 3291 1056 2328 
Q 1056 1369 1301 889 
Q 1547 409 2034 409 
Q 2525 409 2770 889 
Q 3016 1369 3016 2328 
Q 3016 3291 2770 3770 
Q 2525 4250 2034 4250 
z
M 2034 4750 
Q 2819 4750 3233 4129 
Q 3647 3509 3647 2328 
Q 3647 1150 3233 529 
Q 2819 -91 2034 -91 
Q 1250 -91 836 529 
Q 422 1150 422 2328 
Q 422 3509 836 4129 
Q 1250 4750 2034 4750 
z
" transform="scale(0.015625)"/>
       </defs>
       <use xlink:href="#DejaVuSans-30"/>
      </g>
     </g>
    </g>
    <g id="xtick_2">
     <g id="text_2">
      <!-- 20 -->
      <g transform="translate(222.441125 287.06881) scale(0.08 -0.08)">
       <defs>
        <path id="DejaVuSans-32" d="M 1228 531 
L 3431 531 
L 3431 0 
L 469 0 
L 469 531 
Q 828 903 1448 1529 
Q 2069 2156 2228 2338 
Q 2531 2678 2651 2914 
Q 2772 3150 2772 3378 
Q 2772 3750 2511 3984 
Q 2250 4219 1831 4219 
Q 1534 4219 1204 4116 
Q 875 4013 500 3803 
L 500 4441 
Q 881 4594 1212 4672 
Q 1544 4750 1819 4750 
Q 2544 4750 2975 4387 
Q 3406 4025 3406 3419 
Q 3406 3131 3298 2873 
Q 3191 2616 2906 2266 
Q 2828 2175 2409 1742 
Q 1991 1309 1228 531 
z
" transform="scale(0.015625)"/>
       </defs>
       <use xlink:href="#DejaVuSans-32"/>
       <use xlink:href="#DejaVuSans-30" x="63.623047"/>
      </g>
     </g>
    </g>
    <g id="xtick_3">
     <g id="text_3">
      <!-- 40 -->
      <g transform="translate(411.914125 287.06881) scale(0.08 -0.08)">
       <defs>
        <path id="DejaVuSans-34" d="M 2419 4116 
L 825 1625 
L 2419 1625 
L 2419 4116 
z
M 2253 4666 
L 3047 4666 
L 3047 1625 
L 3713 1625 
L 3713 1100 
L 3047 1100 
L 3047 0 
L 2419 0 
L 2419 1100 
L 313 1100 
L 313 1709 
L 2253 4666 
z
" transform="scale(0.015625)"/>
       </defs>
       <use xlink:href="#DejaVuSans-34"/>
       <use xlink:href="#DejaVuSans-30" x="63.623047"/>
      </g>
     </g>
    </g>
    <g id="xtick_4">
     <g id="text_4">
      <!-- 60 -->
      <g transform="translate(601.387125 287.06881) scale(0.08 -0.08)">
       <defs>
        <path id="DejaVuSans-36" d="M 2113 2584 
Q 1688 2584 1439 2293 
Q 1191 2003 1191 1497 
Q 1191 994 1439 701 
Q 1688 409 2113 409 
Q 2538 409 2786 701 
Q 3034 994 3034 1497 
Q 3034 2003 2786 2293 
Q 2538 2584 2113 2584 
z
M 3366 4563 
L 3366 3988 
Q 3128 4100 2886 4159 
Q 2644 4219 2406 4219 
Q 1781 4219 1451 3797 
Q 1122 3375 1075 2522 
Q 1259 2794 1537 2939 
Q 1816 3084 2150 3084 
Q 2853 3084 3261 2657 
Q 3669 2231 3669 1497 
Q 3669 778 3244 343 
Q 2819 -91 2113 -91 
Q 1303 -91 875 529 
Q 447 1150 447 2328 
Q 447 3434 972 4092 
Q 1497 4750 2381 4750 
Q 2619 4750 2861 4703 
Q 3103 4656 3366 4563 
z
" transform="scale(0.015625)"/>
       </defs>
       <use xlink:href="#DejaVuSans-36"/>
       <use xlink:href="#DejaVuSans-30" x="63.623047"/>
      </g>
     </g>
    </g>
    <g id="xtick_5">
     <g id="text_5">
      <!-- 80 -->
      <g transform="translate(790.860125 287.06881) scale(0.08 -0.08)">
       <defs>
        <path id="DejaVuSans-38" d="M 2034 2216 
Q 1584 2216 1326 1975 
Q 1069 1734 1069 1313 
Q 1069 891 1326 650 
Q 1584 409 2034 409 
Q 2484 409 2743 651 
Q 3003 894 3003 1313 
Q 3003 1734 2745 1975 
Q 2488 2216 2034 2216 
z
M 1403 2484 
Q 997 2584 770 2862 
Q 544 3141 544 3541 
Q 544 4100 942 4425 
Q 1341 4750 2034 4750 
Q 2731 4750 3128 4425 
Q 3525 4100 3525 3541 
Q 3525 3141 3298 2862 
Q 3072 2584 2669 2484 
Q 3125 2378 3379 2068 
Q 3634 1759 3634 1313 
Q 3634 634 3220 271 
Q 2806 -91 2034 -91 
Q 1263 -91 848 271 
Q 434 634 434 1313 
Q 434 1759 690 2068 
Q 947 2378 1403 2484 
z
M 1172 3481 
Q 1172 3119 1398 2916 
Q 1625 2713 2034 2713 
Q 2441 2713 2670 2916 
Q 2900 3119 2900 3481 
Q 2900 3844 2670 4047 
Q 2441 4250 2034 4250 
Q 1625 4250 1398 4047 
Q 1172 3844 1172 3481 
z
" transform="scale(0.015625)"/>
       </defs>
       <use xlink:href="#DejaVuSans-38"/>
       <use xlink:href="#DejaVuSans-30" x="63.623047"/>
      </g>
     </g>
    </g>
    <g id="xtick_6">
     <g id="text_6">
      <!-- 100 -->
      <g transform="translate(977.788125 287.06881) scale(0.08 -0.08)">
       <defs>
        <path id="DejaVuSans-31" d="M 794 531 
L 1825 531 
L 1825 4091 
L 703 3866 
L 703 4441 
L 1819 4666 
L 2450 4666 
L 2450 531 
L 3481 531 
L 3481 0 
L 794 0 
L 794 531 
z
" transform="scale(0.015625)"/>
       </defs>
       <use xlink:href="#DejaVuSans-31"/>
       <use xlink:href="#DejaVuSans-30" x="63.623047"/>
       <use xlink:href="#DejaVuSans-30" x="127.246094"/>
      </g>
     </g>
    </g>
    <g id="text_7">
     <!-- % GC -->
     <g transform="translate(498.035156 300.330997) scale(0.1 -0.1)">
      <defs>
       <path id="DejaVuSans-25" d="M 4653 2053 
Q 4381 2053 4226 1822 
Q 4072 1591 4072 1178 
Q 4072 772 4226 539 
Q 4381 306 4653 306 
Q 4919 306 5073 539 
Q 5228 772 5228 1178 
Q 5228 1588 5073 1820 
Q 4919 2053 4653 2053 
z
M 4653 2450 
Q 5147 2450 5437 2106 
Q 5728 1763 5728 1178 
Q 5728 594 5436 251 
Q 5144 -91 4653 -91 
Q 4153 -91 3862 251 
Q 3572 594 3572 1178 
Q 3572 1766 3864 2108 
Q 4156 2450 4653 2450 
z
M 1428 4353 
Q 1159 4353 1004 4120 
Q 850 3888 850 3481 
Q 850 3069 1003 2837 
Q 1156 2606 1428 2606 
Q 1700 2606 1854 2837 
Q 2009 3069 2009 3481 
Q 2009 3884 1853 4118 
Q 1697 4353 1428 4353 
z
M 4250 4750 
L 4750 4750 
L 1831 -91 
L 1331 -91 
L 4250 4750 
z
M 1428 4750 
Q 1922 4750 2215 4408 
Q 2509 4066 2509 3481 
Q 2509 2891 2217 2550 
Q 1925 2209 1428 2209 
Q 931 2209 642 2551 
Q 353 2894 353 3481 
Q 353 4063 643 4406 
Q 934 4750 1428 4750 
z
" transform="scale(0.015625)"/>
       <path id="DejaVuSans-20" transform="scale(0.015625)"/>
       <path id="DejaVuSans-47" d="M 3809 666 
L 3809 1919 
L 2778 1919 
L 2778 2438 
L 4434 2438 
L 4434 434 
Q 4069 175 3628 42 
Q 3188 -91 2688 -91 
Q 1594 -91 976 548 
Q 359 1188 359 2328 
Q 359 3472 976 4111 
Q 1594 4750 2688 4750 
Q 3144 4750 3555 4637 
Q 3966 4525 4313 4306 
L 4313 3634 
Q 3963 3931 3569 4081 
Q 3175 4231 2741 4231 
Q 1884 4231 1454 3753 
Q 1025 3275 1025 2328 
Q 1025 1384 1454 906 
Q 1884 428 2741 428 
Q 3075 428 3337 486 
Q 3600 544 3809 666 
z
" transform="scale(0.015625)"/>
       <path id="DejaVuSans-43" d="M 4122 4306 
L 4122 3641 
Q 3803 3938 3442 4084 
Q 3081 4231 2675 4231 
Q 1875 4231 1450 3742 
Q 1025 3253 1025 2328 
Q 1025 1406 1450 917 
Q 1875 428 2675 428 
Q 3081 428 3442 575 
Q 3803 722 4122 1019 
L 4122 359 
Q 3791 134 3420 21 
Q 3050 -91 2638 -91 
Q 1578 -91 968 557 
Q 359 1206 359 2328 
Q 359 3453 968 4101 
Q 1578 4750 2638 4750 
Q 3056 4750 3426 4639 
Q 3797 4528 4122 4306 
z
" transform="scale(0.015625)"/>
      </defs>
      <use xlink:href="#DejaVuSans-25"/>
      <use xlink:href="#DejaVuSans-20" x="95.019531"/>
      <use xlink:href="#DejaVuSans-47" x="126.806641"/>
      <use xlink:href="#DejaVuSans-43" x="204.296875"/>
     </g>
    </g>
   </g>
   <g id="matplotlib.axis_2">
    <g id="ytick_1">
     <g id="line2d_1">
      <path d="M 38.058125 273.99006 
L 985.423125 273.99006 
" clip-path="url(#p5a590a7190)" style="fill: none; stroke: #dedede; stroke-linecap: square"/>
     </g>
     <g id="text_8">
      <!-- 0 -->
      <g transform="translate(25.968125 277.029435) scale(0.08 -0.08)">
       <use xlink:href="#DejaVuSans-30"/>
      </g>
     </g>
    </g>
    <g id="ytick_2">
     <g id="line2d_2">
      <path d="M 38.058125 225.706436 
L 985.423125 225.706436 
" clip-path="url(#p5a590a7190)" style="fill: none; stroke: #dedede; stroke-linecap: square"/>
     </g>
     <g id="text_9">
      <!-- 2 -->
      <g transform="translate(25.968125 228.745811) scale(0.08 -0.08)">
       <use xlink:href="#DejaVuSans-32"/>
      </g>
     </g>
    </g>
    <g id="ytick_3">
     <g id="line2d_3">
      <path d="M 38.058125 177.422813 
L 985.423125 177.422813 
" clip-path="url(#p5a590a7190)" style="fill: none; stroke: #dedede; stroke-linecap: square"/>
     </g>
     <g id="text_10">
      <!-- 4 -->
      <g transform="translate(25.968125 180.462188) scale(0.08 -0.08)">
       <use xlink:href="#DejaVuSans-34"/>
      </g>
     </g>
    </g>
    <g id="ytick_4">
     <g id="line2d_4">
      <path d="M 38.058125 129.139189 
L 985.423125 129.139189 
" clip-path="url(#p5a590a7190)" style="fill: none; stroke: #dedede; stroke-linecap: square"/>
     </g>
     <g id="text_11">
      <!-- 6 -->
      <g transform="translate(25.968125 132.178564) scale(0.08 -0.08)">
       <use xlink:href="#DejaVuSans-36"/>
      </g>
     </g>
    </g>
    <g id="ytick_5">
     <g id="line2d_5">
      <path d="M 38.058125 80.855565 
L 985.423125 80.855565 
" clip-path="url(#p5a590a7190)" style="fill: none; stroke: #dedede; stroke-linecap: square"/>
     </g>
     <g id="text_12">
      <!-- 8 -->
      <g transform="translate(25.968125 83.89494) scale(0.08 -0.08)">
       <use xlink:href="#DejaVuSans-38"/>
      </g>
     </g>
    </g>
    <g id="ytick_6">
     <g id="line2d_6">
      <path d="M 38.058125 32.571942 
L 985.423125 32.571942 
" clip-path="url(#p5a590a7190)" style="fill: none; stroke: #dedede; stroke-linecap: square"/>
     </g>
     <g id="text_13">
      <!-- 10 -->
      <g transform="translate(20.878125 35.611317) scale(0.08 -0.08)">
       <use xlink:href="#DejaVuSans-31"/>
       <use xlink:href="#DejaVuSans-30" x="63.623047"/>
      </g>
     </g>
    </g>
    <g id="text_14">
     <!-- Percentage -->
     <g transform="translate(14.798438 180.859116) rotate(-90) scale(0.1 -0.1)">
      <defs>
       <path id="DejaVuSans-50" d="M 1259 4147 
L 1259 2394 
L 2053 2394 
Q 2494 2394 2734 2622 
Q 2975 2850 2975 3272 
Q 2975 3691 2734 3919 
Q 2494 4147 2053 4147 
L 1259 4147 
z
M 628 4666 
L 2053 4666 
Q 2838 4666 3239 4311 
Q 3641 3956 3641 3272 
Q 3641 2581 3239 2228 
Q 2838 1875 2053 1875 
L 1259 1875 
L 1259 0 
L 628 0 
L 628 4666 
z
" transform="scale(0.015625)"/>
       <path id="DejaVuSans-65" d="M 3597 1894 
L 3597 1613 
L 953 1613 
Q 991 1019 1311 708 
Q 1631 397 2203 397 
Q 2534 397 2845 478 
Q 3156 559 3463 722 
L 3463 178 
Q 3153 47 2828 -22 
Q 2503 -91 2169 -91 
Q 1331 -91 842 396 
Q 353 884 353 1716 
Q 353 2575 817 3079 
Q 1281 3584 2069 3584 
Q 2775 3584 3186 3129 
Q 3597 2675 3597 1894 
z
M 3022 2063 
Q 3016 2534 2758 2815 
Q 2500 3097 2075 3097 
Q 1594 3097 1305 2825 
Q 1016 2553 972 2059 
L 3022 2063 
z
" transform="scale(0.015625)"/>
       <path id="DejaVuSans-72" d="M 2631 2963 
Q 2534 3019 2420 3045 
Q 2306 3072 2169 3072 
Q 1681 3072 1420 2755 
Q 1159 2438 1159 1844 
L 1159 0 
L 581 0 
L 581 3500 
L 1159 3500 
L 1159 2956 
Q 1341 3275 1631 3429 
Q 1922 3584 2338 3584 
Q 2397 3584 2469 3576 
Q 2541 3569 2628 3553 
L 2631 2963 
z
" transform="scale(0.015625)"/>
       <path id="DejaVuSans-63" d="M 3122 3366 
L 3122 2828 
Q 2878 2963 2633 3030 
Q 2388 3097 2138 3097 
Q 1578 3097 1268 2742 
Q 959 2388 959 1747 
Q 959 1106 1268 751 
Q 1578 397 2138 397 
Q 2388 397 2633 464 
Q 2878 531 3122 666 
L 3122 134 
Q 2881 22 2623 -34 
Q 2366 -91 2075 -91 
Q 1284 -91 818 406 
Q 353 903 353 1747 
Q 353 2603 823 3093 
Q 1294 3584 2113 3584 
Q 2378 3584 2631 3529 
Q 2884 3475 3122 3366 
z
" transform="scale(0.015625)"/>
       <path id="DejaVuSans-6e" d="M 3513 2113 
L 3513 0 
L 2938 0 
L 2938 2094 
Q 2938 2591 2744 2837 
Q 2550 3084 2163 3084 
Q 1697 3084 1428 2787 
Q 1159 2491 1159 1978 
L 1159 0 
L 581 0 
L 581 3500 
L 1159 3500 
L 1159 2956 
Q 1366 3272 1645 3428 
Q 1925 3584 2291 3584 
Q 2894 3584 3203 3211 
Q 3513 2838 3513 2113 
z
" transform="scale(0.015625)"/>
       <path id="DejaVuSans-74" d="M 1172 4494 
L 1172 3500 
L 2356 3500 
L 2356 3053 
L 1172 3053 
L 1172 1153 
Q 1172 725 1289 603 
Q 1406 481 1766 481 
L 2356 481 
L 2356 0 
L 1766 0 
Q 1100 0 847 248 
Q 594 497 594 1153 
L 594 3053 
L 172 3053 
L 172 3500 
L 594 3500 
L 594 4494 
L 1172 4494 
z
" transform="scale(0.015625)"/>
       <path id="DejaVuSans-61" d="M 2194 1759 
Q 1497 1759 1228 1600 
Q 959 1441 959 1056 
Q 959 750 1161 570 
Q 1363 391 1709 391 
Q 2188 391 2477 730 
Q 2766 1069 2766 1631 
L 2766 1759 
L 2194 1759 
z
M 3341 1997 
L 3341 0 
L 2766 0 
L 2766 531 
Q 2569 213 2275 61 
Q 1981 -91 1556 -91 
Q 1019 -91 701 211 
Q 384 513 384 1019 
Q 384 1609 779 1909 
Q 1175 2209 1959 2209 
L 2766 2209 
L 2766 2266 
Q 2766 2663 2505 2880 
Q 2244 3097 1772 3097 
Q 1472 3097 1187 3025 
Q 903 2953 641 2809 
L 641 3341 
Q 956 3463 1253 3523 
Q 1550 3584 1831 3584 
Q 2591 3584 2966 3190 
Q 3341 2797 3341 1997 
z
" transform="scale(0.015625)"/>
       <path id="DejaVuSans-67" d="M 2906 1791 
Q 2906 2416 2648 2759 
Q 2391 3103 1925 3103 
Q 1463 3103 1205 2759 
Q 947 2416 947 1791 
Q 947 1169 1205 825 
Q 1463 481 1925 481 
Q 2391 481 2648 825 
Q 2906 1169 2906 1791 
z
M 3481 434 
Q 3481 -459 3084 -895 
Q 2688 -1331 1869 -1331 
Q 1566 -1331 1297 -1286 
Q 1028 -1241 775 -1147 
L 775 -588 
Q 1028 -725 1275 -790 
Q 1522 -856 1778 -856 
Q 2344 -856 2625 -561 
Q 2906 -266 2906 331 
L 2906 616 
Q 2728 306 2450 153 
Q 2172 0 1784 0 
Q 1141 0 747 490 
Q 353 981 353 1791 
Q 353 2603 747 3093 
Q 1141 3584 1784 3584 
Q 2172 3584 2450 3431 
Q 2728 3278 2906 2969 
L 2906 3500 
L 3481 3500 
L 3481 434 
z
" transform="scale(0.015625)"/>
      </defs>
      <use xlink:href="#DejaVuSans-50"/>
      <use xlink:href="#DejaVuSans-65" x="56.677734"/>
      <use xlink:href="#DejaVuSans-72" x="118.201172"/>
      <use xlink:href="#DejaVuSans-63" x="157.064453"/>
      <use xlink:href="#DejaVuSans-65" x="212.044922"/>
      <use xlink:href="#DejaVuSans-6e" x="273.568359"/>
      <use xlink:href="#DejaVuSans-74" x="336.947266"/>
      <use xlink:href="#DejaVuSans-61" x="376.15625"/>
      <use xlink:href="#DejaVuSans-67" x="437.435547"/>
      <use xlink:href="#DejaVuSans-65" x="500.912109"/>
     </g>
    </g>
   </g>
   <g id="line2d_7">
    <path d="M 38.058125 273.99006 
L 47.531775 273.99006 
L 57.005425 273.99006 
L 66.479075 273.99006 
L 75.952725 273.99006 
L 85.426375 273.99006 
L 94.900025 273.99006 
L 104.373675 273.99006 
L 113.847325 273.99006 
L 123.320975 273.99006 
L 132.794625 273.984144 
L 142.268275 273.966398 
L 151.741925 273.942736 
L 161.215575 273.919074 
L 170.689225 273.812595 
L 180.162875 273.504988 
L 189.636525 273.055408 
L 199.110175 271.541036 
L 208.583825 269.908354 
L 218.057475 269.961594 
L 227.531125 270.511737 
L 237.004775 270.275116 
L 246.478425 270.174552 
L 255.952075 270.789766 
L 265.425725 270.996809 
L 274.899375 270.996809 
L 284.373025 270.789766 
L 293.846675 269.429197 
L 303.320325 267.97398 
L 312.793975 264.365516 
L 322.267625 264.637629 
L 331.741275 268.902716 
L 341.214925 269.512014 
L 350.688575 268.476799 
L 360.162225 267.648627 
L 369.635875 266.02186 
L 379.109525 262.519875 
L 388.583175 264.744109 
L 398.056825 264.844672 
L 407.530475 258.313943 
L 417.004125 235.166529 
L 426.477775 203.820211 
L 435.951425 190.321003 
L 445.425075 190.770583 
L 454.898725 214.58645 
L 464.372375 234.237793 
L 473.846025 238.757247 
L 483.319675 247.021223 
L 492.793325 252.534484 
L 502.266975 257.893941 
L 511.740625 259.195355 
L 521.214275 244.992201 
L 530.687925 220.507881 
L 540.161575 203.672323 
L 549.635225 166.676686 
L 559.108875 133.46698 
L 568.582525 126.705546 
L 578.056175 116.152265 
L 587.529825 112.514223 
L 597.003475 137.968688 
L 606.477125 153.692129 
L 615.950775 130.361334 
L 625.424425 118.654529 
L 634.898075 138.365027 
L 644.371725 166.931054 
L 653.845375 207.576563 
L 663.319025 246.689954 
L 672.792675 262.301001 
L 682.266325 268.530039 
L 691.739975 270.979062 
L 701.213625 272.534843 
L 710.687275 273.144141 
L 720.160925 273.167803 
L 729.634575 273.173719 
L 739.108225 273.374846 
L 748.581875 273.611467 
L 758.055525 273.794848 
L 767.529175 273.901327 
L 777.002825 273.948651 
L 786.476475 273.966398 
L 795.950125 273.966398 
L 805.423775 273.966398 
L 814.897425 273.978229 
L 824.371075 273.99006 
L 833.844725 273.99006 
L 843.318375 273.99006 
L 852.792025 273.99006 
L 862.265675 273.99006 
L 871.739325 273.99006 
L 881.212975 273.99006 
L 890.686625 273.99006 
L 900.160275 273.99006 
L 909.633925 273.99006 
L 919.107575 273.99006 
L 928.581225 273.99006 
L 938.054875 273.99006 
L 947.528525 273.99006 
L 957.002175 273.99006 
L 966.475825 273.99006 
L 975.949475 273.99006 
L 985.423125 273.99006 
" clip-path="url(#p5a590a7190)" style="fill: none; stroke: #d9534f; stroke-linecap: square"/>
   </g>
   <g id="line2d_8">
    <path d="M 38.058125 273.99006 
L 47.531775 273.99006 
L 57.005425 273.99006 
L 66.479075 273.99006 
L 75.952725 273.99006 
L 85.426375 273.99006 
L 94.900025 273.99006 
L 104.373675 273.99006 
L 113.847325 273.99006 
L 123.320975 273.99006 
L 132.794625 273.99006 
L 142.268275 273.99006 
L 151.741925 273.978288 
L 161.215575 273.948857 
L 170.689225 273.831135 
L 180.162875 273.566261 
L 189.636525 273.330818 
L 199.110175 272.206574 
L 208.583825 270.988152 
L 218.057475 270.799797 
L 227.531125 269.54606 
L 237.004775 267.079786 
L 246.478425 266.956178 
L 255.952075 269.257641 
L 265.425725 270.246505 
L 274.899375 270.499607 
L 284.373025 270.888089 
L 293.846675 270.375999 
L 303.320325 267.950928 
L 312.793975 266.579468 
L 322.267625 268.969222 
L 331.741275 270.140555 
L 341.214925 268.863273 
L 350.688575 269.116375 
L 360.162225 267.844979 
L 369.635875 259.380776 
L 379.109525 259.421979 
L 388.583175 267.115103 
L 398.056825 266.308708 
L 407.530475 259.51027 
L 417.004125 257.185264 
L 426.477775 256.720262 
L 435.951425 250.639928 
L 445.425075 244.035731 
L 454.898725 246.119408 
L 464.372375 250.045432 
L 473.846025 249.062455 
L 483.319675 248.779922 
L 492.793325 252.105565 
L 502.266975 258.439001 
L 511.740625 259.781031 
L 521.214275 235.236021 
L 530.687925 201.726492 
L 540.161575 198.412621 
L 549.635225 180.677822 
L 559.108875 139.657638 
L 568.582525 122.676258 
L 578.056175 125.383861 
L 587.529825 96.54789 
L 597.003475 102.657655 
L 606.477125 148.404372 
L 615.950775 100.697586 
L 625.424425 45.586094 
L 634.898075 90.020213 
L 644.371725 147.650952 
L 653.845375 201.090794 
L 663.319025 251.246195 
L 672.792675 263.194965 
L 682.266325 267.144533 
L 691.739975 270.499607 
L 701.213625 271.347204 
L 710.687275 271.500243 
L 720.160925 272.059421 
L 729.634575 272.34784 
L 739.108225 272.630372 
L 748.581875 273.054171 
L 758.055525 273.336704 
L 767.529175 273.548603 
L 777.002825 273.742844 
L 786.476475 273.866452 
L 795.950125 273.925313 
L 805.423775 273.919427 
L 814.897425 273.925313 
L 824.371075 273.913541 
L 833.844725 273.901769 
L 843.318375 273.942971 
L 852.792025 273.984174 
L 862.265675 273.99006 
L 871.739325 273.99006 
L 881.212975 273.99006 
L 890.686625 273.99006 
L 900.160275 273.99006 
L 909.633925 273.99006 
L 919.107575 273.99006 
L 928.581225 273.99006 
L 938.054875 273.99006 
L 947.528525 273.99006 
L 957.002175 273.99006 
L 966.475825 273.99006 
L 975.949475 273.99006 
L 985.423125 273.99006 
" clip-path="url(#p5a590a7190)" style="fill: none; stroke: #d9534f; stroke-linecap: square"/>
   </g>
   <g id="line2d_9">
    <path d="M 38.058125 273.99006 
L 47.531775 273.99006 
L 57.005425 273.99006 
L 66.479075 273.99006 
L 75.952725 273.99006 
L 85.426375 273.99006 
L 94.900025 273.99006 
L 104.373675 273.99006 
L 113.847325 273.99006 
L 123.320975 273.99006 
L 132.794625 273.99006 
L 142.268275 273.981813 
L 151.741925 273.969442 
L 161.215575 273.77976 
L 170.689225 273.136491 
L 180.162875 272.320034 
L 189.636525 270.563414 
L 199.110175 268.085178 
L 208.583825 262.745219 
L 218.057475 259.528873 
L 227.531125 262.691613 
L 237.004775 264.464727 
L 246.478425 265.388396 
L 255.952075 267.91199 
L 265.425725 268.027449 
L 274.899375 264.213192 
L 284.373025 260.992723 
L 293.846675 259.924731 
L 303.320325 260.605112 
L 312.793975 258.36604 
L 322.267625 259.875249 
L 331.741275 264.217316 
L 341.214925 263.388488 
L 350.688575 263.079224 
L 360.162225 260.576247 
L 369.635875 246.069701 
L 379.109525 240.449342 
L 388.583175 251.446772 
L 398.056825 250.263322 
L 407.530475 226.693277 
L 417.004125 219.905962 
L 426.477775 230.396199 
L 435.951425 195.412249 
L 445.425075 157.310918 
L 454.898725 189.659938 
L 464.372375 233.064117 
L 473.846025 235.608329 
L 483.319675 222.334716 
L 492.793325 214.883514 
L 502.266975 216.029853 
L 511.740625 228.849879 
L 521.214275 236.573233 
L 530.687925 224.994387 
L 540.161575 212.974324 
L 549.635225 191.049564 
L 559.108875 165.900211 
L 568.582525 148.791724 
L 578.056175 149.270052 
L 587.529825 161.962249 
L 597.003475 178.270773 
L 606.477125 183.214875 
L 615.950775 166.918721 
L 625.424425 165.760012 
L 634.898075 179.619165 
L 644.371725 193.97314 
L 653.845375 218.784365 
L 663.319025 245.513026 
L 672.792675 260.666965 
L 682.266325 268.530519 
L 691.739975 271.961288 
L 701.213625 272.905574 
L 710.687275 273.148862 
L 720.160925 273.330297 
L 729.634575 273.519979 
L 739.108225 273.722031 
L 748.581875 273.866354 
L 758.055525 273.932331 
L 767.529175 273.957072 
L 777.002825 273.961195 
L 786.476475 273.965319 
L 795.950125 273.977689 
L 805.423775 273.973566 
L 814.897425 273.965319 
L 824.371075 273.973566 
L 833.844725 273.977689 
L 843.318375 273.973566 
L 852.792025 273.977689 
L 862.265675 273.985936 
L 871.739325 273.99006 
L 881.212975 273.99006 
L 890.686625 273.99006 
L 900.160275 273.99006 
L 909.633925 273.99006 
L 919.107575 273.99006 
L 928.581225 273.99006 
L 938.054875 273.99006 
L 947.528525 273.99006 
L 957.002175 273.99006 
L 966.475825 273.99006 
L 975.949475 273.99006 
L 985.423125 273.99006 
" clip-path="url(#p5a590a7190)" style="fill: none; stroke: #d9534f; stroke-linecap: square"/>
   </g>
   <g id="line2d_10">
    <path d="M 38.058125 273.99006 
L 47.531775 273.99006 
L 57.005425 273.99006 
L 66.479075 273.99006 
L 75.952725 273.99006 
L 85.426375 273.99006 
L 94.900025 273.99006 
L 104.373675 273.99006 
L 113.847325 273.99006 
L 123.320975 273.99006 
L 132.794625 273.99006 
L 142.268275 273.99006 
L 151.741925 273.969592 
L 161.215575 273.707607 
L 170.689225 273.023988 
L 180.162875 272.160254 
L 189.636525 271.022254 
L 199.110175 268.619355 
L 208.583825 265.250383 
L 218.057475 263.338707 
L 227.531125 259.679095 
L 237.004775 256.105447 
L 246.478425 260.035232 
L 255.952075 263.862678 
L 265.425725 259.494886 
L 274.899375 253.055771 
L 284.373025 256.870937 
L 293.846675 260.338153 
L 303.320325 256.535268 
L 312.793975 255.986735 
L 322.267625 260.542829 
L 331.741275 265.213541 
L 341.214925 264.624074 
L 350.688575 262.380822 
L 360.162225 255.123001 
L 369.635875 216.602927 
L 379.109525 208.063833 
L 388.583175 244.250598 
L 398.056825 250.914857 
L 407.530475 229.632618 
L 417.004125 226.943172 
L 426.477775 238.032533 
L 435.951425 210.970236 
L 445.425075 173.346644 
L 454.898725 183.555896 
L 464.372375 208.612365 
L 473.846025 213.639215 
L 483.319675 218.367236 
L 492.793325 223.746129 
L 502.266975 226.644345 
L 511.740625 235.146597 
L 521.214275 237.897446 
L 530.687925 223.508704 
L 540.161575 213.995351 
L 549.635225 196.34407 
L 559.108875 172.310982 
L 568.582525 168.299327 
L 578.056175 183.887472 
L 587.529825 185.455292 
L 597.003475 181.288083 
L 606.477125 189.327767 
L 615.950775 189.159932 
L 625.424425 181.091594 
L 634.898075 176.822047 
L 644.371725 187.633047 
L 653.845375 210.131063 
L 663.319025 237.926101 
L 672.792675 256.457491 
L 682.266325 264.767347 
L 691.739975 270.183081 
L 701.213625 271.615815 
L 710.687275 271.517571 
L 720.160925 272.188909 
L 729.634575 273.085391 
L 739.108225 273.478369 
L 748.581875 273.732168 
L 758.055525 273.887722 
L 767.529175 273.92047 
L 777.002825 273.940938 
L 786.476475 273.957312 
L 795.950125 273.977779 
L 805.423775 273.99006 
L 814.897425 273.985966 
L 824.371075 273.973686 
L 833.844725 273.965499 
L 843.318375 273.973686 
L 852.792025 273.985966 
L 862.265675 273.99006 
L 871.739325 273.99006 
L 881.212975 273.99006 
L 890.686625 273.99006 
L 900.160275 273.99006 
L 909.633925 273.99006 
L 919.107575 273.99006 
L 928.581225 273.99006 
L 938.054875 273.99006 
L 947.528525 273.99006 
L 957.002175 273.99006 
L 966.475825 273.99006 
L 975.949475 273.99006 
L 985.423125 273.99006 
" clip-path="url(#p5a590a7190)" style="fill: none; stroke: #d9534f; stroke-linecap: square"/>
   </g>
   <g id="line2d_11">
    <path d="M 38.058125 273.99006 
L 47.531775 273.99006 
L 57.005425 273.99006 
L 66.479075 273.99006 
L 75.952725 273.99006 
L 85.426375 273.99006 
L 94.900025 273.99006 
L 104.373675 273.99006 
L 113.847325 273.99006 
L 123.320975 273.99006 
L 132.794625 273.99006 
L 142.268275 273.984904 
L 151.741925 273.969438 
L 161.215575 273.871483 
L 170.689225 273.732284 
L 180.162875 273.593086 
L 189.636525 272.93318 
L 199.110175 270.937998 
L 208.583825 268.74175 
L 218.057475 268.164333 
L 227.531125 269.133569 
L 237.004775 269.582099 
L 246.478425 269.128414 
L 255.952075 269.989384 
L 265.425725 271.010175 
L 274.899375 271.206084 
L 284.373025 271.144218 
L 293.846675 269.870807 
L 303.320325 268.313843 
L 312.793975 265.416446 
L 322.267625 266.055729 
L 331.741275 269.571788 
L 341.214925 270.185293 
L 350.688575 269.633654 
L 360.162225 268.087001 
L 369.635875 264.839029 
L 379.109525 262.570604 
L 388.583175 266.205239 
L 398.056825 266.107285 
L 407.530475 258.13171 
L 417.004125 239.49454 
L 426.477775 217.495977 
L 435.951425 203.503921 
L 445.425075 199.632133 
L 454.898725 221.037812 
L 464.372375 240.86075 
L 473.846025 243.78908 
L 483.319675 246.542122 
L 492.793325 250.140669 
L 502.266975 255.724087 
L 511.740625 258.049222 
L 521.214275 244.263387 
L 530.687925 219.104496 
L 540.161575 203.163658 
L 549.635225 165.647008 
L 559.108875 130.063675 
L 568.582525 121.263219 
L 578.056175 109.776741 
L 587.529825 107.503161 
L 597.003475 131.697972 
L 606.477125 151.309534 
L 615.950775 128.083959 
L 625.424425 106.704057 
L 634.898075 123.454311 
L 644.371725 160.218256 
L 653.845375 212.654952 
L 663.319025 251.202704 
L 672.792675 263.209888 
L 682.266325 270.551335 
L 691.739975 272.541362 
L 701.213625 273.12909 
L 710.687275 273.283755 
L 720.160925 273.38171 
L 729.634575 273.443576 
L 739.108225 273.613708 
L 748.581875 273.778684 
L 758.055525 273.876639 
L 767.529175 273.933349 
L 777.002825 273.969438 
L 786.476475 273.984904 
L 795.950125 273.979749 
L 805.423775 273.979749 
L 814.897425 273.979749 
L 824.371075 273.984904 
L 833.844725 273.984904 
L 843.318375 273.979749 
L 852.792025 273.984904 
L 862.265675 273.99006 
L 871.739325 273.99006 
L 881.212975 273.99006 
L 890.686625 273.99006 
L 900.160275 273.99006 
L 909.633925 273.99006 
L 919.107575 273.99006 
L 928.581225 273.99006 
L 938.054875 273.99006 
L 947.528525 273.99006 
L 957.002175 273.99006 
L 966.475825 273.99006 
L 975.949475 273.99006 
L 985.423125 273.99006 
" clip-path="url(#p5a590a7190)" style="fill: none; stroke: #d9534f; stroke-linecap: square"/>
   </g>
   <g id="line2d_12">
    <path d="M 38.058125 273.99006 
L 47.531775 273.99006 
L 57.005425 273.99006 
L 66.479075 273.99006 
L 75.952725 273.99006 
L 85.426375 273.99006 
L 94.900025 273.99006 
L 104.373675 273.99006 
L 113.847325 273.99006 
L 123.320975 273.99006 
L 132.794625 273.99006 
L 142.268275 273.99006 
L 151.741925 273.99006 
L 161.215575 273.907885 
L 170.689225 273.707582 
L 180.162875 273.502143 
L 189.636525 273.106674 
L 199.110175 271.483709 
L 208.583825 269.886423 
L 218.057475 269.506362 
L 227.531125 268.381586 
L 237.004775 265.993362 
L 246.478425 265.864962 
L 255.952075 268.597296 
L 265.425725 269.937783 
L 274.899375 270.019959 
L 284.373025 270.882801 
L 293.846675 270.338388 
L 303.320325 267.44684 
L 312.793975 266.676445 
L 322.267625 269.388235 
L 331.741275 270.225397 
L 341.214925 269.362555 
L 350.688575 270.076454 
L 360.162225 267.416024 
L 369.635875 258.556483 
L 379.109525 259.296062 
L 388.583175 266.938379 
L 398.056825 266.096081 
L 407.530475 256.984878 
L 417.004125 254.606926 
L 426.477775 255.716294 
L 435.951425 248.525942 
L 445.425075 239.784529 
L 454.898725 242.573358 
L 464.372375 250.580329 
L 473.846025 248.721109 
L 483.319675 246.271254 
L 492.793325 250.10782 
L 502.266975 256.06554 
L 511.740625 257.991527 
L 521.214275 237.565792 
L 530.687925 203.981713 
L 540.161575 198.301335 
L 549.635225 178.923336 
L 559.108875 136.464309 
L 568.582525 119.448854 
L 578.056175 124.045544 
L 587.529825 107.51287 
L 597.003475 106.906826 
L 606.477125 144.219617 
L 615.950775 102.649111 
L 625.424425 43.030822 
L 634.898075 87.112815 
L 644.371725 152.735048 
L 653.845375 209.71345 
L 663.319025 255.77279 
L 672.792675 265.921458 
L 682.266325 269.490954 
L 691.739975 271.781595 
L 701.213625 272.608485 
L 710.687275 272.644437 
L 720.160925 272.84474 
L 729.634575 273.13749 
L 739.108225 273.224801 
L 748.581875 273.425104 
L 758.055525 273.717854 
L 767.529175 273.810301 
L 777.002825 273.851389 
L 786.476475 273.933564 
L 795.950125 273.959244 
L 805.423775 273.948972 
L 814.897425 273.948972 
L 824.371075 273.96438 
L 833.844725 273.979788 
L 843.318375 273.99006 
L 852.792025 273.99006 
L 862.265675 273.99006 
L 871.739325 273.99006 
L 881.212975 273.99006 
L 890.686625 273.99006 
L 900.160275 273.99006 
L 909.633925 273.99006 
L 919.107575 273.99006 
L 928.581225 273.99006 
L 938.054875 273.99006 
L 947.528525 273.99006 
L 957.002175 273.99006 
L 966.475825 273.99006 
L 975.949475 273.99006 
L 985.423125 273.99006 
" clip-path="url(#p5a590a7190)" style="fill: none; stroke: #d9534f; stroke-linecap: square"/>
   </g>
   <g id="line2d_13">
    <path d="M 38.058125 273.99006 
L 47.531775 273.99006 
L 57.005425 273.99006 
L 66.479075 273.99006 
L 75.952725 273.99006 
L 85.426375 273.99006 
L 94.900025 273.99006 
L 104.373675 273.99006 
L 113.847325 273.99006 
L 123.320975 273.99006 
L 132.794625 273.99006 
L 142.268275 273.978318 
L 151.741925 273.948964 
L 161.215575 273.855031 
L 170.689225 273.303176 
L 180.162875 272.416684 
L 189.636525 271.066399 
L 199.110175 269.305157 
L 208.583825 265.348233 
L 218.057475 262.870753 
L 227.531125 265.207334 
L 237.004775 267.226891 
L 246.478425 268.013579 
L 255.952075 269.011616 
L 265.425725 267.702427 
L 274.899375 263.786599 
L 284.373025 261.931424 
L 293.846675 261.226927 
L 303.320325 262.11929 
L 312.793975 260.36979 
L 322.267625 261.138865 
L 331.741275 265.060564 
L 341.214925 264.350196 
L 350.688575 263.663312 
L 360.162225 259.506781 
L 369.635875 240.379694 
L 379.109525 236.152714 
L 388.583175 252.015632 
L 398.056825 251.287652 
L 407.530475 225.103857 
L 417.004125 216.585317 
L 426.477775 227.739849 
L 435.951425 191.04731 
L 445.425075 156.52697 
L 454.898725 188.505251 
L 464.372375 230.199717 
L 473.846025 235.718274 
L 483.319675 224.869025 
L 492.793325 217.495292 
L 502.266975 215.563797 
L 511.740625 226.988386 
L 521.214275 234.6674 
L 530.687925 223.536351 
L 540.161575 210.702769 
L 549.635225 187.98862 
L 559.108875 162.50345 
L 568.582525 145.830361 
L 578.056175 150.227594 
L 587.529825 168.521027 
L 597.003475 178.677521 
L 606.477125 183.051272 
L 615.950775 166.519082 
L 625.424425 159.568047 
L 634.898075 176.663835 
L 644.371725 194.329091 
L 653.845375 222.291741 
L 663.319025 249.896271 
L 672.792675 263.733762 
L 682.266325 270.003783 
L 691.739975 272.510617 
L 701.213625 273.197501 
L 710.687275 273.373625 
L 720.160925 273.543879 
L 729.634575 273.714132 
L 739.108225 273.790453 
L 748.581875 273.890256 
L 758.055525 273.954835 
L 767.529175 273.960706 
L 777.002825 273.966577 
L 786.476475 273.972448 
L 795.950125 273.978318 
L 805.423775 273.984189 
L 814.897425 273.99006 
L 824.371075 273.99006 
L 833.844725 273.99006 
L 843.318375 273.99006 
L 852.792025 273.984189 
L 862.265675 273.978318 
L 871.739325 273.984189 
L 881.212975 273.99006 
L 890.686625 273.99006 
L 900.160275 273.99006 
L 909.633925 273.99006 
L 919.107575 273.99006 
L 928.581225 273.99006 
L 938.054875 273.99006 
L 947.528525 273.99006 
L 957.002175 273.99006 
L 966.475825 273.99006 
L 975.949475 273.99006 
L 985.423125 273.99006 
" clip-path="url(#p5a590a7190)" style="fill: none; stroke: #d9534f; stroke-linecap: square"/>
   </g>
   <g id="line2d_14">
    <path d="M 38.058125 273.99006 
L 47.531775 273.99006 
L 57.005425 273.99006 
L 66.479075 273.99006 
L 75.952725 273.99006 
L 85.426375 273.99006 
L 94.900025 273.99006 
L 104.373675 273.99006 
L 113.847325 273.99006 
L 123.320975 273.99006 
L 132.794625 273.99006 
L 142.268275 273.978378 
L 151.741925 273.943331 
L 161.215575 273.756414 
L 170.689225 272.991224 
L 180.162875 271.922294 
L 189.636525 270.800794 
L 199.110175 268.995879 
L 208.583825 265.835819 
L 218.057475 263.300761 
L 227.531125 261.939773 
L 237.004775 260.993507 
L 246.478425 262.880198 
L 255.952075 264.206138 
L 265.425725 259.463127 
L 274.899375 253.67455 
L 284.373025 257.710783 
L 293.846675 261.244677 
L 303.320325 258.143028 
L 312.793975 256.822928 
L 322.267625 261.525052 
L 331.741275 266.55428 
L 341.214925 265.59049 
L 350.688575 263.814782 
L 360.162225 256.647694 
L 369.635875 222.710629 
L 379.109525 218.434909 
L 388.583175 249.977104 
L 398.056825 254.089271 
L 407.530475 227.611351 
L 417.004125 222.114832 
L 426.477775 235.859051 
L 435.951425 203.557507 
L 445.425075 164.199857 
L 454.898725 177.079587 
L 464.372375 206.536492 
L 473.846025 214.328582 
L 483.319675 218.64519 
L 492.793325 221.19193 
L 502.266975 220.111318 
L 511.740625 229.077479 
L 521.214275 235.304142 
L 530.687925 222.856657 
L 540.161575 213.218765 
L 549.635225 196.028268 
L 559.108875 172.371622 
L 568.582525 169.743106 
L 578.056175 186.378693 
L 587.529825 190.53759 
L 597.003475 184.924247 
L 606.477125 188.680105 
L 615.950775 187.044584 
L 625.424425 176.799212 
L 634.898075 171.390309 
L 644.371725 183.090127 
L 653.845375 210.718754 
L 663.319025 241.495758 
L 672.792675 259.211958 
L 682.266325 266.636056 
L 691.739975 270.765747 
L 701.213625 271.764583 
L 710.687275 271.490049 
L 720.160925 272.144257 
L 729.634575 273.143094 
L 739.108225 273.622068 
L 748.581875 273.78562 
L 758.055525 273.884919 
L 767.529175 273.93749 
L 777.002825 273.966695 
L 786.476475 273.984219 
L 795.950125 273.99006 
L 805.423775 273.99006 
L 814.897425 273.978378 
L 824.371075 273.966695 
L 833.844725 273.978378 
L 843.318375 273.99006 
L 852.792025 273.99006 
L 862.265675 273.99006 
L 871.739325 273.99006 
L 881.212975 273.99006 
L 890.686625 273.99006 
L 900.160275 273.99006 
L 909.633925 273.99006 
L 919.107575 273.99006 
L 928.581225 273.99006 
L 938.054875 273.99006 
L 947.528525 273.99006 
L 957.002175 273.99006 
L 966.475825 273.99006 
L 975.949475 273.99006 
L 985.423125 273.99006 
" clip-path="url(#p5a590a7190)" style="fill: none; stroke: #d9534f; stroke-linecap: square"/>
   </g>
   <g id="line2d_15">
    <path d="M 38.058125 273.99006 
L 985.423125 273.99006 
" clip-path="url(#p5a590a7190)" style="fill: none; stroke: #dedede; stroke-width: 2; stroke-linecap: square"/>
   </g>
   <g id="text_15">
    <!-- FastQC: Per Sequence GC Content -->
    <g transform="translate(375.104375 19.3575) scale(0.16 -0.16)">
     <defs>
      <path id="DejaVuSans-46" d="M 628 4666 
L 3309 4666 
L 3309 4134 
L 1259 4134 
L 1259 2759 
L 3109 2759 
L 3109 2228 
L 1259 2228 
L 1259 0 
L 628 0 
L 628 4666 
z
" transform="scale(0.015625)"/>
      <path id="DejaVuSans-73" d="M 2834 3397 
L 2834 2853 
Q 2591 2978 2328 3040 
Q 2066 3103 1784 3103 
Q 1356 3103 1142 2972 
Q 928 2841 928 2578 
Q 928 2378 1081 2264 
Q 1234 2150 1697 2047 
L 1894 2003 
Q 2506 1872 2764 1633 
Q 3022 1394 3022 966 
Q 3022 478 2636 193 
Q 2250 -91 1575 -91 
Q 1294 -91 989 -36 
Q 684 19 347 128 
L 347 722 
Q 666 556 975 473 
Q 1284 391 1588 391 
Q 1994 391 2212 530 
Q 2431 669 2431 922 
Q 2431 1156 2273 1281 
Q 2116 1406 1581 1522 
L 1381 1569 
Q 847 1681 609 1914 
Q 372 2147 372 2553 
Q 372 3047 722 3315 
Q 1072 3584 1716 3584 
Q 2034 3584 2315 3537 
Q 2597 3491 2834 3397 
z
" transform="scale(0.015625)"/>
      <path id="DejaVuSans-51" d="M 2522 4238 
Q 1834 4238 1429 3725 
Q 1025 3213 1025 2328 
Q 1025 1447 1429 934 
Q 1834 422 2522 422 
Q 3209 422 3611 934 
Q 4013 1447 4013 2328 
Q 4013 3213 3611 3725 
Q 3209 4238 2522 4238 
z
M 3406 84 
L 4238 -825 
L 3475 -825 
L 2784 -78 
Q 2681 -84 2626 -87 
Q 2572 -91 2522 -91 
Q 1538 -91 948 567 
Q 359 1225 359 2328 
Q 359 3434 948 4092 
Q 1538 4750 2522 4750 
Q 3503 4750 4090 4092 
Q 4678 3434 4678 2328 
Q 4678 1516 4351 937 
Q 4025 359 3406 84 
z
" transform="scale(0.015625)"/>
      <path id="DejaVuSans-3a" d="M 750 794 
L 1409 794 
L 1409 0 
L 750 0 
L 750 794 
z
M 750 3309 
L 1409 3309 
L 1409 2516 
L 750 2516 
L 750 3309 
z
" transform="scale(0.015625)"/>
      <path id="DejaVuSans-53" d="M 3425 4513 
L 3425 3897 
Q 3066 4069 2747 4153 
Q 2428 4238 2131 4238 
Q 1616 4238 1336 4038 
Q 1056 3838 1056 3469 
Q 1056 3159 1242 3001 
Q 1428 2844 1947 2747 
L 2328 2669 
Q 3034 2534 3370 2195 
Q 3706 1856 3706 1288 
Q 3706 609 3251 259 
Q 2797 -91 1919 -91 
Q 1588 -91 1214 -16 
Q 841 59 441 206 
L 441 856 
Q 825 641 1194 531 
Q 1563 422 1919 422 
Q 2459 422 2753 634 
Q 3047 847 3047 1241 
Q 3047 1584 2836 1778 
Q 2625 1972 2144 2069 
L 1759 2144 
Q 1053 2284 737 2584 
Q 422 2884 422 3419 
Q 422 4038 858 4394 
Q 1294 4750 2059 4750 
Q 2388 4750 2728 4690 
Q 3069 4631 3425 4513 
z
" transform="scale(0.015625)"/>
      <path id="DejaVuSans-71" d="M 947 1747 
Q 947 1113 1208 752 
Q 1469 391 1925 391 
Q 2381 391 2643 752 
Q 2906 1113 2906 1747 
Q 2906 2381 2643 2742 
Q 2381 3103 1925 3103 
Q 1469 3103 1208 2742 
Q 947 2381 947 1747 
z
M 2906 525 
Q 2725 213 2448 61 
Q 2172 -91 1784 -91 
Q 1150 -91 751 415 
Q 353 922 353 1747 
Q 353 2572 751 3078 
Q 1150 3584 1784 3584 
Q 2172 3584 2448 3432 
Q 2725 3281 2906 2969 
L 2906 3500 
L 3481 3500 
L 3481 -1331 
L 2906 -1331 
L 2906 525 
z
" transform="scale(0.015625)"/>
      <path id="DejaVuSans-75" d="M 544 1381 
L 544 3500 
L 1119 3500 
L 1119 1403 
Q 1119 906 1312 657 
Q 1506 409 1894 409 
Q 2359 409 2629 706 
Q 2900 1003 2900 1516 
L 2900 3500 
L 3475 3500 
L 3475 0 
L 2900 0 
L 2900 538 
Q 2691 219 2414 64 
Q 2138 -91 1772 -91 
Q 1169 -91 856 284 
Q 544 659 544 1381 
z
M 1991 3584 
L 1991 3584 
z
" transform="scale(0.015625)"/>
      <path id="DejaVuSans-6f" d="M 1959 3097 
Q 1497 3097 1228 2736 
Q 959 2375 959 1747 
Q 959 1119 1226 758 
Q 1494 397 1959 397 
Q 2419 397 2687 759 
Q 2956 1122 2956 1747 
Q 2956 2369 2687 2733 
Q 2419 3097 1959 3097 
z
M 1959 3584 
Q 2709 3584 3137 3096 
Q 3566 2609 3566 1747 
Q 3566 888 3137 398 
Q 2709 -91 1959 -91 
Q 1206 -91 779 398 
Q 353 888 353 1747 
Q 353 2609 779 3096 
Q 1206 3584 1959 3584 
z
" transform="scale(0.015625)"/>
     </defs>
     <use xlink:href="#DejaVuSans-46"/>
     <use xlink:href="#DejaVuSans-61" x="48.394531"/>
     <use xlink:href="#DejaVuSans-73" x="109.673828"/>
     <use xlink:href="#DejaVuSans-74" x="161.773438"/>
     <use xlink:href="#DejaVuSans-51" x="200.982422"/>
     <use xlink:href="#DejaVuSans-43" x="279.693359"/>
     <use xlink:href="#DejaVuSans-3a" x="349.517578"/>
     <use xlink:href="#DejaVuSans-20" x="383.208984"/>
     <use xlink:href="#DejaVuSans-50" x="414.996094"/>
     <use xlink:href="#DejaVuSans-65" x="471.673828"/>
     <use xlink:href="#DejaVuSans-72" x="533.197266"/>
     <use xlink:href="#DejaVuSans-20" x="574.310547"/>
     <use xlink:href="#DejaVuSans-53" x="606.097656"/>
     <use xlink:href="#DejaVuSans-65" x="669.574219"/>
     <use xlink:href="#DejaVuSans-71" x="731.097656"/>
     <use xlink:href="#DejaVuSans-75" x="794.574219"/>
     <use xlink:href="#DejaVuSans-65" x="857.953125"/>
     <use xlink:href="#DejaVuSans-6e" x="919.476562"/>
     <use xlink:href="#DejaVuSans-63" x="982.855469"/>
     <use xlink:href="#DejaVuSans-65" x="1037.835938"/>
     <use xlink:href="#DejaVuSans-20" x="1099.359375"/>
     <use xlink:href="#DejaVuSans-47" x="1131.146484"/>
     <use xlink:href="#DejaVuSans-43" x="1208.636719"/>
     <use xlink:href="#DejaVuSans-20" x="1278.460938"/>
     <use xlink:href="#DejaVuSans-43" x="1310.248047"/>
     <use xlink:href="#DejaVuSans-6f" x="1380.072266"/>
     <use xlink:href="#DejaVuSans-6e" x="1441.253906"/>
     <use xlink:href="#DejaVuSans-74" x="1504.632812"/>
     <use xlink:href="#DejaVuSans-65" x="1543.841797"/>
     <use xlink:href="#DejaVuSans-6e" x="1605.365234"/>
     <use xlink:href="#DejaVuSans-74" x="1668.744141"/>
    </g>
   </g>
   <g id="legend_1">
    <g id="line2d_16">
     <path d="M 45.258125 303.490394 
L 53.258125 303.490394 
L 61.258125 303.490394 
" style="fill: none; stroke: #d9534f; stroke-linecap: square"/>
    </g>
    <g id="text_16">
     <!-- CONTROL_REP1_1 -->
     <g transform="translate(67.658125 306.290394) scale(0.08 -0.08)">
      <defs>
       <path id="DejaVuSans-4f" d="M 2522 4238 
Q 1834 4238 1429 3725 
Q 1025 3213 1025 2328 
Q 1025 1447 1429 934 
Q 1834 422 2522 422 
Q 3209 422 3611 934 
Q 4013 1447 4013 2328 
Q 4013 3213 3611 3725 
Q 3209 4238 2522 4238 
z
M 2522 4750 
Q 3503 4750 4090 4092 
Q 4678 3434 4678 2328 
Q 4678 1225 4090 567 
Q 3503 -91 2522 -91 
Q 1538 -91 948 565 
Q 359 1222 359 2328 
Q 359 3434 948 4092 
Q 1538 4750 2522 4750 
z
" transform="scale(0.015625)"/>
       <path id="DejaVuSans-4e" d="M 628 4666 
L 1478 4666 
L 3547 763 
L 3547 4666 
L 4159 4666 
L 4159 0 
L 3309 0 
L 1241 3903 
L 1241 0 
L 628 0 
L 628 4666 
z
" transform="scale(0.015625)"/>
       <path id="DejaVuSans-54" d="M -19 4666 
L 3928 4666 
L 3928 4134 
L 2272 4134 
L 2272 0 
L 1638 0 
L 1638 4134 
L -19 4134 
L -19 4666 
z
" transform="scale(0.015625)"/>
       <path id="DejaVuSans-52" d="M 2841 2188 
Q 3044 2119 3236 1894 
Q 3428 1669 3622 1275 
L 4263 0 
L 3584 0 
L 2988 1197 
Q 2756 1666 2539 1819 
Q 2322 1972 1947 1972 
L 1259 1972 
L 1259 0 
L 628 0 
L 628 4666 
L 2053 4666 
Q 2853 4666 3247 4331 
Q 3641 3997 3641 3322 
Q 3641 2881 3436 2590 
Q 3231 2300 2841 2188 
z
M 1259 4147 
L 1259 2491 
L 2053 2491 
Q 2509 2491 2742 2702 
Q 2975 2913 2975 3322 
Q 2975 3731 2742 3939 
Q 2509 4147 2053 4147 
L 1259 4147 
z
" transform="scale(0.015625)"/>
       <path id="DejaVuSans-4c" d="M 628 4666 
L 1259 4666 
L 1259 531 
L 3531 531 
L 3531 0 
L 628 0 
L 628 4666 
z
" transform="scale(0.015625)"/>
       <path id="DejaVuSans-5f" d="M 3263 -1063 
L 3263 -1509 
L -63 -1509 
L -63 -1063 
L 3263 -1063 
z
" transform="scale(0.015625)"/>
       <path id="DejaVuSans-45" d="M 628 4666 
L 3578 4666 
L 3578 4134 
L 1259 4134 
L 1259 2753 
L 3481 2753 
L 3481 2222 
L 1259 2222 
L 1259 531 
L 3634 531 
L 3634 0 
L 628 0 
L 628 4666 
z
" transform="scale(0.015625)"/>
      </defs>
      <use xlink:href="#DejaVuSans-43"/>
      <use xlink:href="#DejaVuSans-4f" x="69.824219"/>
      <use xlink:href="#DejaVuSans-4e" x="148.535156"/>
      <use xlink:href="#DejaVuSans-54" x="223.339844"/>
      <use xlink:href="#DejaVuSans-52" x="284.423828"/>
      <use xlink:href="#DejaVuSans-4f" x="353.90625"/>
      <use xlink:href="#DejaVuSans-4c" x="432.617188"/>
      <use xlink:href="#DejaVuSans-5f" x="488.330078"/>
      <use xlink:href="#DejaVuSans-52" x="538.330078"/>
      <use xlink:href="#DejaVuSans-45" x="607.8125"/>
      <use xlink:href="#DejaVuSans-50" x="670.996094"/>
      <use xlink:href="#DejaVuSans-31" x="731.298828"/>
      <use xlink:href="#DejaVuSans-5f" x="794.921875"/>
      <use xlink:href="#DejaVuSans-31" x="844.921875"/>
     </g>
    </g>
    <g id="line2d_17">
     <path d="M 45.258125 315.455394 
L 53.258125 315.455394 
L 61.258125 315.455394 
" style="fill: none; stroke: #d9534f; stroke-linecap: square"/>
    </g>
    <g id="text_17">
     <!-- CONTROL_REP1_2 -->
     <g transform="translate(67.658125 318.255394) scale(0.08 -0.08)">
      <use xlink:href="#DejaVuSans-43"/>
      <use xlink:href="#DejaVuSans-4f" x="69.824219"/>
      <use xlink:href="#DejaVuSans-4e" x="148.535156"/>
      <use xlink:href="#DejaVuSans-54" x="223.339844"/>
      <use xlink:href="#DejaVuSans-52" x="284.423828"/>
      <use xlink:href="#DejaVuSans-4f" x="353.90625"/>
      <use xlink:href="#DejaVuSans-4c" x="432.617188"/>
      <use xlink:href="#DejaVuSans-5f" x="488.330078"/>
      <use xlink:href="#DejaVuSans-52" x="538.330078"/>
      <use xlink:href="#DejaVuSans-45" x="607.8125"/>
      <use xlink:href="#DejaVuSans-50" x="670.996094"/>
      <use xlink:href="#DejaVuSans-31" x="731.298828"/>
      <use xlink:href="#DejaVuSans-5f" x="794.921875"/>
      <use xlink:href="#DejaVuSans-32" x="844.921875"/>
     </g>
    </g>
    <g id="line2d_18">
     <path d="M 254.727812 303.490394 
L 262.727812 303.490394 
L 270.727812 303.490394 
" style="fill: none; stroke: #d9534f; stroke-linecap: square"/>
    </g>
    <g id="text_18">
     <!-- CONTROL_REP2_1 -->
     <g transform="translate(277.127812 306.290394) scale(0.08 -0.08)">
      <use xlink:href="#DejaVuSans-43"/>
      <use xlink:href="#DejaVuSans-4f" x="69.824219"/>
      <use xlink:href="#DejaVuSans-4e" x="148.535156"/>
      <use xlink:href="#DejaVuSans-54" x="223.339844"/>
      <use xlink:href="#DejaVuSans-52" x="284.423828"/>
      <use xlink:href="#DejaVuSans-4f" x="353.90625"/>
      <use xlink:href="#DejaVuSans-4c" x="432.617188"/>
      <use xlink:href="#DejaVuSans-5f" x="488.330078"/>
      <use xlink:href="#DejaVuSans-52" x="538.330078"/>
      <use xlink:href="#DejaVuSans-45" x="607.8125"/>
      <use xlink:href="#DejaVuSans-50" x="670.996094"/>
      <use xlink:href="#DejaVuSans-32" x="731.298828"/>
      <use xlink:href="#DejaVuSans-5f" x="794.921875"/>
      <use xlink:href="#DejaVuSans-31" x="844.921875"/>
     </g>
    </g>
    <g id="line2d_19">
     <path d="M 254.727812 315.455394 
L 262.727812 315.455394 
L 270.727812 315.455394 
" style="fill: none; stroke: #d9534f; stroke-linecap: square"/>
    </g>
    <g id="text_19">
     <!-- CONTROL_REP2_2 -->
     <g transform="translate(277.127812 318.255394) scale(0.08 -0.08)">
      <use xlink:href="#DejaVuSans-43"/>
      <use xlink:href="#DejaVuSans-4f" x="69.824219"/>
      <use xlink:href="#DejaVuSans-4e" x="148.535156"/>
      <use xlink:href="#DejaVuSans-54" x="223.339844"/>
      <use xlink:href="#DejaVuSans-52" x="284.423828"/>
      <use xlink:href="#DejaVuSans-4f" x="353.90625"/>
      <use xlink:href="#DejaVuSans-4c" x="432.617188"/>
      <use xlink:href="#DejaVuSans-5f" x="488.330078"/>
      <use xlink:href="#DejaVuSans-52" x="538.330078"/>
      <use xlink:href="#DejaVuSans-45" x="607.8125"/>
      <use xlink:href="#DejaVuSans-50" x="670.996094"/>
      <use xlink:href="#DejaVuSans-32" x="731.298828"/>
      <use xlink:href="#DejaVuSans-5f" x="794.921875"/>
      <use xlink:href="#DejaVuSans-32" x="844.921875"/>
     </g>
    </g>
    <g id="line2d_20">
     <path d="M 464.1975 303.490394 
L 472.1975 303.490394 
L 480.1975 303.490394 
" style="fill: none; stroke: #d9534f; stroke-linecap: square"/>
    </g>
    <g id="text_20">
     <!-- CONTROL_REP3_1 -->
     <g transform="translate(486.5975 306.290394) scale(0.08 -0.08)">
      <defs>
       <path id="DejaVuSans-33" d="M 2597 2516 
Q 3050 2419 3304 2112 
Q 3559 1806 3559 1356 
Q 3559 666 3084 287 
Q 2609 -91 1734 -91 
Q 1441 -91 1130 -33 
Q 819 25 488 141 
L 488 750 
Q 750 597 1062 519 
Q 1375 441 1716 441 
Q 2309 441 2620 675 
Q 2931 909 2931 1356 
Q 2931 1769 2642 2001 
Q 2353 2234 1838 2234 
L 1294 2234 
L 1294 2753 
L 1863 2753 
Q 2328 2753 2575 2939 
Q 2822 3125 2822 3475 
Q 2822 3834 2567 4026 
Q 2313 4219 1838 4219 
Q 1578 4219 1281 4162 
Q 984 4106 628 3988 
L 628 4550 
Q 988 4650 1302 4700 
Q 1616 4750 1894 4750 
Q 2613 4750 3031 4423 
Q 3450 4097 3450 3541 
Q 3450 3153 3228 2886 
Q 3006 2619 2597 2516 
z
" transform="scale(0.015625)"/>
      </defs>
      <use xlink:href="#DejaVuSans-43"/>
      <use xlink:href="#DejaVuSans-4f" x="69.824219"/>
      <use xlink:href="#DejaVuSans-4e" x="148.535156"/>
      <use xlink:href="#DejaVuSans-54" x="223.339844"/>
      <use xlink:href="#DejaVuSans-52" x="284.423828"/>
      <use xlink:href="#DejaVuSans-4f" x="353.90625"/>
      <use xlink:href="#DejaVuSans-4c" x="432.617188"/>
      <use xlink:href="#DejaVuSans-5f" x="488.330078"/>
      <use xlink:href="#DejaVuSans-52" x="538.330078"/>
      <use xlink:href="#DejaVuSans-45" x="607.8125"/>
      <use xlink:href="#DejaVuSans-50" x="670.996094"/>
      <use xlink:href="#DejaVuSans-33" x="731.298828"/>
      <use xlink:href="#DejaVuSans-5f" x="794.921875"/>
      <use xlink:href="#DejaVuSans-31" x="844.921875"/>
     </g>
    </g>
    <g id="line2d_21">
     <path d="M 464.1975 315.455394 
L 472.1975 315.455394 
L 480.1975 315.455394 
" style="fill: none; stroke: #d9534f; stroke-linecap: square"/>
    </g>
    <g id="text_21">
     <!-- CONTROL_REP3_2 -->
     <g transform="translate(486.5975 318.255394) scale(0.08 -0.08)">
      <use xlink:href="#DejaVuSans-43"/>
      <use xlink:href="#DejaVuSans-4f" x="69.824219"/>
      <use xlink:href="#DejaVuSans-4e" x="148.535156"/>
      <use xlink:href="#DejaVuSans-54" x="223.339844"/>
      <use xlink:href="#DejaVuSans-52" x="284.423828"/>
      <use xlink:href="#DejaVuSans-4f" x="353.90625"/>
      <use xlink:href="#DejaVuSans-4c" x="432.617188"/>
      <use xlink:href="#DejaVuSans-5f" x="488.330078"/>
      <use xlink:href="#DejaVuSans-52" x="538.330078"/>
      <use xlink:href="#DejaVuSans-45" x="607.8125"/>
      <use xlink:href="#DejaVuSans-50" x="670.996094"/>
      <use xlink:href="#DejaVuSans-33" x="731.298828"/>
      <use xlink:href="#DejaVuSans-5f" x="794.921875"/>
      <use xlink:href="#DejaVuSans-32" x="844.921875"/>
     </g>
    </g>
    <g id="line2d_22">
     <path d="M 673.667188 303.490394 
L 681.667188 303.490394 
L 689.667188 303.490394 
" style="fill: none; stroke: #d9534f; stroke-linecap: square"/>
    </g>
    <g id="text_22">
     <!-- CONTROL_REP4_1 -->
     <g transform="translate(696.067188 306.290394) scale(0.08 -0.08)">
      <use xlink:href="#DejaVuSans-43"/>
      <use xlink:href="#DejaVuSans-4f" x="69.824219"/>
      <use xlink:href="#DejaVuSans-4e" x="148.535156"/>
      <use xlink:href="#DejaVuSans-54" x="223.339844"/>
      <use xlink:href="#DejaVuSans-52" x="284.423828"/>
      <use xlink:href="#DejaVuSans-4f" x="353.90625"/>
      <use xlink:href="#DejaVuSans-4c" x="432.617188"/>
      <use xlink:href="#DejaVuSans-5f" x="488.330078"/>
      <use xlink:href="#DejaVuSans-52" x="538.330078"/>
      <use xlink:href="#DejaVuSans-45" x="607.8125"/>
      <use xlink:href="#DejaVuSans-50" x="670.996094"/>
      <use xlink:href="#DejaVuSans-34" x="731.298828"/>
      <use xlink:href="#DejaVuSans-5f" x="794.921875"/>
      <use xlink:href="#DejaVuSans-31" x="844.921875"/>
     </g>
    </g>
    <g id="line2d_23">
     <path d="M 883.136875 303.490394 
L 891.136875 303.490394 
L 899.136875 303.490394 
" style="fill: none; stroke: #d9534f; stroke-linecap: square"/>
    </g>
    <g id="text_23">
     <!-- CONTROL_REP4_2 -->
     <g transform="translate(905.536875 306.290394) scale(0.08 -0.08)">
      <use xlink:href="#DejaVuSans-43"/>
      <use xlink:href="#DejaVuSans-4f" x="69.824219"/>
      <use xlink:href="#DejaVuSans-4e" x="148.535156"/>
      <use xlink:href="#DejaVuSans-54" x="223.339844"/>
      <use xlink:href="#DejaVuSans-52" x="284.423828"/>
      <use xlink:href="#DejaVuSans-4f" x="353.90625"/>
      <use xlink:href="#DejaVuSans-4c" x="432.617188"/>
      <use xlink:href="#DejaVuSans-5f" x="488.330078"/>
      <use xlink:href="#DejaVuSans-52" x="538.330078"/>
      <use xlink:href="#DejaVuSans-45" x="607.8125"/>
      <use xlink:href="#DejaVuSans-50" x="670.996094"/>
      <use xlink:href="#DejaVuSans-34" x="731.298828"/>
      <use xlink:href="#DejaVuSans-5f" x="794.921875"/>
      <use xlink:href="#DejaVuSans-32" x="844.921875"/>
     </g>
    </g>
   </g>
  </g>
 </g>
 <defs>
  <clipPath id="p5a590a7190">
   <rect x="38.058125" y="31.48286" width="947.365" height="242.5072"/>
  </clipPath>
 </defs>
</svg>
